<svg width="40" height="40" viewBox="0 0 40 40" fill="none" xmlns="http://www.w3.org/2000/svg">
<circle cx="20" cy="20" r="20" fill="#EC8B33"/>
<g clip-path="url(#clip0)">
<path d="M26.5958 20.8563C26.2725 20.4479 26.365 20.2663 26.5958 19.9013C26.6 19.8971 29.2692 16.2088 29.5442 14.9579L29.5458 14.9571C29.6825 14.5013 29.5458 14.1663 28.885 14.1663H26.6983C26.1417 14.1663 25.885 14.4538 25.7475 14.7754C25.7475 14.7754 24.6342 17.4404 23.0592 19.1679C22.5508 19.6671 22.3158 19.8271 22.0383 19.8271C21.9017 19.8271 21.6892 19.6671 21.6892 19.2113V14.9571C21.6892 14.4104 21.5333 14.1663 21.0725 14.1663H17.6342C17.285 14.1663 17.0775 14.4213 17.0775 14.6588C17.0775 15.1771 17.865 15.2963 17.9467 16.7546V19.9188C17.9467 20.6121 17.8208 20.7396 17.5417 20.7396C16.7983 20.7396 14.9942 18.0638 13.925 15.0013C13.7092 14.4071 13.4983 14.1671 12.9375 14.1671H10.75C10.1258 14.1671 10 14.4546 10 14.7763C10 15.3446 10.7433 18.1704 13.4567 21.9038C15.265 24.4521 17.8117 25.8329 20.1283 25.8329C21.5208 25.8329 21.6908 25.5263 21.6908 24.9988C21.6908 22.5638 21.565 22.3338 22.2625 22.3338C22.5858 22.3338 23.1425 22.4938 24.4425 23.7229C25.9283 25.1804 26.1725 25.8329 27.0042 25.8329H29.1908C29.8142 25.8329 30.13 25.5263 29.9483 24.9213C29.5325 23.6488 26.7225 21.0313 26.5958 20.8563Z" fill="white"/>
</g>
<defs>
<clipPath id="clip0">
<rect width="20" height="20" fill="white" transform="translate(10 10)"/>
</clipPath>
</defs>
</svg>
