<svg width="20" height="20" viewBox="0 0 20 20" fill="none" xmlns="http://www.w3.org/2000/svg">
<path d="M14.6771 12.9094C15.6612 11.5654 16.2499 9.91462 16.2499 8.12498C16.2499 3.64502 12.6049 0 8.12494 0C3.64498 0 0 3.64502 0 8.12498C0 12.6049 3.64502 16.25 8.12498 16.25C9.91462 16.25 11.5656 15.6612 12.9096 14.677L18.2324 19.9999L20 18.2323C20 18.2323 14.6771 12.9094 14.6771 12.9094ZM8.12498 13.75C5.02318 13.75 2.50001 11.2268 2.50001 8.12498C2.50001 5.02318 5.02318 2.50001 8.12498 2.50001C11.2268 2.50001 13.75 5.02318 13.75 8.12498C13.75 11.2268 11.2267 13.75 8.12498 13.75Z" fill="white"/>
</svg>
