<svg width="60" height="60" viewBox="0 0 60 60" fill="none" xmlns="http://www.w3.org/2000/svg">
<g clip-path="url(#clip0)">
<path d="M55.0001 20.0009H54.3057L45.7191 5.00206C45.0538 3.84237 43.9796 3.0135 42.6941 2.66933C42.2163 2.54171 41.7303 2.48675 41.2491 2.50268C40.4423 2.52952 39.6493 2.75593 38.932 3.17347L2.47938 24.3954C0.884342 25.3237 -0.00733733 27.0167 4.54825e-05 28.751C0.00356111 29.5892 0.2186 30.437 0.662858 31.213L7.50005 43.1555V52.5009C7.50005 55.2584 9.74243 57.5009 12.5001 57.5009H55.0001C57.7577 57.5009 60.0002 55.2585 60.0002 52.5009V25.0008C60 22.2433 57.7577 20.0009 55.0001 20.0009ZM7.50005 38.1217L6.54532 36.4539L7.50005 35.8981V38.1217ZM7.50005 33.0054L5.30313 34.2844L4.06903 32.1286L7.50005 30.1313V33.0054ZM7.50005 25.0008V27.2386L2.82919 29.9577C2.15395 28.7657 2.55895 27.2421 3.73657 26.5559L7.56837 24.3252C7.5379 24.5485 7.50005 24.7695 7.50005 25.0008ZM51.4239 20.0009H34.8045L47.2693 12.7437L51.4239 20.0009ZM46.0272 10.5741L29.8362 20.0008H24.8998L44.7933 8.41878L46.0272 10.5741ZM40.1906 5.33405C40.7569 5.0044 41.4161 4.91288 42.0473 5.08386C42.6857 5.25472 43.218 5.66733 43.5488 6.24472L43.5514 6.24929L19.9314 20.0009H14.9968L40.1906 5.33405ZM57.5001 52.5009C57.5001 53.879 56.3783 55.0008 55.0001 55.0008H12.5001C11.122 55.0008 10.0001 53.879 10.0001 52.5009V25.0008C10.0001 23.6227 11.122 22.5008 12.5001 22.5008H55.0001C56.3783 22.5008 57.5001 23.6227 57.5001 25.0008V52.5009Z" fill="#010101"/>
<path d="M47.3438 40C46.5234 40 45.7263 40.1904 45 40.5566C44.2737 40.1904 43.4766 40 42.6562 40C39.8133 40 37.5 42.2424 37.5 45C37.5 47.7577 39.8133 50.0001 42.6562 50.0001C43.4766 50.0001 44.2737 49.8096 45 49.4434C45.7263 49.8096 46.5234 50.0001 47.3438 50.0001C50.1867 50.0001 52.5 47.7577 52.5 45C52.5 42.2424 50.1868 40 47.3438 40ZM47.3438 47.5C46.7664 47.5 46.2109 47.3168 45.7336 46.9715C45.515 46.8128 45.2575 46.7335 45 46.7335C44.7424 46.7335 44.4848 46.8128 44.2664 46.9715C43.7891 47.317 43.2336 47.5 42.6562 47.5C41.1914 47.5 40 46.3782 40 45C40 43.6219 41.1914 42.5001 42.6562 42.5001C43.2336 42.5001 43.7891 42.6832 44.2664 43.0286C44.7034 43.3459 45.2967 43.3459 45.7337 43.0286C46.211 42.6831 46.7665 42.5001 47.3439 42.5001C48.8087 42.5001 50.0002 43.6219 50.0002 45C50.0002 46.3782 48.8086 47.5 47.3438 47.5Z" fill="#010101"/>
<path d="M16.25 42.5001H28.7501C29.441 42.5001 30.0001 41.941 30.0001 41.25C30.0001 40.5591 29.441 40 28.7501 40H16.25C15.5591 40 15 40.5591 15 41.25C15 41.941 15.5591 42.5001 16.25 42.5001Z" fill="#010101"/>
<path d="M33.75 47.5H16.25C15.5591 47.5 15 48.0591 15 48.75C15 49.441 15.5591 50.0001 16.25 50.0001H33.75C34.4409 50.0001 35 49.441 35 48.75C35 48.0591 34.4409 47.5 33.75 47.5Z" fill="#010101"/>
</g>
<defs>
<clipPath id="clip0">
<rect width="60" height="60" fill="white"/>
</clipPath>
</defs>
</svg>
