<svg width="60" height="60" viewBox="0 0 60 60" fill="none" xmlns="http://www.w3.org/2000/svg">
<path d="M52.5 36.2516C50.0593 36.2516 45 37.6108 42.4353 38.3475C42.095 34.7605 37.4988 33.4908 32.7491 32.526C30.5811 32.0865 28.9673 31.309 27.4073 30.5557C25.4835 29.6279 23.6671 28.7515 21.2501 28.7515C18.4823 28.7515 15.96 29.3176 14.5366 29.7093C14.1604 28.4001 13.0929 27.3448 11.6748 27.062L1.49414 25.0261C1.13039 24.9529 0.74707 25.0481 0.456562 25.2849C0.168516 25.5229 0 25.8769 0 26.2517V46.2517C0 46.9426 0.559102 47.5017 1.25004 47.5017H9.08203C10.6256 47.5017 11.9411 46.5198 12.5066 45.1413C15.3076 46.4766 28.2517 52.5016 33.75 52.5016C38.5986 52.5016 48.5816 47.5944 55.1856 44.3474C56.9068 43.5014 58.3301 42.8008 59.2529 42.3967C59.707 42.1965 60 41.7472 60 41.2517C60 38.3073 56.9166 36.2516 52.5 36.2516ZM12.1778 30.916L10.3199 43.9287C10.232 44.5403 9.69973 45.0017 9.08203 45.0017H2.49996V27.7763L11.1865 29.5133C11.8359 29.644 12.2729 30.2592 12.1778 30.916ZM54.082 42.1037C48.0737 45.0578 38.0176 50.0017 33.75 50.0017C29.2041 50.0017 17.2631 44.6782 13.0468 42.6274C13.0421 42.6251 13.0369 42.6259 13.0322 42.6238L14.503 32.3226C15.4138 32.0377 18.1965 31.2517 21.25 31.2517C23.0957 31.2517 24.519 31.939 26.3232 32.8081C27.942 33.5894 29.7778 34.4744 32.2509 34.9772C37.683 36.0783 40 37.2074 40 38.7516C40 39.0567 39.9071 39.2447 39.6703 39.4218C38.8768 40.0163 35.7714 41.0148 24.1063 37.5529C23.4397 37.36 22.7489 37.7347 22.5511 38.3964C22.3557 39.058 22.7318 39.7538 23.3934 39.9503C29.1527 41.6569 33.5545 42.5077 36.6746 42.5077C38.7083 42.5077 40.2 42.1464 41.1645 41.4249C41.2474 41.3629 41.3082 41.287 41.3837 41.2204C41.4623 41.2117 41.5397 41.2208 41.6186 41.1966C43.8281 40.5168 50.0904 38.7517 52.5 38.7517C54.5386 38.7517 56.6845 39.3706 57.3144 40.5339C56.4429 40.944 55.3418 41.486 54.082 42.1037Z" fill="black"/>
<path d="M38.75 30.0001C42.1412 30.0001 45.1816 28.0024 46.6154 24.9632C51.2671 24.7668 55 20.9491 55 16.25C55 11.4258 51.0742 7.5 46.2499 7.5C42.7566 7.5 39.7576 9.57234 38.3559 12.5399C33.7178 12.7509 30 16.5608 30 21.2501C30 26.0743 33.9258 30.0001 38.75 30.0001ZM46.25 10.0001C49.6973 10.0001 52.5 12.804 52.5 16.25C52.5 19.6961 49.6972 22.5001 46.25 22.5001C42.8029 22.5001 40.0001 19.6962 40.0001 16.2502C40.0001 12.8041 42.8027 10.0001 46.25 10.0001ZM37.6131 15.1311C37.565 15.5014 37.5 15.867 37.5 16.25C37.5 16.8866 37.5768 17.5042 37.7065 18.1024C37.5871 18.2941 37.5 18.5075 37.5 18.7501V23.7502C37.5 24.4411 38.0591 25.0002 38.75 25.0002C39.441 25.0002 40.0001 24.4411 40.0001 23.7502V22.3545C41.0674 23.4471 42.4257 24.2331 43.939 24.6509C42.8053 26.392 40.8736 27.5002 38.75 27.5002C35.3027 27.5002 32.5001 24.6962 32.5001 21.2502C32.5 18.2137 34.68 15.6836 37.6131 15.1311Z" fill="black"/>
<path d="M46.25 20.0001C46.941 20.0001 47.5001 19.441 47.5001 18.7501V13.75C47.5001 13.0591 46.941 12.5 46.25 12.5C45.5591 12.5 45 13.0592 45 13.75V18.7501C45 19.441 45.5591 20.0001 46.25 20.0001Z" fill="black"/>
</svg>
