<svg width="289" height="80" viewBox="0 0 289 80" fill="none" xmlns="http://www.w3.org/2000/svg">
<path d="M223.009 22.9942C229.524 16.8969 241.113 16.9906 247.593 23.1924C248.494 24.4284 243.892 25.8987 248.285 25.2104C249.614 25.0374 250.951 26.0789 251.232 27.3509C249.074 27.4735 246.908 27.2284 244.764 27.4554C244.13 27.9816 243.744 28.7311 243.539 29.5167C246.519 29.5996 249.506 29.4699 252.494 29.6212C252.645 30.2518 253.784 31.2284 252.865 31.6284C249.445 31.8879 246.011 31.5311 242.598 31.769C242.54 32.3239 241.906 33.0951 242.616 33.4482C246.281 33.632 249.953 33.4014 253.625 33.5599C253.827 33.8518 254.011 34.1545 254.18 34.4717C253.456 34.5834 252.785 35.196 252.04 34.9365C250.461 33.5708 250.429 35.1672 250.007 35.9383C249.73 36.4608 249.459 36.9834 249.247 37.5347C248.958 36.6915 248.919 35.6536 248.187 35.0554C246.915 34.2554 245.121 34.3527 244.014 35.3762C243.319 36.3455 243.002 37.5095 242.609 38.6194C241.668 37.0987 242.267 40.0068 242.14 40.7636C240.086 41.1672 241.589 38.2879 241.82 37.4843C243.622 36.2158 242.634 32.5041 240.068 33.5383C239.722 35.0446 239.485 36.5762 239.232 38.1005C238.811 38.2266 238.566 38.5041 238.501 38.9365C237.856 38.3888 237.157 37.9167 236.512 37.3762C235.694 35.9672 238.393 37.3257 238.886 36.3131C240.205 33.6068 237.362 34.6807 236.058 34.623C235.272 34.7924 234.778 35.5311 234.187 36.0212C234.036 36.0176 233.73 36.0104 233.578 36.0068C232.804 35.1888 232.119 33.8663 230.631 34.5906C229.099 33.8771 227.784 35.3113 228.094 36.6843C228.256 36.6735 228.58 36.6482 228.742 36.6338C229.42 36.8392 230.699 36.4032 230.706 37.4554C229.319 37.4951 228.126 38.187 227.049 38.9942C226.958 36.9005 227.589 34.8825 227.744 32.8068C226.645 32.8068 225.632 32.7131 224.562 32.8284C223.69 34.4681 223.82 36.5654 222.44 37.9599C222.331 36.2374 222.414 34.5149 222.299 32.796C221.376 32.7311 220.461 32.7455 219.553 32.85C219.384 33.4014 219.236 33.9599 219.095 34.5221C217.517 34.7599 218.731 37.0663 218.36 38.1834C217.42 39.7005 217.798 41.5708 217.344 43.2392L218.89 43.1095C218.984 43.0158 219.175 42.8284 219.272 42.7347C220.04 42.1473 220.18 41.1455 220.458 40.2843C220.458 41.2717 220.494 42.2626 220.573 43.25C221.049 43.2104 221.643 43.3726 222.04 43.023C223.272 42.1149 223.513 40.5293 224.025 39.1888C224.097 39.7257 224.173 40.2627 224.249 40.7996C224.158 41.3726 224.068 41.9455 223.957 42.5185C223.247 43.5563 224.966 43.7185 225.575 42.9473C225.744 42.8032 226.083 42.5221 226.256 42.3816C227.355 42.7563 228.858 43.8446 229.895 42.9041C230.043 42.7924 230.335 42.569 230.479 42.4608C230.54 42.6338 230.663 42.987 230.721 43.1636C232.659 42.9798 234.962 43.8446 236.767 42.9221C237.312 42.5762 237.867 42.2374 238.364 41.8158C238.645 43.0915 239.921 43.9167 241.142 42.9906C241.629 42.6771 242.162 42.3636 242.292 41.7473C243.73 43.2464 246.025 43.8843 247.931 42.9113C248.09 42.8032 248.407 42.587 248.566 42.4753C248.638 43.4807 249.297 43.65 250.548 42.9834C252.465 42.1113 250.919 38.6987 252.667 37.387C252.71 39.1744 253.351 40.8212 254.04 42.4392C253.73 42.7744 253.438 43.1203 253.139 43.4554C249.877 43.841 246.58 43.3798 243.326 43.6789C242.393 44.1221 243.29 45.178 243.676 45.7257C246.54 45.859 249.42 45.6645 252.292 45.8014C252.126 46.6014 251.712 47.3437 251.077 47.8663C249.049 47.9744 247.016 47.8771 244.994 47.9599C245.157 48.5798 245.546 49.0987 245.899 49.6248C246.868 49.6645 248.811 49.7401 249.78 49.7798C249.513 50.7275 248.623 51.3041 248.122 52.1185C246.025 53.25 244.245 54.9762 241.924 55.6609C236.49 57.632 230.101 57.3257 225.24 54.0464C217.405 49.8266 214.072 39.6356 216.987 31.3906C217.96 29.632 218.396 27.4374 219.917 26.0464C221.24 25.3005 221.373 23.3654 223.009 22.9942Z" fill="#C30607"/>
<path d="M233.528 38.8828C234.371 39.5315 235.2 40.2089 236.126 40.7387C235.337 41.1963 234.483 40.8216 233.65 40.7891C233.463 41.1999 233.272 41.6107 233.081 42.018L232.912 41.8017C233.081 40.8216 233.322 39.8558 233.528 38.8828Z" fill="#C30607"/>
<path d="M229.178 39.6498C229.665 39.6246 230.151 39.6246 230.641 39.6498C230.678 40.1903 230.649 41.0876 229.91 41.0624C229.168 41.0876 229.135 40.1903 229.178 39.6498Z" fill="#C30607"/>
<path d="M245.359 40.7274C245.013 38.94 247.218 39.7364 248.364 39.5418C248.533 39.567 248.869 39.6139 249.038 39.6391L249.438 39.722C249.413 39.8661 249.366 40.158 249.341 40.3058C249.135 40.5796 248.93 40.8535 248.732 41.1274C248.706 40.958 248.656 40.6121 248.631 40.4391C247.575 40.6914 246.375 41.5238 245.359 40.7274Z" fill="#C30607"/>
<path d="M255.366 19.2692C262.389 17.1143 270.429 19.3413 275.218 24.9557C276.407 26.9089 278.097 28.5233 278.695 30.8765C282.749 40.2566 277.477 52.3251 267.791 55.5864C264.072 57.3449 259.398 57.6116 255.503 56.1882C252.85 55.2764 250.011 54.3107 248.122 52.1197C248.623 51.3053 249.513 50.7287 249.78 49.781C248.811 49.7413 246.868 49.6656 245.899 49.626C245.546 49.0999 245.157 48.581 244.994 47.9611C247.016 47.8783 249.048 47.9755 251.077 47.8674C251.712 47.3449 252.126 46.6026 252.292 45.8026C249.42 45.6656 246.54 45.8602 243.675 45.7269C243.29 45.1792 242.393 44.1233 243.326 43.6801C246.58 43.381 249.877 43.8422 253.139 43.4566C253.438 43.1215 253.73 42.7755 254.039 42.4404C255.175 43.381 257.2 44.1846 258.364 42.8909C258.685 42.7359 259.016 42.6026 259.362 42.4909C260.025 43.59 261.319 43.7701 262.4 43.1936C262.544 43.1972 262.829 43.2008 262.973 43.2044C263.614 43.071 265.016 43.6945 264.875 42.5954C265.243 42.7828 265.593 43.0134 265.964 43.2116C266.533 43.208 267.297 43.471 267.733 42.9701C269.103 41.7557 268.346 39.5287 269.456 38.1089C269.506 38.426 269.614 39.053 269.668 39.3665C269.221 41.2152 270.486 43.9359 272.789 43.2548C273.661 42.8296 275.225 43.7413 276.043 42.9377C276.18 42.79 276.45 42.4981 276.587 42.3503C277.11 39.3089 277.448 36.235 278.151 33.226C277.784 32.635 277.034 32.79 276.454 32.8116C275.942 33.5107 275.856 34.4044 275.603 35.208C274.778 34.6927 273.773 34.5305 272.821 34.5954C272.083 35.071 270.825 36.444 270.883 34.6963C269.758 34.8728 268.602 34.826 267.481 34.6602C267.448 34.9125 267.384 35.4206 267.351 35.6728L266.674 35.7305C265.355 34.1233 262.872 34.2674 261.193 35.244C260.432 35.6512 259.106 35.9215 260.176 37.4314C261.012 37.2801 261.856 37.0314 262.713 37.226C261.773 37.7774 260.937 38.4764 260.245 39.3125C259.69 38.3936 259.74 40.0116 259.484 40.3972C258.429 40.4801 257.239 40.9593 256.324 40.2566C255.521 38.9593 255.643 37.1828 256.432 35.9107C256.623 35.1792 257.495 35.6404 258.039 35.5143C258.728 35.5179 259.794 36.3575 260.057 35.3485C260.497 34.7359 260.648 34.0296 260.512 33.226C259.106 32.6134 257.38 32.5341 256.043 33.3413C255.539 33.9143 255.041 34.4909 254.501 35.0314C254.421 34.8945 254.259 34.6134 254.18 34.4728C254.011 34.1557 253.827 33.853 253.625 33.5611C249.953 33.4026 246.281 33.6332 242.616 33.4494C241.906 33.0963 242.54 32.3251 242.598 31.7701C246.011 31.5323 249.445 31.8891 252.865 31.6296C253.784 31.2296 252.645 30.253 252.493 29.6224C249.506 29.471 246.519 29.6008 243.539 29.5179C243.744 28.7323 244.13 27.9828 244.764 27.4566C246.908 27.2296 249.074 27.4746 251.232 27.3521C250.951 26.0801 249.614 25.0386 248.284 25.2116C243.892 25.8999 248.494 24.4296 247.593 23.1936C250.317 22.2422 252.349 19.6296 255.366 19.2692Z" fill="#F8990D"/>
<path d="M122.22 28.7212C121.146 28.5951 117.881 26.6023 121.798 27.3879C124.915 27.3987 128.036 27.3374 131.153 27.4059C131.863 27.7663 132.713 28.1663 132.746 29.078C133.348 32.3681 134.443 35.6438 134.335 39.0167C132.739 37.6474 132.166 35.4672 130.623 34.0798C129.16 33.1645 128.058 31.741 126.44 31.0564C124.894 30.5194 123.816 29.0852 122.22 28.7212Z" fill="#F8990D"/>
<path d="M272.429 38.5472C272.425 37.5814 272.955 36.8607 273.935 37.4301C274.476 38.0391 274.631 38.8283 274.641 39.621C274.76 41.4481 270.861 40.5904 272.429 38.5472Z" fill="#F8990D"/>
<path d="M263.124 41.1409C262.299 40.8021 261.488 39.8399 262.814 39.5156C262.965 40.0454 263.041 40.5967 263.124 41.1409Z" fill="#F8990D"/>
<path opacity="0.98" d="M5.81624 25.2393C9.15317 25.2465 12.4937 25.1384 15.8307 25.2573C19.009 25.942 19.6252 29.4015 20.2415 32.0573C21.2973 35.2609 22.5009 38.4609 23.1388 41.7798C23.2901 41.7834 23.5928 41.7906 23.7478 41.7942C24.7712 38.3997 25.5892 34.9474 26.8973 31.6465C27.4739 29.1528 28.1442 26.0033 31.0126 25.2465C34.4829 25.2249 37.9568 25.1636 41.4307 25.2501C41.4487 34.3672 41.4523 43.4843 41.427 52.6015C38.555 52.5978 35.6793 52.6807 32.8036 52.587C32.7496 47.1888 32.8397 41.787 32.7784 36.3852L31.7838 36.4429C29.9063 41.769 28.591 47.2789 26.5874 52.5654C24.4721 52.6051 22.3496 52.7096 20.2343 52.5762C18.8901 47.596 17.0739 42.7528 15.5856 37.8015C15.5027 37.1492 15.3189 36.187 14.4325 36.3744C14.364 41.7798 14.4613 47.1888 14.4 52.5979C11.5496 52.5618 8.68831 52.7528 5.84146 52.5546C5.74416 52.4573 5.54957 52.2699 5.45588 52.1726C5.52795 43.1997 5.00543 34.187 5.81624 25.2393Z" fill="#409F38"/>
<path opacity="0.98" d="M45.4198 25.235C48.2919 25.235 51.1675 25.1557 54.0432 25.2494C54.1225 30.6188 53.9531 35.9917 54.1153 41.3611C54.4901 42.1863 55.0811 41.4224 55.3549 40.9647C56.782 37.5521 58.4612 34.2584 60.1802 30.9899C61.2144 29.0584 61.9063 26.8422 63.5063 25.2854C66.836 25.1917 70.1693 25.1773 73.5027 25.2458C73.5207 34.3629 73.5243 43.4836 73.4991 52.6008C70.6234 52.5972 67.7477 52.68 64.8756 52.5863C64.8216 47.1881 64.9117 41.7863 64.8504 36.3845C63.2973 35.9845 63.218 37.9665 62.663 38.9035C60.9297 42.6764 59.3153 46.5071 57.427 50.2044C56.8576 51.0512 56.4684 52.2044 55.3874 52.5035C52.0684 52.6872 48.7387 52.644 45.4162 52.59C45.3946 43.4728 45.3946 34.3521 45.4198 25.235Z" fill="#409F38"/>
<path opacity="0.98" d="M77.8557 37.4879C86.3782 37.4555 94.9043 37.4915 103.43 37.4699C104.047 37.4267 104.62 37.6681 105.185 37.8915C104.375 40.2014 102.67 42.1005 100.429 43.1059C96.0214 44.8609 91.1061 43.5492 86.4971 43.9852C86.4178 46.8537 86.5656 49.7294 86.4611 52.5978C83.589 52.5978 80.7169 52.6807 77.8484 52.587C77.834 47.5564 77.8088 42.5222 77.8557 37.4879Z" fill="#409F38"/>
<path d="M76.7422 25.2403C83.9386 25.2259 91.135 25.1935 98.335 25.2547C99.7116 26.3935 102.122 26.4583 103.351 28.1808C105.409 30.1304 106.126 33.2259 105.906 35.9646C105.805 36.0619 105.603 36.2493 105.503 36.343C99.2936 36.3322 93.0521 36.7178 86.872 35.9826C83.8233 34.8331 80.6233 33.6187 78.6089 30.9412C77.8017 29.1214 76.735 27.2908 76.7422 25.2403Z" fill="#088BCE"/>
<path opacity="0.98" d="M170.212 26.8547C172.331 26.3502 174.421 27.0817 176.486 27.4997C176.735 27.7051 176.969 27.9249 177.189 28.1628C176.814 29.9141 176.846 31.7808 176.169 33.4601C173.463 32.1267 169.686 31.5466 167.25 33.5898C167.199 35.6799 169.52 36.7574 171.171 37.4781C173.949 38.5736 176.468 41.1285 176.216 44.3249C176.021 46.8835 174.864 49.7051 172.475 50.9988C168.068 53.3844 162.493 53.0997 157.877 51.4565C157.935 49.5321 158.345 47.6475 158.605 45.752C160.118 46.1412 161.542 46.8439 163.117 47.0132C165.181 47.3592 167.899 47.6042 169.3 45.6835C169.953 43.7015 167.318 43.2222 166.295 42.015C164.27 41.0385 162.327 39.7412 161.07 37.8421C159.297 34.2276 161.61 29.752 165.034 28.0979C166.641 27.3123 168.464 27.143 170.212 26.8547Z" fill="#0C457E"/>
<path opacity="0.98" d="M142.039 27.4278C144.306 27.3809 146.584 27.3197 148.854 27.417C146.209 34.5161 143.175 41.4746 140.396 48.5341C139.892 49.7845 139.524 51.1503 138.674 52.2134C136.421 52.253 134.169 52.3323 131.924 52.2242C130.429 47.053 129.312 41.7846 127.766 36.6314C127.773 34.6602 126.501 32.9954 126.439 31.0566C128.057 31.7413 129.16 33.1647 130.623 34.08C132.166 35.4674 132.739 37.6476 134.335 39.017C134.973 39.6909 135.012 40.7143 135.319 41.5647C136.065 41.7629 134.742 44.4332 136.144 43.9395C136.414 41.5395 137.632 39.3954 138.432 37.1503C139.679 33.9251 140.648 30.5918 142.039 27.4278Z" fill="#0C457E"/>
<path opacity="0.98" d="M151.434 27.4167C153.564 27.3843 155.704 27.323 157.841 27.4095C157.099 34.6528 155.47 41.7843 154.565 49.0095C154.31 50.0726 154.656 51.4239 153.798 52.2059C151.657 52.2636 149.517 52.3176 147.38 52.2311C148.699 43.9537 149.895 35.6582 151.434 27.4167Z" fill="#0C457E"/>
<path opacity="0.98" d="M186.775 27.4958C188.987 27.3732 191.225 27.2687 193.445 27.4381C194.519 28.3678 193.694 30.184 194.313 31.3264C196.036 38.2525 197.063 45.3444 198.861 52.2597C196.858 52.2309 194.85 52.3498 192.858 52.2093C192.039 51.3913 192.378 50.0687 192.003 49.0417C189.398 48.9949 186.793 49.0885 184.212 48.7174C183.232 49.6111 183.049 51.0165 182.587 52.2021C180.335 52.2597 178.086 52.3174 175.841 52.2273C176.872 48.4219 179.009 44.894 180.22 41.0922C181.78 37.8922 182.94 34.5336 184.454 31.3192C185.178 30.0291 185.128 28.0003 186.775 27.4958ZM188.886 35.0345C187.769 37.784 186.454 40.6201 185.928 43.5822C187.495 43.6651 189.059 43.6003 190.638 43.5894C190.659 40.6453 189.632 37.8237 189.146 34.9444L188.886 35.0345Z" fill="#0C457E"/>
<path opacity="0.98" d="M218.36 38.1847C218.732 37.0676 217.517 34.7613 219.095 34.5234C218.933 35.7595 218.595 36.9631 218.36 38.1847Z" fill="#0C457E"/>
<path opacity="0.98" d="M254.18 34.4727C254.259 34.6132 254.421 34.8943 254.5 35.0312C253.448 37.233 253.08 40.1159 254.861 42.0618C255.92 42.7105 257.102 42.9735 258.363 42.8907C257.199 44.1844 255.174 43.3808 254.039 42.4402C253.351 40.8222 252.709 39.1754 252.666 37.388C253.549 36.6528 253.844 35.5249 254.18 34.4727Z" fill="#0C457E"/>
<path opacity="0.98" d="M257.214 34.9551C258.162 35.0127 259.109 35.1425 260.057 35.3479C259.794 36.3569 258.727 35.5172 258.039 35.5136C257.834 35.3731 257.419 35.092 257.214 34.9551Z" fill="#0C457E"/>
<path opacity="0.98" d="M260.177 37.4315C259.106 35.9216 260.432 35.6513 261.193 35.2441C261.214 35.727 261.254 36.2099 261.308 36.6928C262.465 36.6171 264.569 35.6874 264.537 37.4892C263.917 37.4568 263.315 37.3342 262.714 37.2261C261.856 37.0315 261.013 37.2802 260.177 37.4315Z" fill="#0C457E"/>
<path opacity="0.98" d="M266.673 35.7295L267.351 35.6719C267.037 37.362 267.084 39.4124 266.295 40.7566C266.374 39.0773 266.644 37.4124 266.673 35.7295Z" fill="#0C457E"/>
<path opacity="0.98" d="M233.578 36.0078C233.73 36.0114 234.036 36.0186 234.187 36.0222C233.971 36.833 233.715 37.7411 234.349 38.4438C234.631 39.0745 237.203 40.0006 236.126 40.7393C235.2 40.2096 234.371 39.5321 233.528 38.8835C233.531 37.9249 233.549 36.9664 233.578 36.0078Z" fill="#0C457E"/>
<path opacity="0.98" d="M249.247 37.5358C249.46 36.9845 249.73 36.462 250.007 35.9395C250.08 37.2295 249.68 38.4728 249.438 39.7232L249.038 39.6404C249.06 38.934 249.157 38.2349 249.247 37.5358Z" fill="#0C457E"/>
<path opacity="0.98" d="M228.742 36.6345C229.286 36.5804 230.371 36.4759 230.915 36.4219C231.391 36.8075 231.625 37.694 230.706 37.4561C230.699 36.4039 229.42 36.8399 228.742 36.6345Z" fill="#0C457E"/>
<path opacity="0.98" d="M245.74 36.3942C246.475 36.1203 247.729 36.8266 246.969 37.5978C246.144 38.405 245.848 37.0212 245.74 36.3942Z" fill="#0C457E"/>
<path opacity="0.98" d="M273.935 37.4298C272.872 36.5577 274.504 36.5073 274.904 37.1956C274.922 37.8082 274.951 39.0262 274.966 39.6352L274.641 39.6208C274.63 38.828 274.476 38.0388 273.935 37.4298Z" fill="#0C457E"/>
<path opacity="0.98" d="M224.025 39.1898C224.115 38.4114 224.306 37.6367 224.836 37.0312C224.865 38.3141 224.44 39.5466 224.249 40.8006C224.173 40.2637 224.097 39.7267 224.025 39.1898Z" fill="#0C457E"/>
<path opacity="0.98" d="M269.668 39.3675C270.245 38.4738 268.85 36.6432 270.587 37.1297C270.173 38.9459 269.74 41.5117 271.697 42.5495C272.576 43.2522 273.56 42.3837 274.511 42.3621C275.027 42.5351 275.524 42.7549 276.043 42.9387C275.225 43.7423 273.661 42.8306 272.789 43.2558C270.486 43.9369 269.221 41.2162 269.668 39.3675Z" fill="#0C457E"/>
<path opacity="0.98" d="M220.667 37.3379C221.254 39.0748 221.063 40.9811 221.373 42.7757C221.539 42.837 221.874 42.9631 222.039 43.0244C221.643 43.3739 221.049 43.2118 220.573 43.2514C220.494 42.264 220.458 41.273 220.458 40.2856C220.526 39.3019 220.598 38.3181 220.667 37.3379Z" fill="#0C457E"/>
<path opacity="0.98" d="M217.344 43.2414C217.798 41.5729 217.42 39.7027 218.36 38.1855C218.778 39.5045 216.732 42.8666 219.272 42.7369C219.175 42.8306 218.984 43.018 218.89 43.1117L217.344 43.2414Z" fill="#0C457E"/>
<path opacity="0.98" d="M238.501 38.9376C238.566 38.5052 238.811 38.2277 239.233 38.1016C239.085 39.4205 238.743 40.725 238.97 42.0655C239.456 42.8223 240.303 42.9628 241.143 42.9917C239.921 43.9178 238.645 43.0926 238.364 41.8169C238.469 40.8619 238.451 39.8962 238.501 38.9376Z" fill="#0C457E"/>
<path opacity="0.98" d="M242.14 40.7633C242.266 40.0066 241.668 37.0985 242.609 38.6192C241.845 41.6895 245.193 43.6859 247.931 42.9111C246.025 43.8841 243.73 43.2462 242.292 41.7471C242.252 41.5021 242.176 41.0084 242.14 40.7633Z" fill="#0C457E"/>
<path opacity="0.98" d="M259.485 40.3982C259.741 40.0126 259.69 38.3946 260.245 39.3135C260.27 40.355 259.975 41.5153 260.66 42.3982C261.218 42.7045 261.813 42.9351 262.4 43.1946C261.319 43.7712 260.025 43.591 259.362 42.4919C259.416 41.7964 259.449 41.0973 259.485 40.3982Z" fill="#0C457E"/>
<path opacity="0.98" d="M226.255 42.3822C226.371 41.3048 226.446 40.1732 226.94 39.1895C226.994 39.8165 227.095 41.0669 227.145 41.6904C227.715 42.721 228.767 43.0705 229.895 42.9048C228.857 43.8453 227.354 42.757 226.255 42.3822Z" fill="#0C457E"/>
<path opacity="0.98" d="M244.619 39.291C245.556 39.3559 247.426 39.482 248.363 39.5433C247.217 39.7379 245.012 38.9415 245.358 40.7289C244.9 40.4081 244.789 39.7883 244.619 39.291Z" fill="#0C457E"/>
<path opacity="0.98" d="M262.814 39.5132C262.627 38.933 263.801 39.4159 264.155 39.297C264.349 40.1475 263.751 40.6988 263.124 41.1385C263.041 40.5943 262.965 40.043 262.814 39.5132Z" fill="#0C457E"/>
<path opacity="0.98" d="M248.731 41.1283C248.929 40.8544 249.135 40.5805 249.34 40.3066C249.311 41.0093 249.247 41.712 249.2 42.4148C249.643 42.613 250.093 42.7931 250.547 42.9841C249.297 43.6508 248.638 43.4814 248.565 42.476C248.616 42.0292 248.674 41.5787 248.731 41.1283Z" fill="#0C457E"/>
<path opacity="0.98" d="M265.97 41.3809C266.226 42.2349 266.875 42.761 267.733 42.9701C267.297 43.471 266.533 43.2079 265.963 43.2115C265.949 42.5989 265.949 41.9899 265.97 41.3809Z" fill="#0C457E"/>
<path opacity="0.98" d="M232.911 41.8027L233.081 42.019C233.838 43.291 235.542 42.8658 236.767 42.9235C234.962 43.846 232.659 42.9811 230.72 43.1649C230.663 42.9883 230.54 42.6352 230.479 42.4622C231.304 42.3253 233.12 43.7631 232.911 41.8027Z" fill="#0C457E"/>
<path opacity="0.98" d="M262.973 43.2037C263.192 42.2848 264.155 42.0758 264.875 42.5947C265.016 43.6938 263.614 43.0703 262.973 43.2037Z" fill="#0C457E"/>
<path opacity="0.98" d="M225.575 42.9484C224.966 43.7195 223.247 43.5574 223.957 42.5195C224.497 42.6601 225.117 42.5628 225.575 42.9484Z" fill="#0C457E"/>
<path d="M219.553 32.849C220.461 32.7445 221.377 32.7301 222.299 32.795C222.415 34.5139 222.332 36.2364 222.44 37.9589C223.82 36.5643 223.69 34.467 224.562 32.8274C225.633 32.7121 226.645 32.8058 227.744 32.8058C227.589 34.8814 226.959 36.8995 227.049 38.9931C228.126 38.1859 229.319 37.4941 230.706 37.4544C231.625 37.6922 231.391 36.8058 230.915 36.4202C230.371 36.4742 229.287 36.5787 228.742 36.6328C228.58 36.6472 228.256 36.6724 228.094 36.6832C227.784 35.3103 229.099 33.876 230.631 34.5895C232.119 33.8652 232.804 35.1877 233.578 36.0058C233.55 36.9643 233.532 37.9229 233.528 38.8814C233.323 39.8544 233.081 40.8202 232.912 41.8004C233.121 43.7607 231.305 42.3229 230.479 42.4598C230.335 42.5679 230.043 42.7913 229.896 42.9031C228.768 43.0688 227.715 42.7193 227.146 41.6886C227.096 41.0652 226.995 39.8148 226.941 39.1877C226.447 40.1715 226.371 41.3031 226.256 42.3805C226.083 42.5211 225.744 42.8022 225.575 42.9463C225.117 42.5607 224.497 42.658 223.957 42.5175C224.069 41.9445 224.159 41.3715 224.249 40.7986C224.44 39.5445 224.865 38.3121 224.836 37.0292C224.306 37.6346 224.115 38.4094 224.025 39.1877C223.514 40.5283 223.272 42.1139 222.04 43.022C221.874 42.9607 221.539 42.8346 221.373 42.7733C221.063 40.9787 221.254 39.0724 220.667 37.3355C220.598 38.3157 220.526 39.2995 220.458 40.2832C220.18 41.1445 220.04 42.1463 219.272 42.7337C216.732 42.8634 218.778 39.5013 218.36 38.1823C218.595 36.9607 218.933 35.7571 219.096 34.5211C219.236 33.9589 219.384 33.4004 219.553 32.849ZM229.178 39.649C229.135 40.1895 229.168 41.0868 229.91 41.0616C230.649 41.0868 230.678 40.1895 230.642 39.649C230.151 39.6238 229.665 39.6238 229.178 39.649Z" fill="#F5EEEC"/>
<path d="M256.043 33.3402C257.38 32.533 259.107 32.6122 260.512 33.2249C260.649 34.0285 260.498 34.7348 260.058 35.3474C259.11 35.142 258.162 35.0122 257.215 34.9546C257.42 35.0915 257.834 35.3726 258.04 35.5131C257.496 35.6393 256.624 35.178 256.433 35.9095C255.643 37.1816 255.521 38.9582 256.325 40.2555C257.24 40.9582 258.429 40.4789 259.485 40.396C259.449 41.0951 259.416 41.7942 259.362 42.4897C259.016 42.6014 258.685 42.7348 258.364 42.8897C257.103 42.9726 255.921 42.7095 254.861 42.0609C253.081 40.1149 253.449 37.2321 254.501 35.0303C255.042 34.4897 255.539 33.9131 256.043 33.3402Z" fill="#F5EEEC"/>
<path d="M276.454 32.8116C277.035 32.7899 277.784 32.635 278.152 33.226C277.449 36.235 277.11 39.3089 276.588 42.3503C276.451 42.4981 276.181 42.7899 276.044 42.9377C275.525 42.7539 275.027 42.5341 274.512 42.3611C273.561 42.3827 272.577 43.2512 271.698 42.5485C269.741 41.5107 270.173 38.9449 270.588 37.1287C268.851 36.6422 270.245 38.4728 269.669 39.3665C269.615 39.053 269.507 38.426 269.456 38.1089C268.346 39.5287 269.103 41.7557 267.734 42.9701C266.876 42.7611 266.227 42.235 265.971 41.3809C265.95 41.9899 265.95 42.599 265.964 43.2116C265.593 43.0134 265.244 42.7827 264.876 42.5954C264.155 42.0764 263.193 42.2854 262.973 43.2044C262.829 43.2008 262.544 43.1972 262.4 43.1936C261.813 42.9341 261.218 42.7035 260.66 42.3972C259.975 41.5143 260.271 40.3539 260.245 39.3125C260.937 38.4764 261.773 37.7773 262.714 37.226C263.316 37.3341 263.917 37.4566 264.537 37.489C264.57 35.6872 262.465 36.617 261.308 36.6926C261.254 36.2098 261.215 35.7269 261.193 35.244C262.872 34.2674 265.355 34.1233 266.674 35.7305C266.645 37.4134 266.375 39.0782 266.296 40.7575C267.085 39.4134 267.038 37.3629 267.352 35.6728C267.384 35.4206 267.449 34.9125 267.481 34.6602C268.602 34.826 269.759 34.8728 270.883 34.6963C270.826 36.444 272.083 35.071 272.822 34.5953C273.773 34.5305 274.779 34.6926 275.604 35.208C275.856 34.4044 275.943 33.5107 276.454 32.8116ZM273.935 37.4314C272.955 36.862 272.426 37.5827 272.429 38.5485C270.862 40.5917 274.761 41.4494 274.642 39.6224L274.966 39.6368C274.952 39.0278 274.923 37.8098 274.905 37.1972C274.505 36.5089 272.872 36.5593 273.935 37.4314ZM262.815 39.5143C261.489 39.8386 262.299 40.8008 263.125 41.1395C263.752 40.6999 264.35 40.1485 264.155 39.2981C263.802 39.417 262.627 38.9341 262.815 39.5143Z" fill="#F5EEEC"/>
<path d="M240.068 33.5371C242.634 32.5029 243.621 36.2146 241.82 37.4831C241.589 38.2867 240.086 41.166 242.14 40.7624C242.176 41.0074 242.252 41.5011 242.292 41.7462C242.162 42.3624 241.629 42.6759 241.142 42.9894C240.303 42.9606 239.456 42.82 238.969 42.0633C238.742 40.7227 239.085 39.4182 239.232 38.0993C239.485 36.575 239.722 35.0435 240.068 33.5371Z" fill="#F5EEEC"/>
<path d="M234.187 36.0219C234.778 35.5319 235.272 34.7931 236.058 34.6237C237.362 34.6814 240.205 33.6075 238.886 36.3138C238.393 37.3264 235.694 35.9679 236.512 37.3769C237.157 37.9174 237.856 38.3895 238.501 38.9373C238.45 39.8958 238.468 40.8616 238.364 41.8165C237.867 42.2382 237.312 42.5769 236.768 42.9229C235.542 42.8652 233.838 43.2904 233.081 42.0183C233.272 41.6111 233.463 41.2003 233.65 40.7895C234.483 40.822 235.337 41.1967 236.126 40.7391C237.204 40.0003 234.631 39.0742 234.35 38.4436C233.715 37.7409 233.971 36.8328 234.187 36.0219Z" fill="#F5EEEC"/>
<path d="M244.014 35.3766C245.12 34.3531 246.915 34.2559 248.187 35.0559C248.919 35.654 248.958 36.6919 249.246 37.5351C249.156 38.2342 249.059 38.9333 249.037 39.6396C248.868 39.6144 248.533 39.5676 248.364 39.5423C247.427 39.4811 245.556 39.355 244.619 39.2901C244.789 39.7874 244.901 40.4072 245.358 40.7279C246.374 41.5243 247.574 40.6919 248.63 40.4396C248.655 40.6126 248.706 40.9586 248.731 41.1279C248.673 41.5784 248.616 42.0288 248.565 42.4757C248.407 42.5874 248.09 42.8036 247.931 42.9117C245.192 43.6865 241.845 41.6901 242.609 38.6198C243.001 37.5099 243.319 36.3459 244.014 35.3766ZM245.74 36.3928C245.848 37.0198 246.144 38.4036 246.969 37.5964C247.729 36.8252 246.475 36.1189 245.74 36.3928Z" fill="#F5EEEC"/>
<path d="M250.007 35.9398C250.429 35.1686 250.461 33.5722 252.04 34.938C252.786 35.1974 253.456 34.5848 254.18 34.4731C253.845 35.5254 253.55 36.6533 252.667 37.3884C250.919 38.7001 252.465 42.1128 250.548 42.9848C250.094 42.7938 249.643 42.6137 249.2 42.4155C249.247 41.7128 249.312 41.0101 249.341 40.3074C249.366 40.1596 249.413 39.8677 249.438 39.7236C249.679 38.4731 250.079 37.2299 250.007 35.9398Z" fill="#F5EEEC"/>
</svg>
