<svg width="40" height="40" viewBox="0 0 40 40" fill="none" xmlns="http://www.w3.org/2000/svg">
<circle cx="20" cy="20" r="20" fill="#EC8B33"/>
<path d="M25.6562 12H14.3438C13.0515 12 12 13.0515 12 14.3438V25.6562C12 26.9485 13.0515 28 14.3438 28H25.6562C26.9485 28 28 26.9485 28 25.6562V14.3438C28 13.0515 26.9485 12 25.6562 12ZM20.0312 24.1875C17.705 24.1875 15.8125 22.295 15.8125 19.9688C15.8125 17.6425 17.705 15.75 20.0312 15.75C22.3575 15.75 24.25 17.6425 24.25 19.9688C24.25 22.295 22.3575 24.1875 20.0312 24.1875ZM24.7188 16.6875C23.9434 16.6875 23.3125 16.0566 23.3125 15.2812C23.3125 14.5059 23.9434 13.875 24.7188 13.875C25.4941 13.875 26.125 14.5059 26.125 15.2812C26.125 16.0566 25.4941 16.6875 24.7188 16.6875Z" fill="white"/>
<path d="M24.7188 14.8125C24.4601 14.8125 24.25 15.0226 24.25 15.2812C24.25 15.5399 24.4601 15.75 24.7188 15.75C24.9774 15.75 25.1875 15.5399 25.1875 15.2812C25.1875 15.0226 24.9774 14.8125 24.7188 14.8125Z" fill="white"/>
<path d="M20.0312 16.6875C18.2222 16.6875 16.75 18.1597 16.75 19.9688C16.75 21.7778 18.2222 23.25 20.0312 23.25C21.8403 23.25 23.3125 21.7778 23.3125 19.9688C23.3125 18.1597 21.8403 16.6875 20.0312 16.6875Z" fill="white"/>
</svg>
