<svg width="940" height="297" viewBox="0 0 940 297" fill="none" xmlns="http://www.w3.org/2000/svg">
<path d="M92.08 89.76V104H90.2V91.4H84.94L84.66 99.42C84.6067 100.913 84.3 102.1 83.74 102.98C83.1933 103.86 82.4 104.3 81.36 104.3C80.9333 104.3 80.48 104.207 80 104.02V102.42C80.2133 102.553 80.5533 102.62 81.02 102.62C81.4067 102.62 81.7133 102.533 81.94 102.36C82.18 102.173 82.3867 101.76 82.56 101.12C82.7467 100.48 82.8533 99.5867 82.88 98.44L83.14 89.76H92.08ZM103.791 100.74C103.271 103.14 101.771 104.34 99.2914 104.34C97.7714 104.34 96.5781 103.867 95.7114 102.92C94.8581 101.973 94.4314 100.66 94.4314 98.98C94.4314 97.3133 94.8714 95.9667 95.7514 94.94C96.6447 93.9 97.8047 93.38 99.2314 93.38C100.818 93.38 101.991 93.92 102.751 95C103.525 96.0667 103.911 97.42 103.911 99.06V99.3H96.1514L96.1314 99.42C96.1314 100.513 96.4181 101.373 96.9914 102C97.5647 102.627 98.3514 102.94 99.3514 102.94C100.098 102.94 100.685 102.767 101.111 102.42C101.551 102.073 101.891 101.513 102.131 100.74H103.791ZM102.151 97.92C102.071 96.9333 101.771 96.1667 101.251 95.62C100.731 95.06 100.045 94.78 99.1914 94.78C98.3647 94.78 97.6781 95.06 97.1314 95.62C96.5847 96.18 96.2581 96.9467 96.1514 97.92H102.151ZM113.262 95.18H109.562V104H107.862V95.18H104.162V93.68H113.262V95.18ZM121.146 92.24C121.6 91.5333 122.146 91.0133 122.786 90.68C123.426 90.3333 124.24 90.1267 125.226 90.06C126.333 89.98 127.006 89.8733 127.246 89.74C127.406 89.66 127.526 89.5533 127.606 89.42H129.306C129.266 89.6333 129.206 89.8267 129.126 90C129.06 90.1733 128.98 90.3267 128.886 90.46C128.806 90.58 128.686 90.6933 128.526 90.8C128.38 90.9067 128.253 91 128.146 91.08C128.04 91.1467 127.88 91.2133 127.666 91.28C127.466 91.3333 127.306 91.38 127.186 91.42C127.066 91.4467 126.88 91.4733 126.626 91.5C126.386 91.5267 126.213 91.5467 126.106 91.56C126 91.5733 125.806 91.5867 125.526 91.6C125.246 91.6133 125.066 91.6267 124.986 91.64C123.893 91.72 123.04 92.1467 122.426 92.92C121.813 93.68 121.426 94.7 121.266 95.98H121.326C121.62 95.2733 122.086 94.7067 122.726 94.28C123.366 93.8533 124.106 93.64 124.946 93.64C126.413 93.64 127.56 94.1067 128.386 95.04C129.226 95.96 129.646 97.2533 129.646 98.92C129.646 100.64 129.22 101.973 128.366 102.92C127.526 103.867 126.34 104.34 124.806 104.34C123.553 104.34 122.493 103.973 121.626 103.24C120.76 102.493 120.226 101.427 120.026 100.04C119.946 99.48 119.906 98.8533 119.906 98.16C119.906 95.48 120.32 93.5067 121.146 92.24ZM121.646 98.98C121.646 100.153 121.926 101.1 122.486 101.82C123.06 102.54 123.84 102.9 124.826 102.9C125.786 102.9 126.54 102.553 127.086 101.86C127.633 101.167 127.906 100.2 127.906 98.96C127.906 97.7467 127.626 96.7933 127.066 96.1C126.506 95.4067 125.746 95.06 124.786 95.06C123.826 95.06 123.06 95.4133 122.486 96.12C121.926 96.8133 121.646 97.7667 121.646 98.98ZM140.491 100.74C139.971 103.14 138.471 104.34 135.991 104.34C134.471 104.34 133.277 103.867 132.411 102.92C131.557 101.973 131.131 100.66 131.131 98.98C131.131 97.3133 131.571 95.9667 132.451 94.94C133.344 93.9 134.504 93.38 135.931 93.38C137.517 93.38 138.691 93.92 139.451 95C140.224 96.0667 140.611 97.42 140.611 99.06V99.3H132.851L132.831 99.42C132.831 100.513 133.117 101.373 133.691 102C134.264 102.627 135.051 102.94 136.051 102.94C136.797 102.94 137.384 102.767 137.811 102.42C138.251 102.073 138.591 101.513 138.831 100.74H140.491ZM138.851 97.92C138.771 96.9333 138.471 96.1667 137.951 95.62C137.431 95.06 136.744 94.78 135.891 94.78C135.064 94.78 134.377 95.06 133.831 95.62C133.284 96.18 132.957 96.9467 132.851 97.92H138.851ZM151.293 100.24C151.146 101.48 150.673 102.467 149.873 103.2C149.086 103.933 148.059 104.3 146.793 104.3C145.233 104.3 144.026 103.82 143.173 102.86C142.319 101.887 141.893 100.593 141.893 98.98C141.893 97.26 142.339 95.9 143.233 94.9C144.126 93.8867 145.333 93.38 146.853 93.38C148.119 93.38 149.133 93.7 149.893 94.34C150.653 94.9667 151.099 95.8667 151.233 97.04H149.473C149.166 95.5467 148.299 94.8 146.873 94.8C145.886 94.8 145.106 95.1667 144.533 95.9C143.959 96.62 143.673 97.6 143.673 98.84C143.673 100.093 143.946 101.08 144.493 101.8C145.039 102.52 145.793 102.88 146.753 102.88C147.526 102.88 148.153 102.653 148.633 102.2C149.126 101.747 149.439 101.093 149.573 100.24H151.293ZM154.855 104H153.155V93.68H161.715V104H160.015V95.18H154.855V104ZM173.088 100.74C172.568 103.14 171.068 104.34 168.588 104.34C167.068 104.34 165.875 103.867 165.008 102.92C164.155 101.973 163.728 100.66 163.728 98.98C163.728 97.3133 164.168 95.9667 165.048 94.94C165.942 93.9 167.102 93.38 168.528 93.38C170.115 93.38 171.288 93.92 172.048 95C172.822 96.0667 173.208 97.42 173.208 99.06V99.3H165.448L165.428 99.42C165.428 100.513 165.715 101.373 166.288 102C166.862 102.627 167.648 102.94 168.648 102.94C169.395 102.94 169.982 102.767 170.408 102.42C170.848 102.073 171.188 101.513 171.428 100.74H173.088ZM171.448 97.92C171.368 96.9333 171.068 96.1667 170.548 95.62C170.028 95.06 169.342 94.78 168.488 94.78C167.662 94.78 166.975 95.06 166.428 95.62C165.882 96.18 165.555 96.9467 165.448 97.92H171.448ZM176.61 93.68V95.14C177.357 93.9533 178.517 93.36 180.09 93.36C181.53 93.36 182.67 93.8467 183.51 94.82C184.364 95.7933 184.79 97.1133 184.79 98.78C184.79 100.447 184.37 101.78 183.53 102.78C182.704 103.767 181.584 104.26 180.17 104.26C178.69 104.26 177.537 103.693 176.71 102.56V107.98H175.01V93.68H176.61ZM179.83 94.78C178.844 94.78 178.064 95.14 177.49 95.86C176.93 96.5667 176.65 97.5467 176.65 98.8C176.65 100.053 176.937 101.04 177.51 101.76C178.097 102.467 178.89 102.82 179.89 102.82C180.864 102.82 181.63 102.46 182.19 101.74C182.75 101.02 183.03 100.04 183.03 98.8C183.03 97.5467 182.744 96.5667 182.17 95.86C181.61 95.14 180.83 94.78 179.83 94.78ZM195.686 100.74C195.166 103.14 193.666 104.34 191.186 104.34C189.666 104.34 188.473 103.867 187.606 102.92C186.753 101.973 186.326 100.66 186.326 98.98C186.326 97.3133 186.766 95.9667 187.646 94.94C188.539 93.9 189.699 93.38 191.126 93.38C192.713 93.38 193.886 93.92 194.646 95C195.419 96.0667 195.806 97.42 195.806 99.06V99.3H188.046L188.026 99.42C188.026 100.513 188.313 101.373 188.886 102C189.459 102.627 190.246 102.94 191.246 102.94C191.993 102.94 192.579 102.767 193.006 102.42C193.446 102.073 193.786 101.513 194.026 100.74H195.686ZM194.046 97.92C193.966 96.9333 193.666 96.1667 193.146 95.62C192.626 95.06 191.939 94.78 191.086 94.78C190.259 94.78 189.573 95.06 189.026 95.62C188.479 96.18 188.153 96.9467 188.046 97.92H194.046ZM198.568 92.24C199.021 91.5333 199.568 91.0133 200.208 90.68C200.848 90.3333 201.661 90.1267 202.648 90.06C203.755 89.98 204.428 89.8733 204.668 89.74C204.828 89.66 204.948 89.5533 205.028 89.42H206.728C206.688 89.6333 206.628 89.8267 206.548 90C206.481 90.1733 206.401 90.3267 206.308 90.46C206.228 90.58 206.108 90.6933 205.948 90.8C205.801 90.9067 205.675 91 205.568 91.08C205.461 91.1467 205.301 91.2133 205.088 91.28C204.888 91.3333 204.728 91.38 204.608 91.42C204.488 91.4467 204.301 91.4733 204.048 91.5C203.808 91.5267 203.635 91.5467 203.528 91.56C203.421 91.5733 203.228 91.5867 202.948 91.6C202.668 91.6133 202.488 91.6267 202.408 91.64C201.315 91.72 200.461 92.1467 199.848 92.92C199.235 93.68 198.848 94.7 198.688 95.98H198.748C199.041 95.2733 199.508 94.7067 200.148 94.28C200.788 93.8533 201.528 93.64 202.368 93.64C203.835 93.64 204.981 94.1067 205.808 95.04C206.648 95.96 207.068 97.2533 207.068 98.92C207.068 100.64 206.641 101.973 205.788 102.92C204.948 103.867 203.761 104.34 202.228 104.34C200.975 104.34 199.915 103.973 199.048 103.24C198.181 102.493 197.648 101.427 197.448 100.04C197.368 99.48 197.328 98.8533 197.328 98.16C197.328 95.48 197.741 93.5067 198.568 92.24ZM199.068 98.98C199.068 100.153 199.348 101.1 199.908 101.82C200.481 102.54 201.261 102.9 202.248 102.9C203.208 102.9 203.961 102.553 204.508 101.86C205.055 101.167 205.328 100.2 205.328 98.96C205.328 97.7467 205.048 96.7933 204.488 96.1C203.928 95.4067 203.168 95.06 202.208 95.06C201.248 95.06 200.481 95.4133 199.908 96.12C199.348 96.8133 199.068 97.7667 199.068 98.98ZM209.913 94.86C210.819 93.8733 212.053 93.38 213.613 93.38C215.173 93.38 216.386 93.8533 217.253 94.8C218.119 95.7467 218.553 97.0733 218.553 98.78C218.553 100.527 218.119 101.887 217.253 102.86C216.386 103.833 215.166 104.32 213.593 104.32C212.019 104.32 210.786 103.84 209.893 102.88C208.999 101.92 208.553 100.587 208.553 98.88C208.553 97.1867 209.006 95.8467 209.913 94.86ZM215.933 95.9C215.359 95.1667 214.573 94.8 213.573 94.8C212.573 94.8 211.779 95.1667 211.193 95.9C210.606 96.6333 210.312 97.6133 210.312 98.84C210.312 100.107 210.599 101.1 211.173 101.82C211.759 102.527 212.573 102.88 213.613 102.88C214.613 102.88 215.393 102.52 215.953 101.8C216.526 101.08 216.813 100.087 216.813 98.82C216.813 97.5933 216.519 96.62 215.933 95.9ZM227.877 89.76C227.744 90.6 227.417 91.2733 226.897 91.78C226.39 92.2733 225.717 92.52 224.877 92.52C224.064 92.52 223.377 92.2667 222.817 91.76C222.27 91.24 221.944 90.5733 221.837 89.76H222.857C223.164 90.8 223.83 91.32 224.857 91.32C225.844 91.32 226.51 90.8 226.857 89.76H227.877ZM222.757 104H220.577V93.68H222.277V102.1H222.317L226.957 93.68H229.137V104H227.437V95.58H227.397L222.757 104ZM233.39 104H231.69V93.68H233.39V97.78H238.55V93.68H240.25V104H238.55V99.28H233.39V104ZM243.623 94.86C244.53 93.8733 245.763 93.38 247.323 93.38C248.883 93.38 250.097 93.8533 250.963 94.8C251.83 95.7467 252.263 97.0733 252.263 98.78C252.263 100.527 251.83 101.887 250.963 102.86C250.097 103.833 248.877 104.32 247.303 104.32C245.73 104.32 244.497 103.84 243.603 102.88C242.71 101.92 242.263 100.587 242.263 98.88C242.263 97.1867 242.717 95.8467 243.623 94.86ZM249.643 95.9C249.07 95.1667 248.283 94.8 247.283 94.8C246.283 94.8 245.49 95.1667 244.903 95.9C244.317 96.6333 244.023 97.6133 244.023 98.84C244.023 100.107 244.31 101.1 244.883 101.82C245.47 102.527 246.283 102.88 247.323 102.88C248.323 102.88 249.103 102.52 249.663 101.8C250.237 101.08 250.523 100.087 250.523 98.82C250.523 97.5933 250.23 96.62 249.643 95.9ZM261.588 89.76C261.454 90.6 261.128 91.2733 260.608 91.78C260.101 92.2733 259.428 92.52 258.588 92.52C257.774 92.52 257.088 92.2667 256.528 91.76C255.981 91.24 255.654 90.5733 255.548 89.76H256.568C256.874 90.8 257.541 91.32 258.568 91.32C259.554 91.32 260.221 90.8 260.568 89.76H261.588ZM256.468 104H254.288V93.68H255.988V102.1H256.028L260.668 93.68H262.848V104H261.148V95.58H261.108L256.468 104ZM272.568 93.68V95.14C273.314 93.9533 274.474 93.36 276.048 93.36C277.488 93.36 278.628 93.8467 279.468 94.82C280.321 95.7933 280.748 97.1133 280.748 98.78C280.748 100.447 280.328 101.78 279.488 102.78C278.661 103.767 277.541 104.26 276.128 104.26C274.648 104.26 273.494 103.693 272.668 102.56V107.98H270.968V93.68H272.568ZM275.788 94.78C274.801 94.78 274.021 95.14 273.448 95.86C272.888 96.5667 272.608 97.5467 272.608 98.8C272.608 100.053 272.894 101.04 273.468 101.76C274.054 102.467 274.848 102.82 275.848 102.82C276.821 102.82 277.588 102.46 278.148 101.74C278.708 101.02 278.988 100.04 278.988 98.8C278.988 97.5467 278.701 96.5667 278.128 95.86C277.568 95.14 276.788 94.78 275.788 94.78ZM291.963 102.64V103.96C291.616 104.093 291.23 104.16 290.803 104.16C289.83 104.16 289.33 103.653 289.303 102.64C288.33 103.733 287.083 104.28 285.563 104.28C284.55 104.28 283.743 104.02 283.143 103.5C282.556 102.98 282.263 102.267 282.263 101.36C282.263 99.52 283.483 98.4467 285.923 98.14C286.083 98.1133 286.316 98.0867 286.623 98.06C287.783 97.9267 288.496 97.7733 288.763 97.6C289.07 97.3867 289.223 97.02 289.223 96.5C289.223 95.3667 288.443 94.8 286.883 94.8C286.083 94.8 285.476 94.9667 285.063 95.3C284.65 95.62 284.403 96.1533 284.323 96.9H282.663C282.69 95.7933 283.083 94.9333 283.843 94.32C284.603 93.7067 285.65 93.4 286.983 93.4C288.436 93.4 289.516 93.7333 290.223 94.4C290.45 94.6133 290.616 94.8933 290.723 95.24C290.83 95.5867 290.89 95.8733 290.903 96.1C290.916 96.3133 290.923 96.64 290.923 97.08C290.923 97.5867 290.91 98.3533 290.883 99.38C290.856 100.407 290.843 101.173 290.843 101.68C290.843 102.053 290.89 102.32 290.983 102.48C291.09 102.627 291.276 102.7 291.543 102.7C291.65 102.7 291.79 102.68 291.963 102.64ZM289.223 98.64C289.103 98.7333 288.976 98.8133 288.843 98.88C288.71 98.9467 288.536 99 288.323 99.04C288.123 99.08 287.983 99.1133 287.903 99.14C287.836 99.1533 287.663 99.18 287.383 99.22C287.103 99.2467 286.956 99.26 286.943 99.26C286.53 99.3133 286.256 99.3533 286.123 99.38C286.003 99.3933 285.763 99.4467 285.403 99.54C285.056 99.6333 284.81 99.74 284.663 99.86C284.516 99.98 284.37 100.16 284.223 100.4C284.09 100.627 284.023 100.9 284.023 101.22C284.023 101.753 284.203 102.173 284.563 102.48C284.936 102.787 285.443 102.94 286.083 102.94C286.896 102.94 287.623 102.7 288.263 102.22C288.903 101.74 289.223 101.173 289.223 100.52V98.64ZM294.525 92.24C294.978 91.5333 295.525 91.0133 296.165 90.68C296.805 90.3333 297.618 90.1267 298.605 90.06C299.712 89.98 300.385 89.8733 300.625 89.74C300.785 89.66 300.905 89.5533 300.985 89.42H302.685C302.645 89.6333 302.585 89.8267 302.505 90C302.438 90.1733 302.358 90.3267 302.265 90.46C302.185 90.58 302.065 90.6933 301.905 90.8C301.758 90.9067 301.632 91 301.525 91.08C301.418 91.1467 301.258 91.2133 301.045 91.28C300.845 91.3333 300.685 91.38 300.565 91.42C300.445 91.4467 300.258 91.4733 300.005 91.5C299.765 91.5267 299.592 91.5467 299.485 91.56C299.378 91.5733 299.185 91.5867 298.905 91.6C298.625 91.6133 298.445 91.6267 298.365 91.64C297.272 91.72 296.418 92.1467 295.805 92.92C295.192 93.68 294.805 94.7 294.645 95.98H294.705C294.998 95.2733 295.465 94.7067 296.105 94.28C296.745 93.8533 297.485 93.64 298.325 93.64C299.792 93.64 300.938 94.1067 301.765 95.04C302.605 95.96 303.025 97.2533 303.025 98.92C303.025 100.64 302.598 101.973 301.745 102.92C300.905 103.867 299.718 104.34 298.185 104.34C296.932 104.34 295.872 103.973 295.005 103.24C294.138 102.493 293.605 101.427 293.405 100.04C293.325 99.48 293.285 98.8533 293.285 98.16C293.285 95.48 293.698 93.5067 294.525 92.24ZM295.025 98.98C295.025 100.153 295.305 101.1 295.865 101.82C296.438 102.54 297.218 102.9 298.205 102.9C299.165 102.9 299.918 102.553 300.465 101.86C301.012 101.167 301.285 100.2 301.285 98.96C301.285 97.7467 301.005 96.7933 300.445 96.1C299.885 95.4067 299.125 95.06 298.165 95.06C297.205 95.06 296.438 95.4133 295.865 96.12C295.305 96.8133 295.025 97.7667 295.025 98.98ZM305.87 94.86C306.776 93.8733 308.01 93.38 309.57 93.38C311.13 93.38 312.343 93.8533 313.21 94.8C314.076 95.7467 314.51 97.0733 314.51 98.78C314.51 100.527 314.076 101.887 313.21 102.86C312.343 103.833 311.123 104.32 309.55 104.32C307.976 104.32 306.743 103.84 305.85 102.88C304.956 101.92 304.51 100.587 304.51 98.88C304.51 97.1867 304.963 95.8467 305.87 94.86ZM311.89 95.9C311.316 95.1667 310.53 94.8 309.53 94.8C308.53 94.8 307.736 95.1667 307.15 95.9C306.563 96.6333 306.27 97.6133 306.27 98.84C306.27 100.107 306.556 101.1 307.13 101.82C307.716 102.527 308.53 102.88 309.57 102.88C310.57 102.88 311.35 102.52 311.91 101.8C312.483 101.08 312.77 100.087 312.77 98.82C312.77 97.5933 312.476 96.62 311.89 95.9ZM324.082 95.18H320.382V104H318.682V95.18H314.982V93.68H324.082V95.18ZM335.28 93.68H336.98V104H335.28V93.68ZM332.72 98.48C333.333 99.04 333.64 99.8067 333.64 100.78C333.64 101.753 333.34 102.533 332.74 103.12C332.153 103.707 331.36 104 330.36 104H325.38V93.68H327.08V97.62H330.28C331.293 97.62 332.107 97.9067 332.72 98.48ZM329.74 99.08H327.08V102.5H329.74C330.433 102.5 330.96 102.353 331.32 102.06C331.693 101.753 331.88 101.327 331.88 100.78C331.88 99.6467 331.167 99.08 329.74 99.08Z" fill="#010101"/>
<path d="M92.46 284H90.76V275.86H90.7L87.64 284H86.08L83.02 275.86H82.96V284H81.26V273.68H83.7L86.84 282.04H86.88L90.02 273.68H92.46V284ZM103.431 282.46V284H94.1914C94.2314 283.213 94.3514 282.527 94.5514 281.94C94.7514 281.353 95.0581 280.827 95.4714 280.36C95.8981 279.88 96.3114 279.487 96.7114 279.18C97.1114 278.873 97.6781 278.493 98.4114 278.04C99.5581 277.32 100.311 276.78 100.671 276.42C101.418 275.687 101.791 274.873 101.791 273.98C101.791 273.193 101.538 272.553 101.031 272.06C100.525 271.553 99.8647 271.3 99.0514 271.3C98.0781 271.3 97.3781 271.64 96.9514 272.32C96.5381 272.987 96.3181 273.833 96.2914 274.86H94.5714V274.48C94.5714 273.08 94.9847 271.953 95.8114 271.1C96.6514 270.247 97.7581 269.82 99.1314 269.82C100.478 269.82 101.551 270.193 102.351 270.94C103.151 271.687 103.551 272.687 103.551 273.94C103.551 274.473 103.458 274.98 103.271 275.46C103.098 275.927 102.898 276.32 102.671 276.64C102.458 276.96 102.125 277.3 101.671 277.66C101.231 278.02 100.865 278.3 100.571 278.5C100.278 278.687 99.8581 278.947 99.3114 279.28C98.2181 279.933 97.4914 280.44 97.1314 280.8C96.6247 281.307 96.2981 281.86 96.1514 282.46H103.431ZM117.951 269.42C120.111 269.42 121.791 270.1 122.991 271.46C124.191 272.807 124.791 274.573 124.791 276.76C124.791 278.96 124.198 280.773 123.011 282.2C121.824 283.627 120.144 284.34 117.971 284.34C116.864 284.34 115.871 284.14 114.991 283.74C114.111 283.34 113.391 282.787 112.831 282.08C112.284 281.373 111.864 280.567 111.571 279.66C111.291 278.753 111.151 277.773 111.151 276.72C111.151 274.493 111.764 272.72 112.991 271.4C114.231 270.08 115.884 269.42 117.951 269.42ZM117.951 271.06C116.364 271.06 115.144 271.62 114.291 272.74C113.451 273.847 113.031 275.22 113.031 276.86C113.031 278.647 113.478 280.073 114.371 281.14C115.278 282.193 116.484 282.72 117.991 282.72C119.484 282.72 120.678 282.187 121.571 281.12C122.464 280.053 122.911 278.633 122.911 276.86C122.911 275.1 122.458 273.693 121.551 272.64C120.658 271.587 119.458 271.06 117.951 271.06ZM137.226 273.94H135.406C135.206 272.007 134.026 271.04 131.866 271.04C130.84 271.04 130.046 271.247 129.486 271.66C128.926 272.073 128.646 272.653 128.646 273.4C128.646 273.667 128.686 273.9 128.766 274.1C128.846 274.3 128.98 274.48 129.166 274.64C129.366 274.787 129.553 274.913 129.726 275.02C129.9 275.127 130.173 275.233 130.546 275.34C130.92 275.447 131.22 275.527 131.446 275.58C131.673 275.62 132.026 275.693 132.506 275.8C133.093 275.92 133.58 276.033 133.966 276.14C134.353 276.233 134.813 276.393 135.346 276.62C135.88 276.847 136.3 277.1 136.606 277.38C136.926 277.647 137.2 278.007 137.426 278.46C137.666 278.913 137.786 279.427 137.786 280C137.786 281 137.506 281.84 136.946 282.52C136.386 283.187 135.706 283.653 134.906 283.92C134.106 284.187 133.22 284.32 132.246 284.32C130.46 284.32 129.026 283.9 127.946 283.06C126.88 282.207 126.346 280.953 126.346 279.3H128.166C128.206 280.513 128.613 281.4 129.386 281.96C130.16 282.507 131.166 282.78 132.406 282.78C133.38 282.78 134.213 282.58 134.906 282.18C135.6 281.767 135.946 281.1 135.946 280.18C135.946 279.753 135.853 279.393 135.666 279.1C135.48 278.793 135.186 278.547 134.786 278.36C134.386 278.16 133.986 278 133.586 277.88C133.186 277.76 132.66 277.627 132.006 277.48C131.913 277.467 131.846 277.453 131.806 277.44C130.34 277.107 129.38 276.84 128.926 276.64C127.54 276.04 126.846 275.007 126.846 273.54C126.846 272.18 127.346 271.167 128.346 270.5C129.36 269.82 130.58 269.48 132.006 269.48C133.566 269.48 134.813 269.853 135.746 270.6C136.68 271.347 137.173 272.46 137.226 273.94ZM140.115 269.76H146.195C147.502 269.76 148.582 270.047 149.435 270.62C150.302 271.193 150.735 272.093 150.735 273.32C150.735 274.027 150.542 274.66 150.155 275.22C149.782 275.767 149.275 276.153 148.635 276.38C149.515 276.58 150.188 276.993 150.655 277.62C151.135 278.247 151.375 279.033 151.375 279.98C151.375 282.66 149.575 284 145.975 284H140.115V269.76ZM141.955 271.36V275.86H145.335C145.722 275.86 146.048 275.853 146.315 275.84C146.595 275.813 146.908 275.76 147.255 275.68C147.602 275.6 147.875 275.487 148.075 275.34C148.288 275.18 148.468 274.953 148.615 274.66C148.775 274.367 148.855 274.013 148.855 273.6C148.855 273.187 148.788 272.84 148.655 272.56C148.522 272.267 148.362 272.047 148.175 271.9C147.988 271.74 147.728 271.62 147.395 271.54C147.075 271.46 146.782 271.413 146.515 271.4C146.262 271.373 145.928 271.36 145.515 271.36H141.955ZM141.955 277.34V282.42H145.715C146.182 282.42 146.562 282.413 146.855 282.4C147.148 282.373 147.475 282.313 147.835 282.22C148.208 282.127 148.502 281.993 148.715 281.82C148.928 281.633 149.108 281.373 149.255 281.04C149.402 280.693 149.475 280.28 149.475 279.8C149.475 279.4 149.422 279.053 149.315 278.76C149.222 278.467 149.055 278.233 148.815 278.06C148.588 277.887 148.368 277.747 148.155 277.64C147.955 277.533 147.662 277.46 147.275 277.42C146.888 277.38 146.588 277.36 146.375 277.36C146.162 277.347 145.835 277.34 145.395 277.34H141.955ZM159.893 274.86C160.8 273.873 162.033 273.38 163.593 273.38C165.153 273.38 166.366 273.853 167.233 274.8C168.1 275.747 168.533 277.073 168.533 278.78C168.533 280.527 168.1 281.887 167.233 282.86C166.366 283.833 165.146 284.32 163.573 284.32C162 284.32 160.766 283.84 159.873 282.88C158.98 281.92 158.533 280.587 158.533 278.88C158.533 277.187 158.986 275.847 159.893 274.86ZM165.913 275.9C165.34 275.167 164.553 274.8 163.553 274.8C162.553 274.8 161.76 275.167 161.173 275.9C160.586 276.633 160.293 277.613 160.293 278.84C160.293 280.107 160.58 281.1 161.153 281.82C161.74 282.527 162.553 282.88 163.593 282.88C164.593 282.88 165.373 282.52 165.933 281.8C166.506 281.08 166.793 280.087 166.793 278.82C166.793 277.593 166.5 276.62 165.913 275.9ZM178.106 275.18H174.406V284H172.706V275.18H169.006V273.68H178.106V275.18ZM186.584 275.18H181.204V284H179.504V273.68H186.584V275.18ZM189.462 273.68V275.14C190.209 273.953 191.369 273.36 192.942 273.36C194.382 273.36 195.522 273.847 196.362 274.82C197.215 275.793 197.642 277.113 197.642 278.78C197.642 280.447 197.222 281.78 196.382 282.78C195.555 283.767 194.435 284.26 193.022 284.26C191.542 284.26 190.389 283.693 189.562 282.56V287.98H187.862V273.68H189.462ZM192.682 274.78C191.695 274.78 190.915 275.14 190.342 275.86C189.782 276.567 189.502 277.547 189.502 278.8C189.502 280.053 189.789 281.04 190.362 281.76C190.949 282.467 191.742 282.82 192.742 282.82C193.715 282.82 194.482 282.46 195.042 281.74C195.602 281.02 195.882 280.04 195.882 278.8C195.882 277.547 195.595 276.567 195.022 275.86C194.462 275.14 193.682 274.78 192.682 274.78ZM208.023 273.68L203.603 285.32C203.43 285.787 203.276 286.147 203.143 286.4C203.023 286.667 202.843 286.953 202.603 287.26C202.376 287.58 202.096 287.807 201.763 287.94C201.443 288.087 201.063 288.16 200.623 288.16C200.29 288.16 199.87 288.1 199.363 287.98V286.46C199.856 286.607 200.223 286.68 200.463 286.68C201.023 286.68 201.423 286.393 201.663 285.82L202.463 283.94L198.363 273.68H200.283L203.343 281.9L206.243 273.68H208.023ZM213.843 279L210.303 284H208.203L212.723 277.92L208.783 273.68H210.883L215.083 278.42H215.123V273.68H216.823V278.42H216.863L221.063 273.68H223.163L219.223 277.92L223.743 284H221.643L218.103 279L216.823 280.3V284H215.123V280.3L213.843 279ZM233.518 280.74C232.998 283.14 231.498 284.34 229.018 284.34C227.498 284.34 226.305 283.867 225.438 282.92C224.585 281.973 224.158 280.66 224.158 278.98C224.158 277.313 224.598 275.967 225.478 274.94C226.371 273.9 227.531 273.38 228.958 273.38C230.545 273.38 231.718 273.92 232.478 275C233.251 276.067 233.638 277.42 233.638 279.06V279.3H225.878L225.858 279.42C225.858 280.513 226.145 281.373 226.718 282C227.291 282.627 228.078 282.94 229.078 282.94C229.825 282.94 230.411 282.767 230.838 282.42C231.278 282.073 231.618 281.513 231.858 280.74H233.518ZM231.878 277.92C231.798 276.933 231.498 276.167 230.978 275.62C230.458 275.06 229.771 274.78 228.918 274.78C228.091 274.78 227.405 275.06 226.858 275.62C226.311 276.18 225.985 276.947 225.878 277.92H231.878ZM237.14 284H235.44V273.68H237.14V277.78H242.3V273.68H244V284H242.3V279.28H237.14V284ZM247.373 274.86C248.28 273.873 249.513 273.38 251.073 273.38C252.633 273.38 253.847 273.853 254.713 274.8C255.58 275.747 256.013 277.073 256.013 278.78C256.013 280.527 255.58 281.887 254.713 282.86C253.847 283.833 252.627 284.32 251.053 284.32C249.48 284.32 248.247 283.84 247.353 282.88C246.46 281.92 246.013 280.587 246.013 278.88C246.013 277.187 246.467 275.847 247.373 274.86ZM253.393 275.9C252.82 275.167 252.033 274.8 251.033 274.8C250.033 274.8 249.24 275.167 248.653 275.9C248.067 276.633 247.773 277.613 247.773 278.84C247.773 280.107 248.06 281.1 248.633 281.82C249.22 282.527 250.033 282.88 251.073 282.88C252.073 282.88 252.853 282.52 253.413 281.8C253.987 281.08 254.273 280.087 254.273 278.82C254.273 277.593 253.98 276.62 253.393 275.9Z" fill="#010101"/>
<path d="M112.22 0.28V64H103.85V17.83H87.83V12.07C92.99 12.07 97.07 11.23 100.07 9.55C103.13 7.87 105.17 4.78 106.19 0.28H112.22ZM154.94 0.189995C158.78 0.189995 162.05 0.909995 164.75 2.34999C167.51 3.72999 169.61 5.44 171.05 7.48C172.49 9.52 173.63 12.19 174.47 15.49C175.31 18.73 175.82 21.67 176 24.31C176.18 26.89 176.27 30.01 176.27 33.67C176.27 37.03 176.12 40.06 175.82 42.76C175.58 45.46 175.01 48.28 174.11 51.22C173.27 54.16 172.1 56.62 170.6 58.6C169.1 60.52 167.06 62.11 164.48 63.37C161.9 64.63 158.84 65.26 155.3 65.26C151.58 65.26 148.34 64.63 145.58 63.37C142.88 62.05 140.78 60.43 139.28 58.51C137.78 56.59 136.58 54.16 135.68 51.22C134.84 48.22 134.3 45.4 134.06 42.76C133.82 40.06 133.7 36.97 133.7 33.49C133.7 30.49 133.76 27.88 133.88 25.66C134.06 23.44 134.36 20.95 134.78 18.19C135.26 15.37 135.98 13 136.94 11.08C137.9 9.1 139.13 7.24 140.63 5.5C142.13 3.76 144.08 2.44 146.48 1.54C148.94 0.639997 151.76 0.189995 154.94 0.189995ZM159.89 8.11C158.45 7.39 156.8 7.03 154.94 7.03C153.08 7.03 151.43 7.39 149.99 8.11C148.55 8.77 147.38 9.55 146.48 10.45C145.58 11.35 144.8 12.7 144.14 14.5C143.48 16.24 143 17.71 142.7 18.91C142.46 20.11 142.25 21.85 142.07 24.13C141.89 26.35 141.8 27.94 141.8 28.9C141.8 29.8 141.8 31.33 141.8 33.49C141.8 35.59 141.83 37.33 141.89 38.71C141.95 40.09 142.1 41.89 142.34 44.11C142.58 46.33 143 48.19 143.6 49.69C144.2 51.13 144.95 52.6 145.85 54.1C146.75 55.54 147.98 56.65 149.54 57.43C151.16 58.15 153.02 58.51 155.12 58.51C156.92 58.51 158.51 58.18 159.89 57.52C161.33 56.86 162.5 56.08 163.4 55.18C164.3 54.28 165.05 53.02 165.65 51.4C166.31 49.72 166.79 48.28 167.09 47.08C167.39 45.82 167.6 44.17 167.72 42.13C167.9 40.03 167.99 38.5 167.99 37.54C168.05 36.52 168.08 35.05 168.08 33.13C168.08 31.03 168.08 29.53 168.08 28.63C168.08 27.73 167.99 26.17 167.81 23.95C167.63 21.73 167.39 20.02 167.09 18.82C166.85 17.62 166.4 16.15 165.74 14.41C165.08 12.67 164.3 11.35 163.4 10.45C162.5 9.55 161.33 8.77 159.89 8.11ZM204.05 64V44.11H184.43V38.8H204.05V18.91H209.99V38.8H229.61V44.11H209.99V64H204.05Z" fill="#EC8B33"/>
<path d="M126.35 222.13V228.61H117.71V244H110.51V228.61H82.52V221.41L111.5 180.19H117.71V222.13H126.35ZM110.51 222.13V191.44L89.27 222.13H110.51ZM200.419 181.36V187.93C186.499 203.83 178.369 222.52 176.029 244H167.569C168.289 234.16 170.869 224.41 175.309 214.75C179.809 205.09 185.569 196.39 192.589 188.65H159.199V181.36H200.419ZM247.458 181.36V188.11H221.628L217.848 207.1C220.968 203.74 225.258 202.06 230.718 202.06C236.718 202.06 241.578 204.01 245.298 207.91C249.018 211.75 250.878 216.76 250.878 222.94C250.878 229.42 248.838 234.76 244.758 238.96C240.678 243.16 235.368 245.26 228.828 245.26C222.768 245.26 217.848 243.58 214.068 240.22C210.348 236.86 208.398 232.39 208.218 226.81H215.958C216.258 230.35 217.608 233.23 220.008 235.45C222.408 237.67 225.378 238.78 228.918 238.78C232.878 238.78 236.178 237.34 238.818 234.46C241.458 231.58 242.778 228.01 242.778 223.75C242.778 219.31 241.488 215.71 238.908 212.95C236.328 210.13 232.968 208.72 228.828 208.72C223.548 208.72 219.468 210.79 216.588 214.93L210.018 214.48L215.958 181.36H247.458ZM297.468 181.36V188.11H271.638L267.858 207.1C270.978 203.74 275.268 202.06 280.728 202.06C286.728 202.06 291.588 204.01 295.308 207.91C299.028 211.75 300.888 216.76 300.888 222.94C300.888 229.42 298.848 234.76 294.768 238.96C290.688 243.16 285.378 245.26 278.838 245.26C272.778 245.26 267.858 243.58 264.078 240.22C260.358 236.86 258.408 232.39 258.228 226.81H265.968C266.268 230.35 267.618 233.23 270.018 235.45C272.418 237.67 275.388 238.78 278.928 238.78C282.888 238.78 286.188 237.34 288.828 234.46C291.468 231.58 292.788 228.01 292.788 223.75C292.788 219.31 291.498 215.71 288.918 212.95C286.338 210.13 282.978 208.72 278.838 208.72C273.558 208.72 269.478 210.79 266.598 214.93L260.028 214.48L265.968 181.36H297.468ZM376.487 222.13V228.61H367.847V244H360.647V228.61H332.657V221.41L361.637 180.19H367.847V222.13H376.487ZM360.647 222.13V191.44L339.407 222.13H360.647ZM405.076 180.19C408.916 180.19 412.186 180.91 414.886 182.35C417.646 183.73 419.746 185.44 421.186 187.48C422.626 189.52 423.766 192.19 424.606 195.49C425.446 198.73 425.956 201.67 426.136 204.31C426.316 206.89 426.406 210.01 426.406 213.67C426.406 217.03 426.256 220.06 425.956 222.76C425.716 225.46 425.146 228.28 424.246 231.22C423.406 234.16 422.236 236.62 420.736 238.6C419.236 240.52 417.196 242.11 414.616 243.37C412.036 244.63 408.976 245.26 405.436 245.26C401.716 245.26 398.476 244.63 395.716 243.37C393.016 242.05 390.916 240.43 389.416 238.51C387.916 236.59 386.716 234.16 385.816 231.22C384.976 228.22 384.436 225.4 384.196 222.76C383.956 220.06 383.836 216.97 383.836 213.49C383.836 210.49 383.896 207.88 384.016 205.66C384.196 203.44 384.496 200.95 384.916 198.19C385.396 195.37 386.116 193 387.076 191.08C388.036 189.1 389.266 187.24 390.766 185.5C392.266 183.76 394.216 182.44 396.616 181.54C399.076 180.64 401.896 180.19 405.076 180.19ZM410.026 188.11C408.586 187.39 406.936 187.03 405.076 187.03C403.216 187.03 401.566 187.39 400.126 188.11C398.686 188.77 397.516 189.55 396.616 190.45C395.716 191.35 394.936 192.7 394.276 194.5C393.616 196.24 393.136 197.71 392.836 198.91C392.596 200.11 392.386 201.85 392.206 204.13C392.026 206.35 391.936 207.94 391.936 208.9C391.936 209.8 391.936 211.33 391.936 213.49C391.936 215.59 391.966 217.33 392.026 218.71C392.086 220.09 392.236 221.89 392.476 224.11C392.716 226.33 393.136 228.19 393.736 229.69C394.336 231.13 395.086 232.6 395.986 234.1C396.886 235.54 398.116 236.65 399.676 237.43C401.296 238.15 403.156 238.51 405.256 238.51C407.056 238.51 408.646 238.18 410.026 237.52C411.466 236.86 412.636 236.08 413.536 235.18C414.436 234.28 415.186 233.02 415.786 231.4C416.446 229.72 416.926 228.28 417.226 227.08C417.526 225.82 417.736 224.17 417.856 222.13C418.036 220.03 418.126 218.5 418.126 217.54C418.186 216.52 418.216 215.05 418.216 213.13C418.216 211.03 418.216 209.53 418.216 208.63C418.216 207.73 418.126 206.17 417.946 203.95C417.766 201.73 417.526 200.02 417.226 198.82C416.986 197.62 416.536 196.15 415.876 194.41C415.216 192.67 414.436 191.35 413.536 190.45C412.636 189.55 411.466 188.77 410.026 188.11ZM455.086 180.19C458.926 180.19 462.196 180.91 464.896 182.35C467.656 183.73 469.756 185.44 471.196 187.48C472.636 189.52 473.776 192.19 474.616 195.49C475.456 198.73 475.966 201.67 476.146 204.31C476.326 206.89 476.416 210.01 476.416 213.67C476.416 217.03 476.266 220.06 475.966 222.76C475.726 225.46 475.156 228.28 474.256 231.22C473.416 234.16 472.246 236.62 470.746 238.6C469.246 240.52 467.206 242.11 464.626 243.37C462.046 244.63 458.986 245.26 455.446 245.26C451.726 245.26 448.486 244.63 445.726 243.37C443.026 242.05 440.926 240.43 439.426 238.51C437.926 236.59 436.726 234.16 435.826 231.22C434.986 228.22 434.446 225.4 434.206 222.76C433.966 220.06 433.846 216.97 433.846 213.49C433.846 210.49 433.906 207.88 434.026 205.66C434.206 203.44 434.506 200.95 434.926 198.19C435.406 195.37 436.126 193 437.086 191.08C438.046 189.1 439.276 187.24 440.776 185.5C442.276 183.76 444.226 182.44 446.626 181.54C449.086 180.64 451.906 180.19 455.086 180.19ZM460.036 188.11C458.596 187.39 456.946 187.03 455.086 187.03C453.226 187.03 451.576 187.39 450.136 188.11C448.696 188.77 447.526 189.55 446.626 190.45C445.726 191.35 444.946 192.7 444.286 194.5C443.626 196.24 443.146 197.71 442.846 198.91C442.606 200.11 442.396 201.85 442.216 204.13C442.036 206.35 441.946 207.94 441.946 208.9C441.946 209.8 441.946 211.33 441.946 213.49C441.946 215.59 441.976 217.33 442.036 218.71C442.096 220.09 442.246 221.89 442.486 224.11C442.726 226.33 443.146 228.19 443.746 229.69C444.346 231.13 445.096 232.6 445.996 234.1C446.896 235.54 448.126 236.65 449.686 237.43C451.306 238.15 453.166 238.51 455.266 238.51C457.066 238.51 458.656 238.18 460.036 237.52C461.476 236.86 462.646 236.08 463.546 235.18C464.446 234.28 465.196 233.02 465.796 231.4C466.456 229.72 466.936 228.28 467.236 227.08C467.536 225.82 467.746 224.17 467.866 222.13C468.046 220.03 468.136 218.5 468.136 217.54C468.196 216.52 468.226 215.05 468.226 213.13C468.226 211.03 468.226 209.53 468.226 208.63C468.226 207.73 468.136 206.17 467.956 203.95C467.776 201.73 467.536 200.02 467.236 198.82C466.996 197.62 466.546 196.15 465.886 194.41C465.226 192.67 464.446 191.35 463.546 190.45C462.646 189.55 461.476 188.77 460.036 188.11ZM504.196 244V224.11H484.576V218.8H504.196V198.91H510.136V218.8H529.756V224.11H510.136V244H504.196Z" fill="#EC8B33"/>
<rect y="144" width="940" height="2" fill="#010101"/>
</svg>
