<svg width="80" height="80" viewBox="0 0 80 80" fill="none" xmlns="http://www.w3.org/2000/svg">
<circle cx="40" cy="40" r="40" fill="#EC8B33"/>
<path d="M31.207 20L29.7017 21.5053C29.5863 21.4399 29.4564 21.4044 29.3239 21.4019H21.1115C20.658 21.4019 20.2903 21.7696 20.2903 22.2231V30.4355C20.2903 30.889 20.658 31.2567 21.1115 31.2567H29.3239C29.7774 31.2567 30.1451 30.889 30.1451 30.4355V23.3843L32.3682 21.1612L31.207 20ZM28.5027 29.6142H21.9328V23.0443H28.1627L25.2177 25.9893L24.1558 24.9274L22.9946 26.0886L24.6371 27.7311C24.9578 28.0517 25.4776 28.0517 25.7983 27.7311L28.5027 25.0268V29.6142Z" fill="white"/>
<path d="M31.207 34.7832L29.7017 36.2885C29.5863 36.2231 29.4564 36.1876 29.3239 36.1851H21.1115C20.658 36.1851 20.2903 36.5528 20.2903 37.0063V45.2187C20.2903 45.6722 20.658 46.0399 21.1115 46.0399H29.3239C29.7774 46.0399 30.1451 45.6722 30.1451 45.2187V38.1675L32.3682 35.9444L31.207 34.7832ZM28.5027 44.3974H21.9328V37.8275H28.1627L25.2177 40.7725L24.1558 39.7106L22.9946 40.8719L24.6371 42.5143C24.9578 42.8349 25.4776 42.8349 25.7983 42.5143L28.5027 39.81V44.3974Z" fill="white"/>
<path d="M31.207 48.7441L29.7017 50.2495C29.5863 50.1841 29.4564 50.1486 29.3239 50.146H21.1115C20.658 50.146 20.2903 50.5137 20.2903 50.9672V59.1796C20.2903 59.6331 20.658 60.0008 21.1115 60.0008H29.3239C29.7774 60.0008 30.1451 59.6331 30.1451 59.1796V52.1285L32.3682 49.9054L31.207 48.7441ZM28.5027 58.3584H21.9328V51.7885H28.1627L25.2177 54.7334L24.1558 53.6716L22.9946 54.8328L24.6371 56.4753C24.9578 56.7959 25.4776 56.7959 25.7983 56.4753L28.5027 53.7709V58.3584Z" fill="white"/>
<path d="M59.7097 27.9707H35.8938V29.6132H59.7097V27.9707Z" fill="white"/>
<path d="M59.7097 23.0449H35.8938V24.6874H59.7097V23.0449Z" fill="white"/>
<path d="M59.7097 42.7539H35.8938V44.3964H59.7097V42.7539Z" fill="white"/>
<path d="M59.7097 37.8262H35.8938V39.4686H59.7097V37.8262Z" fill="white"/>
<path d="M59.7097 56.7148H35.8938V58.3573H59.7097V56.7148Z" fill="white"/>
<path d="M59.7097 51.7871H35.8938V53.4296H59.7097V51.7871Z" fill="white"/>
</svg>
