<svg width="16" height="16" viewBox="0 0 16 16" fill="none" xmlns="http://www.w3.org/2000/svg">
<path d="M15.7442 7.37825L9.96608 1.59996C9.80114 1.43502 9.58131 1.34448 9.3469 1.34448C9.11224 1.34448 8.89253 1.43515 8.72759 1.59996L8.20298 2.1247C8.03817 2.28938 7.94737 2.50935 7.94737 2.74389C7.94737 2.97829 8.03817 3.20567 8.20298 3.37035L11.5739 6.74867L0.864382 6.74867C0.381525 6.74867 2.52748e-07 7.12668 2.7386e-07 7.60967L3.06287e-07 8.35151C3.27399e-07 8.8345 0.381525 9.25063 0.864382 9.25063L11.6121 9.25063L8.20311 12.6478C8.0383 12.8127 7.9475 13.0267 7.9475 13.2613C7.9475 13.4955 8.0383 13.7126 8.20311 13.8775L8.72772 14.4005C8.89266 14.5654 9.11237 14.6553 9.34703 14.6553C9.58144 14.6553 9.80127 14.5643 9.96621 14.3993L15.7444 8.62117C15.9097 8.45571 16.0006 8.23483 16 8.00004C16.0005 7.76446 15.9097 7.54346 15.7442 7.37825Z" fill="#010101"/>
</svg>
