<svg width="40" height="40" viewBox="0 0 40 40" fill="none" xmlns="http://www.w3.org/2000/svg">
<path d="M33.2812 18.9844C33.2812 18.5529 32.9315 18.2031 32.5 18.2031C32.0685 18.2031 31.7188 18.5529 31.7188 18.9844C31.7188 21.5692 29.6161 23.6719 27.0312 23.6719C26.5997 23.6719 26.25 24.0216 26.25 24.4531C26.25 24.8846 26.5997 25.2344 27.0312 25.2344C30.4776 25.2344 33.2812 22.4307 33.2812 18.9844Z" fill="black"/>
<path d="M17.005 26.5994C16.5921 27.2223 12.9688 32.7527 12.9688 35.0781C12.9688 37.746 15.1154 40 17.6562 40C20.1971 40 22.3438 37.746 22.3438 35.0781C22.3438 32.7527 18.7204 27.2223 18.3075 26.5994C18.1625 26.3812 17.9181 26.25 17.6562 26.25C17.3944 26.25 17.15 26.3812 17.005 26.5994ZM20.7812 35.0781C20.7812 36.8677 19.321 38.4375 17.6562 38.4375C15.9915 38.4375 14.5312 36.8677 14.5312 35.0781C14.5312 33.8742 16.2473 30.7321 17.6562 28.4763C19.0652 30.7321 20.7812 33.8742 20.7812 35.0781Z" fill="black"/>
<path d="M9.0625 12.9688C8.80585 12.9688 8.56567 13.0948 8.4198 13.306C7.92572 14.021 3.59375 20.372 3.59375 23.125C3.59375 26.1404 6.04706 28.5938 9.0625 28.5938C12.0779 28.5938 14.5312 26.1404 14.5312 23.125C14.5312 20.372 10.1993 14.021 9.7052 13.306C9.55933 13.0948 9.31915 12.9688 9.0625 12.9688ZM9.0625 27.0312C6.90857 27.0312 5.15625 25.2789 5.15625 23.125C5.15625 21.6141 7.341 17.7783 9.0625 15.1508C10.784 17.778 12.9688 21.6132 12.9688 23.125C12.9688 25.2789 11.2164 27.0312 9.0625 27.0312Z" fill="black"/>
<path d="M19.2188 18.2031C19.2188 18.6346 18.869 18.9844 18.4375 18.9844C18.006 18.9844 17.6562 18.6346 17.6562 18.2031C17.6562 17.7716 18.006 17.4219 18.4375 17.4219C18.869 17.4219 19.2188 17.7716 19.2188 18.2031Z" fill="black"/>
<path d="M27.6894 0.360718C27.5457 0.136108 27.2976 0 27.0309 0C26.7641 0 26.516 0.136108 26.3723 0.360718C26.1474 0.713196 20.837 9.0567 18.6202 14.939C18.4679 15.3427 18.6721 15.7935 19.0758 15.9454C19.4793 16.0977 19.93 15.8939 20.0823 15.4901C21.7895 10.9595 25.5202 4.71161 27.033 2.25433C29.7039 6.57349 34.8434 15.5865 34.8434 18.9844C34.8434 23.2922 31.3387 26.7969 27.0309 26.7969C23.543 26.7969 20.4497 24.4547 19.5083 21.1008C19.3917 20.6854 18.9605 20.4431 18.5448 20.5597C18.1295 20.6763 17.8875 21.1078 18.0038 21.5231C19.1338 25.5481 22.846 28.3594 27.0309 28.3594C32.2002 28.3594 36.4059 24.1537 36.4059 18.9844C36.4059 14.678 29.9178 3.84491 27.6894 0.360718Z" fill="black"/>
</svg>
