<svg width="40" height="40" viewBox="0 0 40 40" fill="none" xmlns="http://www.w3.org/2000/svg">
<g clip-path="url(#clip0)">
<path fill-rule="evenodd" clip-rule="evenodd" d="M32.7112 4.81008C32.3016 4.67489 31.8597 4.89736 31.7245 5.30721C31.5894 5.71676 31.8118 6.15865 32.2214 6.29385C35.9393 7.52096 38.4375 10.978 38.4375 14.8958C38.4375 18.5891 36.2292 21.8804 32.8116 23.2805C32.8113 23.2808 32.8107 23.2812 32.8101 23.2815C32.8094 23.2818 32.8088 23.2818 32.8082 23.2821C31.7218 23.7334 30.6006 23.9528 29.3805 23.9528C28.9493 23.9528 28.5992 24.3026 28.5992 24.7341C28.5992 25.1656 28.9493 25.5153 29.3805 25.5153C30.1901 25.5153 30.9641 25.4323 31.7154 25.2636C31.051 26.5731 29.8114 28.5714 27.7112 30.5434C24.4318 33.6223 18.3472 37.2158 7.94373 36.924C7.48657 36.5792 6.15356 35.4744 4.83612 33.4347C3.34259 31.1226 1.5625 27.0974 1.5625 21.0518C1.5625 14.9795 2.05627 10.8962 3.11676 8.20089C4.1037 5.69265 5.59875 4.3102 7.96448 3.71877C11.6382 2.8005 13.1293 3.27566 13.7329 3.83596C14.3005 4.3627 14.4684 5.32552 14.2325 6.69851C13.9093 8.57565 13.371 9.71517 12.5381 10.2843C11.6937 10.8614 10.3925 10.9603 8.56018 10.5865C7.84454 10.4308 6.95801 10.1903 6.24512 9.95809C5.83496 9.82412 5.39398 10.0487 5.26031 10.4589C5.12665 10.869 5.35095 11.31 5.76111 11.4437C6.32965 11.6289 7.00165 11.8191 7.62421 11.9726C7.67639 13.9785 8.1546 20.0939 11.9638 22.8783C11.0007 25.7656 11.3266 27.8881 11.3419 27.9827C11.4038 28.3663 11.7355 28.6391 12.1121 28.6391C12.1536 28.6391 12.1954 28.6361 12.2379 28.6291C12.6639 28.5601 12.9532 28.1591 12.8842 27.7331C12.8809 27.7123 12.5635 25.6423 13.6343 22.8466C13.6349 22.8451 13.6353 22.8432 13.6359 22.8417C13.6365 22.8399 13.6371 22.8386 13.6377 22.8371C14.6005 20.2233 16.3516 18.0196 18.8513 16.2722C19.0509 17.8078 19.5816 19.2812 20.4178 20.5941C20.5667 20.8278 20.8194 20.9557 21.0776 20.9557C21.221 20.9557 21.3663 20.916 21.4966 20.8333C21.8604 20.6014 21.9675 20.1186 21.7355 19.7545C20.8118 18.3043 20.3235 16.6244 20.3235 14.8958C20.3235 14.8952 20.3235 14.8949 20.3235 14.8946C20.3241 10.9774 22.8217 7.52096 26.5393 6.29385C26.9489 6.15865 27.1716 5.71676 27.0361 5.30691C26.9009 4.89736 26.4587 4.67489 26.0495 4.81008C21.8307 6.2026 18.9517 10.0432 18.7701 14.4524C15.8881 16.2591 13.8025 18.5769 12.5549 21.357C9.82147 19.0319 9.29993 14.2739 9.20319 12.2802C11.0132 12.5228 12.3682 12.293 13.4195 11.5746C14.6414 10.7393 15.3671 9.31722 15.7721 6.9631C16.1035 5.03683 15.7751 3.59945 14.7955 2.69064C13.4875 1.47665 11.1292 1.31704 7.58545 2.20297C4.71893 2.91952 2.83691 4.64346 1.6626 7.62869C0.528259 10.5123 0 14.7774 0 21.0518C0 27.5304 1.9455 31.8679 3.57758 34.3654C5.37262 37.1123 7.18079 38.3037 7.25708 38.3529C7.3761 38.4304 7.51404 38.4737 7.65594 38.4783C8.15338 38.4951 8.64563 38.5033 9.1333 38.5033C13.4262 38.503 17.3315 37.8594 20.7593 36.585C23.8345 35.4418 26.5332 33.7923 28.7805 31.6823C31.9891 28.6699 33.3417 25.6081 33.7299 24.5867C37.5507 22.8734 40 19.1076 40 14.8958C40 10.3023 37.0709 6.24929 32.7112 4.81008Z" fill="black"/>
<path fill-rule="evenodd" clip-rule="evenodd" d="M29.3809 5.83984C29.8112 5.83984 30.1621 5.48889 30.1621 5.05859C30.1621 4.6283 29.8112 4.27734 29.3809 4.27734C28.9506 4.27734 28.5996 4.6283 28.5996 5.05859C28.5996 5.48889 28.9506 5.83984 29.3809 5.83984Z" fill="black"/>
</g>
<defs>
<clipPath id="clip0">
<rect width="40" height="40" fill="white"/>
</clipPath>
</defs>
</svg>
