<svg width="40" height="40" viewBox="0 0 40 40" fill="none" xmlns="http://www.w3.org/2000/svg">
<g clip-path="url(#clip0)">
<path d="M18.6677 12.6841C18.6677 13.052 18.3694 13.3503 18.0012 13.3503C17.6333 13.3503 17.335 13.052 17.335 12.6841C17.335 12.3159 17.6333 12.0176 18.0012 12.0176C18.3694 12.0176 18.6677 12.3159 18.6677 12.6841Z" fill="black"/>
<path d="M13.3352 19.8617C13.2339 17.5803 14.3925 15.4269 16.3521 14.2543C16.6812 14.0893 16.8139 13.6888 16.6489 13.3599C16.4836 13.0308 16.083 12.8981 15.7542 13.0631C13.3413 14.4599 11.8978 17.0757 12.0024 19.8617C12.0024 20.2299 12.3007 20.5283 12.6689 20.5283C13.0368 20.5283 13.3352 20.2299 13.3352 19.8617Z" fill="black"/>
<path d="M0.543557 23.9878C0.81261 24.0549 1.09539 23.9503 1.25615 23.7246C1.84459 23.0629 2.65114 22.6352 3.52876 22.5193C3.54554 22.6319 3.56354 22.7411 3.58276 22.8473C0.869654 25.2196 1.90255 29.0474 2.87016 30.799C3.0053 31.0436 3.27862 31.1778 3.55469 31.1351C3.83076 31.0927 4.05101 30.8825 4.10652 30.6086C4.39998 29.7758 4.97866 29.0739 5.73976 28.6264C5.79893 28.7246 5.85781 28.8198 5.91607 28.9119C4.32647 32.1415 6.73208 35.2813 8.28783 36.5275C8.32443 36.5543 8.36378 36.5772 8.40527 36.5955C8.45438 36.6205 8.50655 36.6391 8.56054 36.6504C8.59501 36.6602 8.63009 36.6669 8.66548 36.6708C8.67951 36.6718 8.69232 36.6788 8.70635 36.6788C8.73777 36.6748 8.76889 36.6687 8.7997 36.6605C8.82776 36.6568 8.85583 36.6513 8.88328 36.644C8.92782 36.6318 8.97053 36.615 9.0114 36.5934C9.02086 36.5885 9.03154 36.5873 9.04069 36.5818C9.0596 36.5683 9.0776 36.5534 9.09499 36.5378C9.12427 36.5214 9.15203 36.5028 9.17857 36.482C9.1862 36.4744 9.18864 36.4637 9.19565 36.4558C9.24171 36.4051 9.27985 36.3478 9.30821 36.2856C9.32194 36.2511 9.33262 36.2157 9.33994 36.1794C9.35153 36.1394 9.35946 36.098 9.36312 36.0562C9.36526 36.0238 9.36495 35.9912 9.3619 35.9585C9.36068 35.9381 9.36495 35.918 9.36129 35.8972C9.31157 35.0089 9.58123 34.1319 10.1215 33.4251C10.2081 33.4886 10.296 33.5517 10.3856 33.6149C10.1334 37.3529 13.8318 39.2592 15.4312 39.7247L15.4458 39.729C15.4671 39.7351 15.4922 39.7439 15.5126 39.7494C15.5397 39.7546 15.5672 39.7576 15.5947 39.7592C15.6258 39.7677 15.6575 39.7741 15.6895 39.7781C15.8045 39.7744 15.9165 39.7405 16.0144 39.6801C16.044 39.6643 16.0724 39.6463 16.0992 39.6258C16.1157 39.6124 16.1355 39.6075 16.1511 39.5926C16.1639 39.5758 16.1761 39.5584 16.1874 39.5401C16.1968 39.5294 16.209 39.5221 16.2179 39.5105C16.2484 39.4553 16.2786 39.4001 16.3091 39.3446C16.3341 39.2793 16.349 39.2104 16.3527 39.1405C16.3521 39.1158 16.3497 39.0914 16.3463 39.067C16.3323 38.9636 16.3039 38.8623 16.2615 38.7668C15.8774 37.9646 15.7884 37.0531 16.0095 36.1916C16.1163 36.2178 16.2249 36.2429 16.3356 36.2673C17.3411 39.2445 20.4584 40.0139 22.5577 40.0139C22.8408 40.0148 23.1239 39.9995 23.4054 39.9687C23.6833 39.9376 23.9121 39.7363 23.9786 39.4645C24.0448 39.193 23.9344 38.909 23.7022 38.7531C23.0476 38.1628 22.6233 37.3593 22.5055 36.4854C22.6181 36.4683 22.7273 36.4503 22.8335 36.4314C25.2101 39.1457 29.036 38.1165 30.7846 37.151C31.0252 37.0165 31.1576 36.7474 31.1177 36.4747C31.0777 36.2001 30.8733 35.9784 30.603 35.9165C29.7648 35.6239 29.0598 35.0397 28.6172 34.2704C28.7081 34.2149 28.8008 34.1572 28.8957 34.0971C32.1252 35.6898 35.2672 33.283 36.5134 31.7269C36.55 31.6799 36.5799 31.6281 36.6024 31.5729C36.6201 31.5286 36.6329 31.4826 36.6406 31.4356C36.6482 31.4042 36.6534 31.3724 36.6564 31.3404C36.6586 31.2202 36.6308 31.1016 36.5762 30.9945C36.5728 30.9878 36.5719 30.9805 36.5683 30.9741C36.5533 30.9533 36.5375 30.9338 36.5204 30.9149C36.5018 30.8828 36.4801 30.8523 36.4563 30.824C36.4334 30.8075 36.4093 30.7922 36.3843 30.7788C36.3462 30.7489 36.305 30.723 36.2611 30.702C36.1867 30.6748 36.1092 30.6574 36.0305 30.6504C35.9981 30.6483 35.9655 30.6489 35.9332 30.6519C35.917 30.6538 35.9011 30.6501 35.885 30.6528C34.9961 30.7026 34.1187 30.4332 33.4107 29.8933C33.4739 29.8066 33.537 29.7188 33.6002 29.6294C37.9239 29.9415 39.5367 25.1498 39.7161 24.5659C39.7206 24.5543 39.7228 24.5427 39.7264 24.5308L39.735 24.5031C39.7399 24.4756 39.7432 24.4481 39.7447 24.4207C39.7563 24.3432 39.7539 24.2642 39.7374 24.1876C39.7328 24.1587 39.7261 24.1303 39.7179 24.1022C39.7026 24.0632 39.6834 24.026 39.6612 23.9906C39.6429 23.9598 39.6224 23.9308 39.5995 23.9033C39.5861 23.8814 39.5712 23.8603 39.5553 23.8405C39.5428 23.8286 39.5266 23.8249 39.5135 23.8146C39.5074 23.8094 39.5038 23.8024 39.4973 23.7975C39.4238 23.7523 39.3454 23.7157 39.2634 23.6889C39.213 23.6742 39.1612 23.6657 39.109 23.6633C39.0297 23.6663 38.9513 23.6797 38.8757 23.7032C38.8491 23.7121 38.8232 23.7224 38.7982 23.7346C38.7835 23.742 38.7677 23.7441 38.7536 23.7526C37.9508 24.1355 37.039 24.2249 36.1772 24.0046C36.2037 23.8978 36.2291 23.7889 36.2532 23.6788C39.6673 22.5263 40.1782 18.5958 39.9549 16.6084C39.9223 16.3342 39.724 16.1087 39.4565 16.0413C39.1874 15.9742 38.9046 16.0788 38.7439 16.3046C38.1554 16.9662 37.3489 17.3939 36.4713 17.5098C36.4545 17.3969 36.4365 17.2874 36.4173 17.1813C39.131 14.805 38.1024 10.9793 37.1372 9.23019C37.003 8.98859 36.733 8.85559 36.4597 8.89708C36.1851 8.93734 35.9637 9.14203 35.902 9.4123C35.6116 10.2518 35.029 10.9586 34.2606 11.4037C34.2005 11.3051 34.1422 11.2103 34.0837 11.1178C35.6824 7.88401 33.2661 4.7417 31.7037 3.49436C31.4852 3.31957 31.1808 3.30004 30.9417 3.44525C30.7025 3.59045 30.5796 3.86957 30.6339 4.14411C30.6818 5.02784 30.4136 5.89967 29.8776 6.60403C29.791 6.54088 29.7028 6.47774 29.6135 6.41459C29.8654 2.67957 26.1734 0.773326 24.5719 0.305991L24.5603 0.302026C24.5368 0.295314 24.5094 0.285553 24.4868 0.279452C24.467 0.273961 24.4466 0.276096 24.4261 0.273046C24.2599 0.241016 24.0878 0.275791 23.9469 0.369441C23.9368 0.375847 23.9264 0.381033 23.917 0.388354C23.892 0.401776 23.8682 0.416724 23.8453 0.433501C23.8264 0.456685 23.809 0.481089 23.7938 0.506713C23.7901 0.511289 23.7849 0.514034 23.7816 0.51861C23.7751 0.526846 23.7727 0.536608 23.7669 0.545454C23.6714 0.681811 23.6324 0.849893 23.6577 1.01462C23.6604 1.04329 23.6653 1.07197 23.672 1.10034C23.6833 1.13664 23.6974 1.17172 23.7147 1.20558C23.7236 1.22449 23.7273 1.24463 23.7379 1.26293C24.1217 2.0649 24.2111 2.97669 23.9896 3.83784C23.8831 3.81191 23.7742 3.7866 23.6635 3.7625C22.511 0.348393 18.5789 -0.162564 16.5937 0.0607321C16.3164 0.0924571 16.0882 0.293789 16.022 0.564672C15.9555 0.835861 16.0653 1.11956 16.2969 1.27574C16.9518 1.86601 17.3761 2.66951 17.4942 3.54347C17.3816 3.56086 17.2721 3.57886 17.1663 3.59747C14.7896 0.883753 10.9637 1.91207 9.21517 2.87816C8.97449 3.01269 8.8421 3.28205 8.88206 3.55476C8.92233 3.8293 9.12702 4.05107 9.39729 4.113C10.2368 4.4031 10.9439 4.98574 11.3896 5.75416C11.2904 5.81334 11.1952 5.87221 11.1037 5.93078C7.8693 4.33202 4.7276 6.74801 3.47935 8.31016C3.30882 8.52797 3.28991 8.82844 3.43206 9.06577C3.57391 9.3031 3.84784 9.42878 4.12025 9.38119C5.00733 9.3275 5.88404 9.59564 6.58932 10.1362C6.52617 10.2228 6.46303 10.3107 6.39988 10.4001C2.08131 10.0971 0.463024 14.8833 0.283961 15.4629C0.27908 15.4754 0.276945 15.488 0.272674 15.5008L0.265048 15.5255C0.261387 15.5474 0.258642 15.5694 0.257422 15.5914C0.236678 15.6981 0.243084 15.808 0.275419 15.9114L0.276335 15.915C0.295248 15.969 0.321482 16.0203 0.354122 16.0672C0.362053 16.0794 0.369985 16.091 0.378831 16.1026C0.397134 16.1344 0.418182 16.1642 0.441671 16.1923C0.565216 16.3104 0.729942 16.3763 0.901074 16.376C0.934934 16.372 0.968185 16.3653 1.00113 16.3561C1.03316 16.3522 1.06489 16.3458 1.096 16.3369C1.13261 16.3259 1.1683 16.3116 1.20216 16.2942C1.21649 16.2872 1.23205 16.285 1.24578 16.2768C2.04928 15.8952 2.96076 15.8061 3.82283 16.0251C3.79629 16.1316 3.77067 16.2402 3.74657 16.3509C0.332768 17.5031 -0.178188 21.4337 0.0451077 23.4211C0.0777479 23.6953 0.27603 23.9207 0.543557 23.9878ZM4.48479 17.5214C4.73493 17.457 4.92558 17.2542 4.97408 17.0007C5.05401 16.5748 5.15711 16.1539 5.2834 15.7393C5.33557 15.5697 5.31787 15.3864 5.2346 15.2296C5.15101 15.0731 5.00855 14.9563 4.83864 14.905C3.94363 14.617 2.99645 14.5277 2.06331 14.6433C2.74967 13.3075 4.17638 11.4134 6.63172 11.7645C6.88521 11.7984 7.13627 11.6861 7.27995 11.4744C7.53375 11.0937 7.78541 10.7502 8.04897 10.4251C8.2802 10.1401 8.2378 9.72193 7.9541 9.48948C7.23571 8.8803 6.39256 8.43615 5.48382 8.18845C6.63568 7.21992 8.67646 6.02535 10.7978 7.28001C11.0205 7.4121 11.2996 7.40295 11.5131 7.25652C11.8386 7.03384 12.1937 6.81817 12.6311 6.57718C12.9508 6.40117 13.0692 6.00033 12.8965 5.67851C12.4649 4.83779 11.8529 4.10293 11.104 3.52608C12.5356 3.06302 14.8708 2.73448 16.3683 4.72767C16.5247 4.93419 16.7862 5.03211 17.0397 4.97934C17.4152 4.89941 17.8377 4.83322 18.33 4.77648C18.6921 4.73469 18.9532 4.41012 18.9169 4.04772C18.8388 3.11274 18.5576 2.20583 18.093 1.39044C19.5923 1.51825 21.8826 2.11371 22.493 4.4998C22.5568 4.74963 22.7593 4.93998 23.0125 4.98879C23.4387 5.06841 23.8599 5.17182 24.2745 5.29781C24.4441 5.35028 24.6275 5.33289 24.7842 5.2493C24.9407 5.16603 25.0576 5.02326 25.1088 4.85335C25.3977 3.95864 25.4874 3.01147 25.3718 2.07832C26.7079 2.76377 28.6001 4.18651 28.2493 6.64643C28.2136 6.90023 28.3265 7.1522 28.5397 7.29466C28.9244 7.55151 29.2672 7.80317 29.5882 8.06368C29.8731 8.29521 30.2913 8.25251 30.5237 7.96851C31.136 7.24768 31.5813 6.40025 31.8281 5.48724C32.8037 6.63239 34.0031 8.66585 32.7341 10.8122C32.602 11.0352 32.6112 11.3143 32.7576 11.5284C32.9806 11.8533 33.196 12.2084 33.4373 12.6452C33.6133 12.9652 34.0141 13.0842 34.3359 12.9115C35.1733 12.4814 35.9057 11.8722 36.4816 11.1279C36.9359 12.5619 37.2568 14.9023 35.2868 16.383C35.0799 16.5388 34.9817 16.8003 35.0351 17.0538C35.115 17.4305 35.1815 17.8533 35.2386 18.345C35.2788 18.708 35.6046 18.9701 35.9676 18.9317C36.9026 18.8533 37.8092 18.572 38.6246 18.108C38.4971 19.6073 37.9016 21.8967 35.5152 22.5074C35.2651 22.5718 35.0745 22.7747 35.0259 23.0281C34.946 23.454 34.8429 23.8753 34.7169 24.2895C34.6645 24.4591 34.6822 24.6428 34.7654 24.7993C34.849 24.9557 34.9915 25.0726 35.1614 25.1238C36.0564 25.4121 37.0036 25.5015 37.9367 25.3859C37.2504 26.722 35.8264 28.6145 33.3683 28.2643C33.1145 28.2286 32.8628 28.3415 32.7201 28.5544C32.4663 28.9351 32.2146 29.2786 31.9511 29.6038C31.7195 29.8887 31.7622 30.3072 32.0465 30.5394C32.7683 31.151 33.6157 31.5967 34.5287 31.8444C33.3884 32.8181 31.3574 34.0184 29.2013 32.7476C28.9811 32.6177 28.7056 32.6253 28.4927 32.7677C28.0873 33.0383 27.7249 33.2583 27.3839 33.4401C27.2277 33.523 27.1109 33.6649 27.0593 33.8342C27.0077 34.0035 27.0257 34.1865 27.1093 34.3427C27.5404 35.1849 28.152 35.9219 28.9003 36.5012C27.4678 36.964 25.1296 37.2953 23.6321 35.3009C23.4765 35.0934 23.2145 34.9952 22.9607 35.0492C22.5833 35.1291 22.173 35.1938 21.6694 35.2524C21.3076 35.2942 21.0465 35.6187 21.0831 35.9811C21.1615 36.9201 21.4443 37.8303 21.9122 38.6482C20.4135 38.5298 18.1253 37.9432 17.5073 35.5287C17.4433 35.2786 17.2404 35.0879 16.9866 35.0394C16.5607 34.9601 16.1398 34.857 15.7255 34.731C15.5559 34.6786 15.3726 34.6963 15.2158 34.7795C15.0593 34.8631 14.9422 35.0056 14.8912 35.1755C14.6023 36.0705 14.5126 37.0177 14.6283 37.9508C13.2921 37.2651 11.3999 35.8426 11.7504 33.3827C11.7864 33.1286 11.6736 32.8766 11.4603 32.7342C11.0757 32.4773 10.7328 32.226 10.4119 31.9652C10.1273 31.7333 9.70844 31.776 9.47599 32.0603C8.86406 32.7821 8.41808 33.6292 8.16947 34.5419C7.19575 33.4019 5.99661 31.3715 7.26683 29.2154C7.398 28.9925 7.38854 28.7139 7.24273 28.5004C7.01943 28.1752 6.80407 27.8205 6.56308 27.3833C6.38676 27.0627 5.98532 26.9441 5.66349 27.1173C4.82491 27.5496 4.09188 28.1618 3.51717 28.9101C3.05258 27.4788 2.71916 25.1406 4.71296 23.6462C4.92039 23.4906 5.01893 23.2289 4.96524 22.9751C4.88531 22.5983 4.81881 22.1752 4.76146 21.6835C4.71967 21.3217 4.3951 21.0606 4.0327 21.0972C3.09773 21.1756 2.19112 21.4565 1.37573 21.9208C1.50294 20.4215 2.09839 18.1321 4.48479 17.5214Z" fill="black"/>
<path d="M19.9995 31.3447C26.256 31.3447 31.3281 26.2726 31.3281 20.0161C31.3281 13.7592 26.256 8.6875 19.9995 8.6875C13.7429 8.6875 8.6709 13.7592 8.6709 20.0161C8.67791 26.2696 13.7457 31.3377 19.9995 31.3447ZM19.9995 10.0203C25.52 10.0203 29.9953 14.4953 29.9953 20.0161C29.9953 25.5366 25.52 30.0119 19.9995 30.0119C14.479 30.0119 10.0037 25.5366 10.0037 20.0161C10.0098 14.4981 14.4815 10.0264 19.9995 10.0203Z" fill="black"/>
<path d="M19.9992 24.0144C22.2075 24.0144 23.9975 22.2244 23.9975 20.0162C23.9975 17.8079 22.2075 16.0176 19.9992 16.0176C17.791 16.0176 16.001 17.8079 16.001 20.0162C16.0034 22.2232 17.7919 24.012 19.9992 24.0144ZM19.9992 17.3506C21.4714 17.3506 22.6648 18.544 22.6648 20.0162C22.6648 21.4883 21.4714 22.6817 19.9992 22.6817C18.5271 22.6817 17.3337 21.4883 17.3337 20.0162C17.3353 18.5446 18.5277 17.3522 19.9992 17.3506Z" fill="black"/>
<path d="M23.3507 26.3624C23.5154 26.6916 23.9157 26.8249 24.2448 26.6605C26.6581 25.2636 28.1015 22.6479 27.9966 19.8615C27.9966 19.4937 27.6983 19.1953 27.3304 19.1953C26.9622 19.1953 26.6638 19.4937 26.6638 19.8615C26.7654 22.1433 25.6069 24.2966 23.6469 25.4692C23.319 25.6346 23.1866 26.0339 23.3507 26.3624Z" fill="black"/>
</g>
<defs>
<clipPath id="clip0">
<rect width="40" height="40" fill="white"/>
</clipPath>
</defs>
</svg>
