<svg width="40" height="29" viewBox="0 0 40 29" fill="none" xmlns="http://www.w3.org/2000/svg">
<path d="M39.2247 2.38813C39.222 2.38813 39.2194 2.38813 39.2169 2.38813H36.5885V1.48873C36.6026 1.13275 36.3724 0.812821 36.0302 0.713383C34.2055 0.23519 32.3264 -0.00458565 30.44 6.64105e-05C27.3386 6.64105e-05 23.113 0.697876 19.9884 3.87679C16.887 0.666862 12.6304 6.64105e-05 9.53673 6.64105e-05C7.65032 -0.00458565 5.77127 0.23519 3.9465 0.713383C3.60438 0.812821 3.3741 1.13275 3.38825 1.48873V2.38037H0.775344C0.34716 2.38037 0 2.72753 0 3.15572V27.9202C0 28.3484 0.34716 28.6955 0.775344 28.6955C0.908509 28.6952 1.03935 28.6605 1.15526 28.5948C1.2328 28.556 8.98624 24.3149 19.81 27.0441H19.9263H19.9961C20.058 27.0515 20.1204 27.0515 20.1822 27.0441C31.037 24.2916 38.7905 28.525 38.837 28.5948C39.0769 28.7332 39.3725 28.7332 39.6123 28.5948C39.8507 28.4571 39.9984 28.2033 40 27.928V3.16347C40 2.73529 39.6529 2.38813 39.2247 2.38813ZM1.55069 26.6874V3.93881H3.40376V23.3844C3.39891 23.8126 3.7421 24.1637 4.17028 24.1685C4.21215 24.169 4.25402 24.1661 4.29541 24.1598C5.8994 23.9149 7.5188 23.7853 9.14131 23.7721C11.3888 23.7332 13.627 24.0712 15.7627 24.7723C10.9396 24.1891 6.04739 24.8483 1.55069 26.6874ZM9.14131 22.2292C7.73105 22.2324 6.32245 22.323 4.92343 22.5005V2.10125C6.43303 1.76494 7.97461 1.5933 9.52122 1.58952C12.421 1.58952 16.4218 2.25632 19.1975 5.38871L19.2208 24.7025C17.6081 23.6481 14.4602 22.2292 9.14131 22.2292ZM20.7715 5.38871C23.5472 2.28733 27.548 1.58952 30.4478 1.58952C31.9943 1.59408 33.5359 1.76562 35.0456 2.10125V22.5005C33.6544 22.3213 32.2535 22.2281 30.8509 22.2214C25.5631 22.2214 22.4074 23.6403 20.7715 24.6948V5.38871ZM38.4416 26.6874C33.9353 24.8433 29.0318 24.1839 24.1985 24.7723C26.3443 24.0687 28.5931 23.7305 30.8509 23.7721C32.4836 23.7812 34.1135 23.9082 35.7279 24.152C36.1512 24.2163 36.5465 23.9251 36.6108 23.5018C36.6171 23.4604 36.62 23.4186 36.6195 23.3767V3.93881H38.4726L38.4416 26.6874Z" fill="#010101"/>
</svg>
