<svg width="16" height="16" viewBox="0 0 16 16" fill="none" xmlns="http://www.w3.org/2000/svg">
<path d="M15.7442 7.37752L9.96608 1.59923C9.80114 1.43429 9.58131 1.34375 9.3469 1.34375C9.11224 1.34375 8.89253 1.43442 8.72759 1.59923L8.20298 2.12397C8.03817 2.28865 7.94737 2.50862 7.94737 2.74315C7.94737 2.97756 8.03817 3.20494 8.20298 3.36962L11.5739 6.74793L0.864382 6.74793C0.381525 6.74793 0 7.12595 0 7.60893L0 8.35078C0 8.83377 0.381525 9.2499 0.864382 9.2499L11.6121 9.2499L8.20311 12.6471C8.0383 12.812 7.9475 13.026 7.9475 13.2605C7.9475 13.4948 8.0383 13.7119 8.20311 13.8767L8.72772 14.3998C8.89266 14.5647 9.11237 14.6546 9.34703 14.6546C9.58144 14.6546 9.80127 14.5635 9.96621 14.3986L15.7444 8.62044C15.9097 8.45498 16.0006 8.2341 16 7.9993C16.0005 7.76373 15.9097 7.54272 15.7442 7.37752Z" fill="#EC8B33"/>
</svg>
