<svg width="60" height="60" viewBox="0 0 60 60" fill="none" xmlns="http://www.w3.org/2000/svg">
<path d="M0 0H56C58.2091 0 60 1.79086 60 4V56C60 58.2091 58.2091 60 56 60H0V0Z" fill="#010101"/>
<g clip-path="url(#clip0)">
<path d="M27.2918 34.6758V38.5408C27.2918 38.8108 27.4651 39.0499 27.7218 39.1349C27.786 39.1558 27.8518 39.1658 27.9168 39.1658C28.1118 39.1658 28.3001 39.0741 28.4201 38.9108L30.681 35.8341L27.2918 34.6758Z" fill="white"/>
<path d="M39.7375 20.1159C39.5458 19.9801 39.2942 19.9617 39.0858 20.0709L20.3358 29.8626C20.1142 29.9784 19.9833 30.2151 20.0017 30.4642C20.0208 30.7142 20.1867 30.9276 20.4225 31.0084L25.635 32.7901L36.7358 23.2984L28.1458 33.6476L36.8817 36.6334C36.9467 36.6551 37.015 36.6667 37.0833 36.6667C37.1967 36.6667 37.3092 36.6359 37.4083 36.5759C37.5667 36.4792 37.6742 36.3167 37.7017 36.1342L39.9933 20.7176C40.0275 20.4842 39.9292 20.2526 39.7375 20.1159Z" fill="white"/>
</g>
<defs>
<clipPath id="clip0">
<path d="M20 20H40V40H20V20Z" fill="white"/>
</clipPath>
</defs>
</svg>
