<svg width="20" height="20" viewBox="0 0 20 20" fill="none" xmlns="http://www.w3.org/2000/svg">
<path d="M19.2417 9.31076H7.17269C6.79179 9.31076 6.48303 9.61952 6.48303 10.0004C6.48303 10.3813 6.79179 10.6901 7.17269 10.6901H19.2417C19.6226 10.6901 19.9313 10.3813 19.9313 10.0004C19.9313 9.61952 19.6226 9.31076 19.2417 9.31076Z" fill="#EC8B33"/>
<path d="M1.7932 11.7244C2.7454 11.7244 3.51731 10.9525 3.51731 10.0003C3.51731 9.0481 2.7454 8.27618 1.7932 8.27618C0.841002 8.27618 0.0690918 9.0481 0.0690918 10.0003C0.0690918 10.9525 0.841002 11.7244 1.7932 11.7244Z" fill="#EC8B33"/>
<path d="M7.17269 2.41392H19.2417C19.6226 2.41392 19.9313 2.10516 19.9313 1.72426C19.9313 1.34337 19.6226 1.03461 19.2417 1.03461H7.17269C6.79179 1.03461 6.48303 1.34337 6.48303 1.72426C6.48303 2.10516 6.79186 2.41392 7.17269 2.41392Z" fill="#EC8B33"/>
<path d="M1.7932 3.44822C2.7454 3.44822 3.51731 2.67631 3.51731 1.72411C3.51731 0.771911 2.7454 0 1.7932 0C0.841002 0 0.0690918 0.771911 0.0690918 1.72411C0.0690918 2.67631 0.841002 3.44822 1.7932 3.44822Z" fill="#EC8B33"/>
<path d="M19.2417 17.586H7.17269C6.79179 17.586 6.48303 17.8948 6.48303 18.2757C6.48303 18.6566 6.79179 18.9653 7.17269 18.9653H19.2417C19.6226 18.9653 19.9313 18.6566 19.9313 18.2757C19.9313 17.8948 19.6226 17.586 19.2417 17.586Z" fill="#EC8B33"/>
<path d="M1.7932 19.9997C2.7454 19.9997 3.51731 19.2278 3.51731 18.2756C3.51731 17.3234 2.7454 16.5515 1.7932 16.5515C0.841002 16.5515 0.0690918 17.3234 0.0690918 18.2756C0.0690918 19.2278 0.841002 19.9997 1.7932 19.9997Z" fill="#EC8B33"/>
</svg>
