<svg width="20" height="20" viewBox="0 0 20 20" fill="none" xmlns="http://www.w3.org/2000/svg">
<g clip-path="url(#clip0)">
<path d="M19.1529 7.28396C18.8266 6.95938 18.299 6.96083 17.9744 7.28712L7.95667 17.359C6.65699 18.6587 4.54612 18.6587 3.24402 17.3573C1.94289 16.0555 1.94289 13.9446 3.24417 12.6433L13.5584 2.2749C14.3699 1.46351 15.6891 1.46351 16.5028 2.27665C17.3164 3.09019 17.3164 4.40924 16.5026 5.22301L7.95823 13.7674C7.95768 13.7679 7.95721 13.7685 7.95667 13.7691C7.63115 14.0928 7.10508 14.0924 6.78023 13.7675C6.45483 13.4421 6.45483 12.9147 6.78023 12.5893L10.9045 8.46414C11.2299 8.13867 11.2299 7.611 10.9044 7.2856C10.579 6.9602 10.0513 6.96024 9.72589 7.28572L5.60161 11.4108C4.62538 12.387 4.62538 13.9697 5.60169 14.946C6.57796 15.9223 8.16066 15.9223 9.13697 14.946C9.1381 14.9449 9.139 14.9437 9.14009 14.9425L17.6812 6.40148C19.1458 4.93683 19.1458 2.56248 17.6812 1.09784C16.2163 -0.365946 13.8421 -0.365946 12.3783 1.09784L2.06407 11.4664C0.113476 13.417 0.113475 16.5829 2.06547 18.5358C4.01876 20.4881 7.1847 20.4881 9.13681 18.536L19.1561 8.4625C19.4807 8.13617 19.4792 7.60854 19.1529 7.28396Z" fill="#010101"/>
</g>
<defs>
<clipPath id="clip0">
<rect width="20" height="20" fill="white"/>
</clipPath>
</defs>
</svg>
