<svg width="20" height="20" viewBox="0 0 20 20" fill="none" xmlns="http://www.w3.org/2000/svg">
<g clip-path="url(#clip0)">
<path d="M10.0001 7.27283C8.49554 7.27283 7.27283 8.49554 7.27283 10.0001C7.27283 11.5046 8.49554 12.7274 10.0001 12.7274C11.5046 12.7274 12.7274 11.5046 12.7274 10.0001C12.7274 8.49554 11.5046 7.27283 10.0001 7.27283Z" fill="#CA782E"/>
<path d="M10 3.18188C5.45455 3.18188 1.57274 6.00913 0 10.0001C1.57274 13.991 5.45455 16.8183 10 16.8183C14.55 16.8183 18.4273 13.991 20 10.0001C18.4273 6.00913 14.55 3.18188 10 3.18188ZM10 14.5455C7.49093 14.5455 5.45455 12.5091 5.45455 10C5.45455 7.49094 7.49093 5.4546 10 5.4546C12.5091 5.4546 14.5455 7.49098 14.5455 10.0001C14.5455 12.5092 12.5091 14.5455 10 14.5455Z" fill="#CA782E"/>
</g>
<defs>
<clipPath id="clip0">
<rect width="20" height="20" fill="white"/>
</clipPath>
</defs>
</svg>
