<svg width="20" height="20" viewBox="0 0 20 20" fill="none" xmlns="http://www.w3.org/2000/svg">
<g clip-path="url(#clip0)">
<path d="M10.0001 7.27344C8.49552 7.27344 7.27281 8.49615 7.27281 10.0007C7.27281 11.5053 8.49552 12.728 10.0001 12.728C11.5046 12.728 12.7273 11.5053 12.7273 10.0007C12.7273 8.49615 11.5046 7.27344 10.0001 7.27344Z" fill="#EC8B33"/>
<path d="M10 3.18164C5.45455 3.18164 1.57274 6.00889 0 9.99983C1.57274 13.9907 5.45455 16.818 10 16.818C14.55 16.818 18.4273 13.9907 20 9.99983C18.4273 6.00889 14.55 3.18164 10 3.18164ZM10 14.5453C7.49093 14.5453 5.45455 12.5089 5.45455 9.99978C5.45455 7.49069 7.49093 5.45436 10 5.45436C12.5091 5.45436 14.5455 7.49073 14.5455 9.99983C14.5455 12.5089 12.5091 14.5453 10 14.5453Z" fill="#EC8B33"/>
</g>
<defs>
<clipPath id="clip0">
<rect width="20" height="20" fill="white"/>
</clipPath>
</defs>
</svg>
