<svg width="221" height="27" viewBox="0 0 221 27" fill="none" xmlns="http://www.w3.org/2000/svg">
<path d="M24.0684 26H15.1035L12.0098 19.3379C11.2715 17.7676 10.6973 16.7891 10.2871 16.4023C9.87695 16.0039 9.30859 15.8047 8.58203 15.8047V26H0.636719V0.230469H8.58203V10.127C9.27344 10.0918 9.8125 9.8457 10.1992 9.38867C10.5859 8.93164 11.1895 7.61914 12.0098 5.45117C12.6074 3.8457 13.2109 2.69727 13.8203 2.00586C14.4297 1.30273 15.4199 0.798828 16.791 0.494141C18.1621 0.189453 20.3125 0.0371094 23.2422 0.0371094V5.48633H22.8379C21.4785 5.48633 20.4707 5.74414 19.8145 6.25977C19.1582 6.77539 18.6191 7.61328 18.1973 8.77344C17.7754 9.92188 17.3184 10.7832 16.8262 11.3574C16.3457 11.9199 15.6836 12.3711 14.8398 12.7109C15.9883 13.0859 16.9902 13.7363 17.8457 14.6621C18.7012 15.5762 19.6094 17.0059 20.5703 18.9512L24.0684 26ZM42.7891 21.7461H33.7188L32.4707 26H24.332L34.0176 0.230469H42.7012L52.3867 26H44.0547L42.7891 21.7461ZM41.1191 16.1738L38.2715 6.91016L35.4414 16.1738H41.1191ZM78.6309 26H70.668V6.55859H64.4453V14.4863C64.4453 17.7441 64.2695 20.1406 63.918 21.6758C63.5781 23.1992 62.7695 24.3184 61.4922 25.0332C60.2266 25.748 58.1758 26.1055 55.3398 26.1055C54.4727 26.1055 53.4766 26.0117 52.3516 25.8242V20.6035H53.5469C54.625 20.6035 55.3867 20.3691 55.832 19.9004C56.2773 19.4199 56.5 18.5469 56.5 17.2812V0.230469H78.6309V26ZM83.9043 0.230469H105.244V5.73242H91.8848V9.82812H104.277V15.084H91.8848V20.1641H105.631V26H83.9043V0.230469ZM109.955 0.230469H124.861C127.346 0.230469 129.25 0.845703 130.574 2.07617C131.91 3.30664 132.578 4.83008 132.578 6.64648C132.578 8.16992 132.104 9.47656 131.154 10.5664C130.521 11.293 129.596 11.8672 128.377 12.2891C130.229 12.7344 131.588 13.502 132.455 14.5918C133.334 15.6699 133.773 17.0293 133.773 18.6699C133.773 20.0059 133.463 21.207 132.842 22.2734C132.221 23.3398 131.371 24.1836 130.293 24.8047C129.625 25.1914 128.617 25.4727 127.27 25.6484C125.477 25.8828 124.287 26 123.701 26H109.955V0.230469ZM117.988 10.3379H121.451C122.693 10.3379 123.555 10.127 124.035 9.70508C124.527 9.27148 124.773 8.65039 124.773 7.8418C124.773 7.0918 124.527 6.50586 124.035 6.08398C123.555 5.66211 122.711 5.45117 121.504 5.45117H117.988V10.3379ZM117.988 20.4629H122.049C123.42 20.4629 124.387 20.2227 124.949 19.7422C125.512 19.25 125.793 18.5938 125.793 17.7734C125.793 17.0117 125.512 16.4023 124.949 15.9453C124.398 15.4766 123.426 15.2422 122.031 15.2422H117.988V20.4629ZM153.812 21.7461H144.742L143.494 26H135.355L145.041 0.230469H153.725L163.41 26H155.078L153.812 21.7461ZM152.143 16.1738L149.295 6.91016L146.465 16.1738H152.143ZM189.654 26H181.691V6.55859H175.469V14.4863C175.469 17.7441 175.293 20.1406 174.941 21.6758C174.602 23.1992 173.793 24.3184 172.516 25.0332C171.25 25.748 169.199 26.1055 166.363 26.1055C165.496 26.1055 164.5 26.0117 163.375 25.8242V20.6035H164.57C165.648 20.6035 166.41 20.3691 166.855 19.9004C167.301 19.4199 167.523 18.5469 167.523 17.2812V0.230469H189.654V26ZM210.801 21.7461H201.73L200.482 26H192.344L202.029 0.230469H210.713L220.398 26H212.066L210.801 21.7461ZM209.131 16.1738L206.283 6.91016L203.453 16.1738H209.131Z" fill="white"/>
</svg>
