<svg width="199" height="40" viewBox="0 0 199 40" fill="none" xmlns="http://www.w3.org/2000/svg">
<g clip-path="url(#clip0)">
<path d="M37.6961 18.9704C40.2951 18.9704 42.402 16.8635 42.402 14.2645C42.402 11.6655 40.2951 9.55859 37.6961 9.55859C35.0971 9.55859 32.9902 11.6655 32.9902 14.2645C32.9902 16.8635 35.0971 18.9704 37.6961 18.9704Z" fill="#F79224"/>
<path d="M42.402 20.0978V14.2645H37.6961V9.55859H32.9902V20.0978H42.402Z" fill="#F79224"/>
<path d="M15.8823 20.195C18.4813 20.195 20.5882 18.0881 20.5882 15.4891C20.5882 12.8901 18.4813 10.7832 15.8823 10.7832C13.2833 10.7832 11.1765 12.8901 11.1765 15.4891C11.1765 18.0881 13.2833 20.195 15.8823 20.195Z" fill="white"/>
<path d="M15.8823 28.234C18.4813 28.234 20.5882 26.1271 20.5882 23.5281C20.5882 20.9292 18.4813 18.8223 15.8823 18.8223C13.2833 18.8223 11.1765 20.9292 11.1765 23.5281C11.1765 26.1271 13.2833 28.234 15.8823 28.234Z" fill="white"/>
<path d="M59.755 18.8708C62.354 18.8708 64.4609 16.7639 64.4609 14.1649C64.4609 11.5659 62.354 9.45898 59.755 9.45898C57.156 9.45898 55.0491 11.5659 55.0491 14.1649C55.0491 16.7639 57.156 18.8708 59.755 18.8708Z" fill="white"/>
<path d="M64.4608 21.2235V14.1647H59.755V9.50781H55.0981V21.2235H64.4608Z" fill="white"/>
<path d="M75.8333 9.50977H66.4705V30.5882H75.8333V9.50977Z" fill="white"/>
<path d="M49.3136 18.8708C51.9126 18.8708 54.0195 16.7639 54.0195 14.1649C54.0195 11.5659 51.9126 9.45898 49.3136 9.45898C46.7146 9.45898 44.6077 11.5659 44.6077 14.1649C44.6077 16.7639 46.7146 18.8708 49.3136 18.8708Z" fill="white"/>
<path d="M44.6077 21.2235V14.1647H49.3136V9.50781H53.9705V21.2235H44.6077Z" fill="white"/>
<path d="M81.9118 18.8708C84.5107 18.8708 86.6176 16.7639 86.6176 14.1649C86.6176 11.5659 84.5107 9.45898 81.9118 9.45898C79.3128 9.45898 77.2059 11.5659 77.2059 14.1649C77.2059 16.7639 79.3128 18.8708 81.9118 18.8708Z" fill="white"/>
<path d="M37.6961 18.9704C40.2951 18.9704 42.402 16.8635 42.402 14.2645C42.402 11.6655 40.2951 9.55859 37.6961 9.55859C35.0971 9.55859 32.9902 11.6655 32.9902 14.2645C32.9902 16.8635 35.0971 18.9704 37.6961 18.9704Z" fill="white"/>
<path d="M42.402 20.0978V14.2645H37.6961V9.55859H32.9902V20.0978H42.402Z" fill="white"/>
<path d="M93.2843 18.9704C95.8833 18.9704 97.9902 16.8635 97.9902 14.2645C97.9902 11.6655 95.8833 9.55859 93.2843 9.55859C90.6854 9.55859 88.5785 11.6655 88.5785 14.2645C88.5785 16.8635 90.6854 18.9704 93.2843 18.9704Z" fill="white"/>
<path d="M88.6275 21.3233V14.2645H93.2843V9.55859H97.9902V21.3233H88.6275Z" fill="white"/>
<path d="M104.02 18.9215C106.619 18.9215 108.726 16.8146 108.726 14.2156C108.726 11.6167 106.619 9.50977 104.02 9.50977C101.421 9.50977 99.3138 11.6167 99.3138 14.2156C99.3138 16.8146 101.421 18.9215 104.02 18.9215Z" fill="white"/>
<path d="M108.726 21.2745V14.2156H104.02V9.50977H99.3138V21.2745H108.726Z" fill="white"/>
<path d="M142.549 9.50977H133.186V40H142.549V9.50977Z" fill="white"/>
<path d="M141.667 10.5391H134.069V38.9704H141.667V10.5391Z" fill="white"/>
<path d="M120.196 18.9199H110.931V19.2631H120.196V18.9199Z" fill="#F79224"/>
<path d="M116.127 22.5479C117.206 22.744 118.333 22.9891 119.265 23.2342C118.431 22.0578 117.01 21.2734 115.49 21.2734C114.706 21.2734 113.922 21.4695 113.284 21.8127C114.02 22.1558 114.951 22.4009 116.127 22.5479Z" fill="#F79224"/>
<path d="M120.147 24.2637H110.784V26.3225H120.147V24.2637Z" fill="white"/>
<path d="M131.029 15.7333V14.2137H126.324V9.50781H121.618V15.4882C124.951 15.4392 131.029 15.7333 131.029 15.7333Z" fill="white"/>
<path d="M130.735 15.6845C130.882 15.1943 130.98 14.7041 130.98 14.1649C130.98 11.5668 128.873 9.45898 126.275 9.45898C123.677 9.45898 121.569 11.5668 121.569 14.1649C121.569 14.606 121.618 15.0472 121.765 15.4394C124.755 15.4394 129.608 15.6355 130.735 15.6845Z" fill="white"/>
<path d="M130.98 13.8223H121.618V15.8811H130.98V13.8223Z" fill="white"/>
<path d="M160.735 9.50977C158.284 9.50977 156.226 11.4215 156.079 13.8725V14.2156V15.7353V15.9313H165.441V15.5392V13.9215V9.55879H160.735V9.50977Z" fill="white"/>
<path d="M20.5882 30.5392V23.5294H17.2549V15.8333H20.5882V9.50977H11.2255V30.5392H20.5882Z" fill="white"/>
<path d="M86.5686 30.5392V14.1666H81.9118V9.50977H77.2059V30.5392H86.5686Z" fill="white"/>
<path d="M93.2845 30.5393H97.9903V18.9707H88.6276V26.0295H93.2845V30.5393Z" fill="white"/>
<path d="M104.02 30.5376V25.9787H108.726V18.9199H99.3138V30.5376H104.02Z" fill="white"/>
<path d="M115.49 30.5376H120.196V24.6553C116.863 24.7043 110.833 24.4102 110.833 24.4102V25.9788H115.539V30.5376H115.49Z" fill="white"/>
<path d="M115.49 18.9215C118.089 18.9215 120.196 16.8146 120.196 14.2156C120.196 11.6167 118.089 9.50977 115.49 9.50977C112.891 9.50977 110.784 11.6167 110.784 14.2156C110.784 16.8146 112.891 18.9215 115.49 18.9215Z" fill="white"/>
<path d="M116.127 22.5491C117.549 22.8432 119.02 23.1373 120.196 23.4805V20.9805H111.912C112.696 21.6667 114.02 22.353 116.127 22.5491Z" fill="white"/>
<path d="M115.49 9.50977V14.2156H110.784V18.9215C110.784 19.5098 111.177 20.4902 112.304 21.2745H120.196V9.50977H115.49Z" fill="white"/>
<path d="M125.686 17.5974C124.265 17.3033 122.794 17.0092 121.618 16.666V19.166H129.902C129.068 18.4797 127.745 17.7935 125.686 17.5974Z" fill="white"/>
<path d="M120.147 23.4796C121.324 23.8227 121.618 24.46 121.618 24.46L122.99 23.2345L119.608 22.2051C119.657 22.2051 119.02 23.1365 120.147 23.4796Z" fill="white"/>
<path d="M121.618 16.6659C120.441 16.3228 120.147 15.6855 120.147 15.6855L118.775 16.911L122.157 17.9404C122.108 17.9404 122.794 17.0091 121.618 16.6659Z" fill="white"/>
<path d="M118.284 15.6855L122.696 17.6953L123.284 21.3228L122.304 23.6757L120.147 23.2346L118.284 21.2248V15.6855Z" fill="white"/>
<path d="M126.323 30.5378V25.9299H131.029V21.224C131.029 20.6358 130.637 19.6554 129.51 18.8711H121.618V30.5378H126.323Z" fill="white"/>
<path d="M176.323 9.50977H166.961V30.5882H176.323V9.50977Z" fill="white"/>
<path d="M187.794 9.50977H178.431V30.5882H187.794V9.50977Z" fill="white"/>
<path d="M194.02 9.50977H189.314V30.5882H198.676V14.1666C198.676 11.5686 196.618 9.50977 194.02 9.50977Z" fill="white"/>
<path d="M129.853 14.7547V13.7253H126.226V10.5391H122.549V14.6077C125.147 14.5587 129.853 14.7547 129.853 14.7547Z" fill="white"/>
<path d="M129.657 14.7547C129.804 14.4116 129.853 14.0685 129.853 13.7253C129.853 11.9606 128.235 10.5391 126.226 10.5391C124.216 10.5391 122.598 11.9606 122.598 13.7253C122.598 14.0195 122.647 14.3136 122.745 14.6077C125 14.5587 128.726 14.7057 129.657 14.7547Z" fill="white"/>
<path d="M129.804 13.4805H122.549V14.853H129.804V13.4805Z" fill="white"/>
<path d="M59.7548 30.5378V25.9299H64.4607V18.8711H55.0979V30.5378H59.7548Z" fill="white"/>
<path d="M49.3136 30.5378H53.9705V18.8711H44.6077V25.9299H49.3136V30.5378Z" fill="white"/>
<path d="M31.7155 9.50977H22.3528V30.5882H31.7155V9.50977Z" fill="white"/>
<path d="M9.36275 0.195312H0V30.5385H9.36275V0.195312Z" fill="white"/>
<path d="M175.441 10.3906H167.843V29.5083H175.441V10.3906Z" fill="white"/>
<path d="M186.912 10.3906H179.314V29.5083H186.912V10.3906Z" fill="white"/>
<path d="M194.02 10.3906H190.196V29.5083H197.794V14.6553C197.794 12.3024 196.127 10.3906 194.02 10.3906Z" fill="white"/>
<path d="M160.833 10.3906C158.921 10.3906 157.304 11.8122 157.157 13.5769V13.822V14.9494V15.0965H164.51V14.8024V13.6259V10.4396H160.833V10.3906Z" fill="white"/>
<path d="M163.873 17.3518H162.941H160.735C158.922 17.3518 157.353 18.3812 156.569 19.9008C156.226 20.44 156.079 20.9302 156.079 21.2733V25.9792C156.079 28.2341 157.647 30.0969 159.755 30.538H161.716H162.255H165.441V19.2145V18.8714V17.3027H163.873V17.3518Z" fill="white"/>
<path d="M163.235 18.2832H162.5H160.784C159.314 18.2832 158.088 19.1656 157.451 20.4401C157.157 20.8812 157.059 21.3224 157.059 21.6165V25.5871C157.059 27.4989 158.333 29.1165 160 29.5087H161.569H162.01H164.51V19.9008V19.6067V18.2832H163.235Z" fill="white"/>
<path d="M49.3136 21.2246C46.7156 21.2246 44.6077 23.3325 44.6077 25.9305C44.6077 28.2344 46.2744 30.1952 48.5293 30.5383H50.0979C52.3038 30.1462 54.0195 28.2344 54.0195 25.9305C53.9705 23.3325 51.8626 21.2246 49.3136 21.2246Z" fill="white"/>
<path d="M59.7548 21.2246C57.1568 21.2246 55.0489 23.3325 55.0489 25.9305C55.0489 28.2344 56.7156 30.1952 58.9705 30.5383H60.5391C62.745 30.1462 64.4607 28.2344 64.4607 25.9305C64.4607 23.3325 62.3528 21.2246 59.7548 21.2246Z" fill="white"/>
<path d="M93.2841 21.3242C90.6861 21.3242 88.5782 23.4321 88.5782 26.0301C88.5782 28.187 90.0488 30.0007 92.0586 30.5399H94.4606C96.4704 30.0007 97.941 28.187 97.941 26.0301C97.99 23.4321 95.8821 21.3242 93.2841 21.3242Z" fill="white"/>
<path d="M104.019 21.2754C101.421 21.2754 99.3136 23.3832 99.3136 25.9813C99.3136 28.2362 100.882 30.0989 102.99 30.5401H104.951C107.059 30.0989 108.627 28.1872 108.627 25.9813C108.725 23.3832 106.617 21.2754 104.019 21.2754Z" fill="white"/>
<path d="M119.951 24.6572C117.01 24.7062 112.157 24.4611 111.029 24.4121C110.882 24.9023 110.784 25.3925 110.784 25.9317C110.784 28.1866 112.353 30.0494 114.461 30.4905H116.421C118.529 30.0494 120.098 28.1376 120.098 25.9317C120.147 25.5396 120.098 25.0984 119.951 24.6572Z" fill="white"/>
<path d="M126.323 21.2246C123.725 21.2246 121.618 23.3325 121.618 25.9305C121.618 28.2344 123.284 30.1952 125.539 30.5383H127.108C129.314 30.1462 131.029 28.2344 131.029 25.9305C131.029 23.3325 128.921 21.2246 126.323 21.2246Z" fill="white"/>
<path d="M149.019 9.50977H144.314V18.8725V21.2255V30.4902H147.157H148.039H150C152.108 30.049 153.676 28.1372 153.676 25.9313V21.2255V18.8725V14.2156C153.725 11.6176 151.617 9.50977 149.019 9.50977Z" fill="white"/>
<path d="M111.912 25.3418V26.3712H115.539V29.5575H119.167V25.4889C116.569 25.5379 111.912 25.3418 111.912 25.3418Z" fill="white"/>
<path d="M112.108 25.3418C111.961 25.6849 111.912 26.0281 111.912 26.3712C111.912 28.1359 113.529 29.5575 115.539 29.5575C117.549 29.5575 119.167 28.1359 119.167 26.3712C119.167 26.0771 119.118 25.783 119.02 25.4889C116.765 25.4889 112.99 25.3908 112.108 25.3418Z" fill="white"/>
<path d="M119.167 25.1953H111.912V26.5679H119.167V25.1953Z" fill="white"/>
<path d="M125.098 18.5293C119.951 17.5979 119.51 16.9116 119.166 16.1763C119.166 15.392 119.166 10.5391 119.166 10.5391H116.127C113.823 10.5391 111.912 12.4508 111.912 14.8038C111.912 14.8038 111.814 18.8724 111.912 19.0685C112.892 21.1763 115.735 21.5685 117.304 21.7155C119.363 22.2057 122.549 22.6959 122.598 24.1175C122.598 24.4116 122.598 29.6567 122.598 29.6567H124.461H125.196H126.617C128.627 29.3136 130.098 27.5489 130.098 25.441V21.1763C129.608 19.3136 126.666 18.6763 125.098 18.5293Z" fill="white"/>
<path d="M149.069 10.6855H145.343V19.1169V21.2248V29.5581H146.079H148.333H149.902C151.569 29.1659 152.843 27.4503 152.843 25.4404V21.2248V19.1169V14.9012C152.843 12.5483 151.128 10.6855 149.069 10.6855Z" fill="white"/>
</g>
<defs>
<clipPath id="clip0">
<rect width="198.676" height="40" fill="white"/>
</clipPath>
</defs>
</svg>
