<svg width="72" height="28" viewBox="0 0 72 28" fill="none" xmlns="http://www.w3.org/2000/svg">
<path d="M71.8915 12.5823L69.9018 9.29032C69.4315 8.53062 68.5995 8.06034 67.7313 8.09652H62.5943V6.43243C62.5943 5.16628 61.5452 4.11719 60.2791 4.11719H46.3152C45.0491 4.11719 44 5.16628 44 6.43243V18.9492C44 20.2154 45.0491 21.2645 46.3152 21.2645H47.509C48.0155 23.1456 49.8605 24.2671 51.7416 23.7606C52.9716 23.435 53.9483 22.4945 54.2377 21.2645H62.9199C63.4264 23.1456 65.2713 24.2671 67.1525 23.7606C68.3824 23.435 69.3592 22.4945 69.6486 21.2645H71.1318C71.6382 21.2645 72 20.9027 72 20.3963V13.0526C72 12.8717 71.9277 12.727 71.8915 12.5823ZM50.8734 22.1327C49.8966 22.1327 49.1008 21.373 49.1008 20.3601C49.1008 19.3833 49.8605 18.5875 50.8734 18.5875C51.8501 18.5875 52.646 19.3472 52.646 20.3601C52.646 21.373 51.8501 22.1327 50.8734 22.1327ZM66.3566 22.1327C65.3798 22.1327 64.584 21.373 64.584 20.3601C64.584 19.3833 65.3437 18.5875 66.3566 18.5875C67.3333 18.5875 68.1292 19.3472 68.1292 20.3601C68.093 21.373 67.3333 22.1327 66.3566 22.1327ZM62.5943 12.2205V9.83295H67.6951C67.9845 9.83295 68.2739 9.97765 68.4548 10.2309L69.6848 12.2205H62.5943Z" fill="white"/>
<path d="M40 13.3333C40 5.96954 34.0305 0 26.6667 0H12C5.37259 0 0 5.37258 0 12C0 18.6274 5.37259 24 12 24H40V13.3333Z" fill="#EC8B33"/>
<path d="M13.3151 17V7.074H12.4051C12.3397 7.44733 12.2184 7.75533 12.0411 7.998C11.8637 8.24067 11.6444 8.432 11.3831 8.572C11.1311 8.712 10.8464 8.81 10.5291 8.866C10.2117 8.91267 9.88505 8.936 9.54905 8.936V9.888H12.1251V17H13.3151ZM16.7264 10.588H17.9164C17.907 10.2893 17.935 9.99533 18.0004 9.706C18.075 9.40733 18.1917 9.14133 18.3504 8.908C18.509 8.67467 18.7097 8.488 18.9524 8.348C19.2044 8.19867 19.503 8.124 19.8484 8.124C20.1097 8.124 20.357 8.166 20.5904 8.25C20.8237 8.334 21.0244 8.45533 21.1924 8.614C21.3697 8.77267 21.5097 8.964 21.6124 9.188C21.715 9.40267 21.7664 9.64533 21.7664 9.916C21.7664 10.2613 21.7104 10.5647 21.5984 10.826C21.4957 11.0873 21.337 11.33 21.1224 11.554C20.917 11.778 20.6557 12.002 20.3384 12.226C20.021 12.4407 19.6524 12.6787 19.2324 12.94C18.887 13.1453 18.5557 13.3647 18.2384 13.598C17.921 13.8313 17.6364 14.102 17.3844 14.41C17.1324 14.718 16.9224 15.082 16.7544 15.502C16.5957 15.9127 16.493 16.412 16.4464 17H22.9284V15.95H17.8324C17.8884 15.642 18.005 15.3713 18.1824 15.138C18.369 14.8953 18.5884 14.6713 18.8404 14.466C19.1017 14.2607 19.3864 14.0693 19.6944 13.892C20.0024 13.7053 20.3104 13.5187 20.6184 13.332C20.9264 13.136 21.225 12.9307 21.5144 12.716C21.8037 12.5013 22.0604 12.2633 22.2844 12.002C22.5084 11.7313 22.6857 11.428 22.8164 11.092C22.9564 10.756 23.0264 10.3687 23.0264 9.93C23.0264 9.46333 22.9424 9.05267 22.7744 8.698C22.6157 8.34333 22.3964 8.04933 22.1164 7.816C21.8364 7.57333 21.505 7.39133 21.1224 7.27C20.749 7.13933 20.3477 7.074 19.9184 7.074C19.3957 7.074 18.929 7.16267 18.5184 7.34C18.1077 7.51733 17.7624 7.76467 17.4824 8.082C17.2117 8.39 17.011 8.75867 16.8804 9.188C16.7497 9.61733 16.6984 10.084 16.7264 10.588ZM31.0156 8.264V7.242H24.5896V8.362H29.7976C29.275 8.91267 28.785 9.51467 28.3276 10.168C27.8796 10.8213 27.483 11.5167 27.1376 12.254C26.7923 12.982 26.5076 13.7473 26.2836 14.55C26.069 15.3433 25.9336 16.16 25.8776 17H27.2076C27.2543 16.2253 27.385 15.4273 27.5996 14.606C27.8143 13.7847 28.0896 12.9867 28.4256 12.212C28.771 11.4373 29.163 10.7093 29.6016 10.028C30.0403 9.34667 30.5116 8.75867 31.0156 8.264Z" fill="#010101"/>
</svg>
