<svg width="80" height="80" viewBox="0 0 80 80" fill="none" xmlns="http://www.w3.org/2000/svg">
<circle cx="40" cy="40" r="40" fill="#EC8B33"/>
<path d="M31.2067 20L29.7014 21.5053C29.586 21.4399 29.4562 21.4044 29.3237 21.4019H21.1113C20.6577 21.4019 20.29 21.7696 20.29 22.2231V30.4355C20.29 30.889 20.6577 31.2567 21.1113 31.2567H29.3237C29.7772 31.2567 30.1449 30.889 30.1449 30.4355V23.3843L32.368 21.1612L31.2067 20ZM28.5024 29.6142H21.9325V23.0443H28.1624L25.2175 25.9893L24.1556 24.9274L22.9944 26.0886L24.6368 27.7311C24.9575 28.0517 25.4774 28.0517 25.7981 27.7311L28.5024 25.0268V29.6142Z" fill="white"/>
<path d="M31.2067 34.7832L29.7014 36.2885C29.586 36.2231 29.4562 36.1876 29.3237 36.1851H21.1113C20.6577 36.1851 20.29 36.5528 20.29 37.0063V45.2187C20.29 45.6722 20.6577 46.0399 21.1113 46.0399H29.3237C29.7772 46.0399 30.1449 45.6722 30.1449 45.2187V38.1675L32.368 35.9444L31.2067 34.7832ZM28.5024 44.3974H21.9325V37.8275H28.1624L25.2175 40.7725L24.1556 39.7106L22.9944 40.8719L24.6368 42.5143C24.9575 42.8349 25.4774 42.8349 25.7981 42.5143L28.5024 39.81V44.3974Z" fill="white"/>
<path d="M31.2067 48.7441L29.7014 50.2495C29.586 50.1841 29.4562 50.1486 29.3237 50.146H21.1113C20.6577 50.146 20.29 50.5137 20.29 50.9672V59.1796C20.29 59.6331 20.6577 60.0008 21.1113 60.0008H29.3237C29.7772 60.0008 30.1449 59.6331 30.1449 59.1796V52.1285L32.368 49.9054L31.2067 48.7441ZM28.5024 58.3584H21.9325V51.7885H28.1624L25.2175 54.7334L24.1556 53.6716L22.9944 54.8328L24.6368 56.4753C24.9575 56.7959 25.4774 56.7959 25.7981 56.4753L28.5024 53.7709V58.3584Z" fill="white"/>
<path d="M59.7094 27.9707H35.8936V29.6132H59.7094V27.9707Z" fill="white"/>
<path d="M59.7094 23.0449H35.8936V24.6874H59.7094V23.0449Z" fill="white"/>
<path d="M59.7094 42.7539H35.8936V44.3964H59.7094V42.7539Z" fill="white"/>
<path d="M59.7094 37.8262H35.8936V39.4686H59.7094V37.8262Z" fill="white"/>
<path d="M59.7094 56.7148H35.8936V58.3573H59.7094V56.7148Z" fill="white"/>
<path d="M59.7094 51.7871H35.8936V53.4296H59.7094V51.7871Z" fill="white"/>
</svg>
