<svg width="12" height="12" viewBox="0 0 12 12" fill="none" xmlns="http://www.w3.org/2000/svg">
<g clip-path="url(#clip0)">
<path d="M0.171191 1.00109C-0.0538086 0.776093 -0.0538086 0.401617 0.171191 0.16875C0.404059 -0.05625 0.770667 -0.05625 1.00353 0.16875L5.99811 5.17172L11.0011 0.16875C11.2261 -0.05625 11.6006 -0.05625 11.825 0.16875C12.0579 0.401617 12.0579 0.776617 11.825 1.00109L6.83046 5.9962L11.825 10.9992C12.0579 11.2242 12.0579 11.5986 11.825 11.8315C11.6 12.0565 11.2256 12.0565 11.0011 11.8315L5.99811 6.82854L1.00353 11.8315C0.770667 12.0565 0.404059 12.0565 0.171191 11.8315C-0.0538086 11.5986 -0.0538086 11.2236 0.171191 10.9992L5.16577 5.9962L0.171191 1.00109Z" fill="#60605F"/>
</g>
<defs>
<clipPath id="clip0">
<rect width="12" height="12" fill="white"/>
</clipPath>
</defs>
</svg>
