<svg width="20" height="20" viewBox="0 0 20 20" fill="none" xmlns="http://www.w3.org/2000/svg">
<g clip-path="url(#clip0)">
<path d="M17.7083 20H2.29167C1.0275 20 0 18.9725 0 17.7083V2.29167C0 1.0275 1.0275 0 2.29167 0H17.7083C18.9725 0 20 1.0275 20 2.29167V17.7083C20 18.9725 18.9725 20 17.7083 20ZM2.29167 1.25C1.7175 1.25 1.25 1.7175 1.25 2.29167V17.7083C1.25 18.2825 1.7175 18.75 2.29167 18.75H17.7083C18.2825 18.75 18.75 18.2825 18.75 17.7083V2.29167C18.75 1.7175 18.2825 1.25 17.7083 1.25H2.29167Z" fill="black"/>
<path d="M10 20C9.655 20 9.375 19.72 9.375 19.375V0.625C9.375 0.28 9.655 0 10 0C10.345 0 10.625 0.28 10.625 0.625V19.375C10.625 19.72 10.345 20 10 20Z" fill="black"/>
<path d="M19.375 10.625H0.625C0.28 10.625 0 10.345 0 10C0 9.655 0.28 9.375 0.625 9.375H19.375C19.72 9.375 20 9.655 20 10C20 10.345 19.72 10.625 19.375 10.625Z" fill="black"/>
<path d="M5 7.4987C4.655 7.4987 4.375 7.2187 4.375 6.8737V3.95703C4.375 3.61203 4.655 3.33203 5 3.33203C5.345 3.33203 5.625 3.61203 5.625 3.95703V6.8737C5.625 7.2187 5.345 7.4987 5 7.4987Z" fill="black"/>
<path d="M6.45866 6.04297H3.54199C3.19699 6.04297 2.91699 5.76297 2.91699 5.41797C2.91699 5.07297 3.19699 4.79297 3.54199 4.79297H6.45866C6.80366 4.79297 7.08366 5.07297 7.08366 5.41797C7.08366 5.76297 6.80366 6.04297 6.45866 6.04297Z" fill="black"/>
<path d="M3.95829 16.6679C3.79829 16.6679 3.63829 16.6071 3.51662 16.4846C3.27245 16.2404 3.27245 15.8446 3.51662 15.6004L5.59995 13.5171C5.84412 13.2729 6.23995 13.2729 6.48412 13.5171C6.72829 13.7613 6.72829 14.1571 6.48412 14.4013L4.40079 16.4846C4.27829 16.6071 4.11829 16.6679 3.95829 16.6679Z" fill="black"/>
<path d="M6.04162 16.6679C5.88162 16.6679 5.72162 16.6071 5.59995 16.4846L3.51662 14.4013C3.27245 14.1571 3.27245 13.7613 3.51662 13.5171C3.76079 13.2729 4.15662 13.2729 4.40079 13.5171L6.48412 15.6004C6.72829 15.8446 6.72829 16.2404 6.48412 16.4846C6.36162 16.6071 6.20162 16.6679 6.04162 16.6679Z" fill="black"/>
<path d="M16.875 5.83203H13.125C12.78 5.83203 12.5 5.55203 12.5 5.20703C12.5 4.86203 12.78 4.58203 13.125 4.58203H16.875C17.22 4.58203 17.5 4.86203 17.5 5.20703C17.5 5.55203 17.22 5.83203 16.875 5.83203Z" fill="black"/>
<path d="M16.875 16.668H13.125C12.78 16.668 12.5 16.388 12.5 16.043C12.5 15.698 12.78 15.418 13.125 15.418H16.875C17.22 15.418 17.5 15.698 17.5 16.043C17.5 16.388 17.22 16.668 16.875 16.668Z" fill="black"/>
<path d="M16.875 14.168H13.125C12.78 14.168 12.5 13.888 12.5 13.543C12.5 13.198 12.78 12.918 13.125 12.918H16.875C17.22 12.918 17.5 13.198 17.5 13.543C17.5 13.888 17.22 14.168 16.875 14.168Z" fill="black"/>
</g>
<defs>
<clipPath id="clip0">
<rect width="20" height="20" fill="white"/>
</clipPath>
</defs>
</svg>
