<svg width="20" height="20" viewBox="0 0 20 20" fill="none" xmlns="http://www.w3.org/2000/svg">
<path d="M9.2424 10.4143C9.01367 10.6432 8.64258 10.6432 8.41385 10.4143L7.65625 9.65683L5.89844 11.4146V11.7578H14.1016V11.4146L11.1719 8.48495L9.2424 10.4143Z" fill="#EC8B33"/>
<path d="M5.89844 9.75723L7.24197 8.41385C7.4707 8.18497 7.8418 8.18497 8.07053 8.41385L8.82812 9.1713L10.7576 7.24197C10.9863 7.01309 11.3574 7.01309 11.5862 7.24197L14.1016 9.75723V5.89844H5.89844V9.75723Z" fill="#EC8B33"/>
<path d="M17.0312 0H2.96875C2.64511 0 2.38281 0.262299 2.38281 0.585938V19.4141C2.38281 19.7377 2.64511 20 2.96875 20H17.0312C17.3549 20 17.6172 19.7377 17.6172 19.4141V0.585938C17.6172 0.262299 17.3549 0 17.0312 0ZM8.82812 17.6172H5.3125C4.98886 17.6172 4.72656 17.3549 4.72656 17.0312C4.72656 16.7076 4.98886 16.4453 5.3125 16.4453H8.82812C9.15176 16.4453 9.41406 16.7076 9.41406 17.0312C9.41406 17.3549 9.15176 17.6172 8.82812 17.6172ZM8.82812 15.2734H5.3125C4.98886 15.2734 4.72656 15.0111 4.72656 14.6875C4.72656 14.3639 4.98886 14.1016 5.3125 14.1016H8.82812C9.15176 14.1016 9.41406 14.3639 9.41406 14.6875C9.41406 15.0111 9.15176 15.2734 8.82812 15.2734ZM14.6875 17.6172H11.1719C10.8482 17.6172 10.5859 17.3549 10.5859 17.0312C10.5859 16.7076 10.8482 16.4453 11.1719 16.4453H14.6875C15.0111 16.4453 15.2734 16.7076 15.2734 17.0312C15.2734 17.3549 15.0111 17.6172 14.6875 17.6172ZM14.6875 15.2734H11.1719C10.8482 15.2734 10.5859 15.0111 10.5859 14.6875C10.5859 14.3639 10.8482 14.1016 11.1719 14.1016H14.6875C15.0111 14.1016 15.2734 14.3639 15.2734 14.6875C15.2734 15.0111 15.0111 15.2734 14.6875 15.2734ZM15.2734 12.3438C15.2734 12.6674 15.0111 12.9297 14.6875 12.9297H5.3125C4.98886 12.9297 4.72656 12.6674 4.72656 12.3438V5.3125C4.72656 4.98886 4.98886 4.72656 5.3125 4.72656H14.6875C15.0111 4.72656 15.2734 4.98886 15.2734 5.3125V12.3438ZM14.6875 3.55469H5.3125C4.98886 3.55469 4.72656 3.29239 4.72656 2.96875C4.72656 2.64511 4.98886 2.38281 5.3125 2.38281H14.6875C15.0111 2.38281 15.2734 2.64511 15.2734 2.96875C15.2734 3.29239 15.0111 3.55469 14.6875 3.55469Z" fill="#EC8B33"/>
</svg>
