<svg width="182" height="67" viewBox="0 0 182 67" fill="none" xmlns="http://www.w3.org/2000/svg">
<path d="M31.408 0.847997C40.56 0.847997 47.952 3.89866 53.584 10C59.2747 16.0427 62.12 23.9627 62.12 33.76C62.12 43.5573 59.2747 51.4773 53.584 57.52C47.952 63.504 40.5307 66.496 31.32 66.496C22.0507 66.496 14.5707 63.504 8.88 57.52C3.18933 51.4773 0.344 43.5573 0.344 33.76C0.344 23.8453 3.16 15.896 8.792 9.912C14.4827 3.86933 22.0213 0.847997 31.408 0.847997ZM31.232 12.112C26.0693 12.112 21.9333 14.048 18.824 17.92C15.7733 21.792 14.248 26.984 14.248 33.496C14.248 40.2427 15.7733 45.5227 18.824 49.336C21.8747 53.1493 26.0693 55.0853 31.408 55.144C36.6293 55.144 40.736 53.208 43.728 49.336C46.72 45.464 48.216 40.184 48.216 33.496C48.216 26.9253 46.6907 21.7333 43.64 17.92C40.5893 14.048 36.4533 12.112 31.232 12.112ZM117.94 21H104.916C104.388 14.7813 100.428 11.672 93.0362 11.672C89.8682 11.672 87.3749 12.3173 85.5562 13.608C83.7962 14.84 82.9162 16.5707 82.9162 18.8C82.9162 19.5627 83.0335 20.2373 83.2682 20.824C83.5029 21.4107 83.9429 21.968 84.5882 22.496C85.2335 22.9653 85.8789 23.376 86.5242 23.728C87.1695 24.0213 88.1082 24.3733 89.3402 24.784C90.6309 25.136 91.7749 25.4587 92.7722 25.752C93.8282 26.0453 95.2949 26.4267 97.1722 26.896C99.0495 27.3653 100.692 27.8053 102.1 28.216C108.26 29.976 112.836 32.176 115.828 34.816C118.879 37.456 120.404 41.24 120.404 46.168C120.404 49.7467 119.671 52.8853 118.204 55.584C116.738 58.224 114.743 60.336 112.22 61.92C109.756 63.4453 107.028 64.56 104.036 65.264C101.103 66.0267 97.9642 66.408 94.6202 66.408C86.1135 66.408 79.4549 64.472 74.6442 60.6C69.8922 56.6693 67.4869 51.1547 67.4282 44.056H81.0682C81.3029 51.9173 86.0255 55.848 95.2362 55.848C98.8149 55.848 101.631 55.1147 103.684 53.648C105.796 52.1227 106.852 50.0693 106.852 47.488C106.852 45.3173 105.884 43.7333 103.948 42.736C102.071 41.7387 98.0815 40.36 91.9802 38.6C91.6282 38.5413 91.3642 38.4827 91.1882 38.424C91.0122 38.3653 90.7775 38.3067 90.4842 38.248C90.1909 38.1307 89.9269 38.0427 89.6922 37.984C87.5802 37.3973 86.1135 36.9867 85.2922 36.752C84.4709 36.4587 83.1509 35.9893 81.3322 35.344C79.5722 34.6987 78.2815 34.112 77.4602 33.584C76.6389 33.056 75.6122 32.3227 74.3802 31.384C73.2069 30.4453 72.3562 29.4773 71.8282 28.48C71.3002 27.424 70.8015 26.1627 70.3322 24.696C69.9215 23.1707 69.7162 21.528 69.7162 19.768C69.7162 14.0773 71.9162 9.53067 76.3162 6.128C80.7162 2.72533 86.5535 1.02399 93.8282 1.02399C100.868 1.02399 106.618 2.696 111.076 6.04C115.535 9.32533 117.823 14.312 117.94 21ZM128.625 2.344H158.281C164.147 2.344 168.929 3.664 172.625 6.304C176.379 8.88533 178.257 12.816 178.257 18.096C178.257 21.0293 177.494 23.64 175.969 25.928C174.443 28.1573 172.361 29.8587 169.721 31.032C177.347 33.2027 181.161 38.3067 181.161 46.344C181.161 52.2693 179.166 56.8747 175.177 60.16C171.187 63.3867 166.113 65 159.953 65H128.625V2.344ZM142.001 12.992V27.688H154.497C161.419 27.688 164.881 25.2533 164.881 20.384C164.881 17.5093 163.942 15.5733 162.065 14.576C160.187 13.52 157.665 12.992 154.497 12.992H142.001ZM142.001 37.016V54.088H155.817C159.395 54.088 162.211 53.5013 164.265 52.328C166.377 51.1547 167.433 48.896 167.433 45.552C167.433 42.1493 166.318 39.8907 164.089 38.776C161.918 37.6027 158.926 37.016 155.113 37.016H142.001Z" fill="white"/>
</svg>
