<svg width="28" height="20" viewBox="0 0 28 20" fill="none" xmlns="http://www.w3.org/2000/svg">
<path d="M27.8915 8.5823L25.9018 5.29032C25.4315 4.53062 24.5995 4.06034 23.7313 4.09652H18.5943V2.43243C18.5943 1.16628 17.5452 0.117188 16.2791 0.117188H2.31525C1.0491 0.117187 0 1.16628 0 2.43243V14.9492C0 16.2154 1.0491 17.2645 2.31525 17.2645H3.50904C4.0155 19.1456 5.86047 20.2671 7.7416 19.7606C8.97158 19.435 9.94832 18.4945 10.2377 17.2645H18.9199C19.4264 19.1456 21.2713 20.2671 23.1525 19.7606C24.3824 19.435 25.3592 18.4945 25.6486 17.2645H27.1318C27.6382 17.2645 28 16.9027 28 16.3963V9.05259C28 8.87171 27.9277 8.72701 27.8915 8.5823ZM6.87339 18.1327C5.89664 18.1327 5.10078 17.373 5.10078 16.3601C5.10078 15.3833 5.86047 14.5875 6.87339 14.5875C7.85013 14.5875 8.646 15.3472 8.646 16.3601C8.646 17.373 7.85013 18.1327 6.87339 18.1327ZM22.3566 18.1327C21.3798 18.1327 20.584 17.373 20.584 16.3601C20.584 15.3833 21.3437 14.5875 22.3566 14.5875C23.3333 14.5875 24.1292 15.3472 24.1292 16.3601C24.093 17.373 23.3333 18.1327 22.3566 18.1327ZM18.5943 8.22055V5.83295H23.6951C23.9845 5.83295 24.2739 5.97765 24.4548 6.23088L25.6848 8.22055H18.5943Z" fill="white"/>
</svg>
