<svg width="20" height="20" viewBox="0 0 20 20" fill="none" xmlns="http://www.w3.org/2000/svg">
<g clip-path="url(#clip0)">
<path d="M18.242 2.38281H1.7576C1.48702 2.38281 1.2337 2.44934 1.00452 2.55898L9.96073 11.5152L11.9681 9.58602C11.9681 9.58602 11.9683 9.58582 11.9683 9.58574C11.9683 9.58566 11.9685 9.58559 11.9685 9.58559L18.9953 2.55914C18.7661 2.44941 18.5126 2.38281 18.242 2.38281Z" fill="white"/>
<path d="M19.8242 3.38867L13.2115 10.0009L19.8239 16.6133C19.9336 16.3841 20.0001 16.1308 20.0001 15.8602V4.14148C20.0001 3.87105 19.9337 3.61777 19.8242 3.38867Z" fill="white"/>
<path d="M0.176172 3.38672C0.0665234 3.6159 0 3.86922 0 4.1398V15.8586C0 16.129 0.0664453 16.3823 0.176016 16.6114L6.78863 9.99918L0.176172 3.38672Z" fill="white"/>
<path d="M12.383 10.8282L10.3754 12.7576C10.2609 12.8721 10.111 12.9293 9.9611 12.9293C9.81122 12.9293 9.66126 12.8721 9.54684 12.7576L7.61731 10.8281L1.00458 17.4404C1.2338 17.5502 1.48727 17.6168 1.75794 17.6168H18.2423C18.5129 17.6168 18.7662 17.5502 18.9954 17.4406L12.383 10.8282Z" fill="white"/>
</g>
<defs>
<clipPath id="clip0">
<rect width="20" height="20" fill="white"/>
</clipPath>
</defs>
</svg>
