<svg width="16" height="16" viewBox="0 0 16 16" fill="none" xmlns="http://www.w3.org/2000/svg">
<path d="M7.99979 0C4.80464 0 2.2052 2.59944 2.2052 5.79456C2.2052 9.75981 7.39079 15.581 7.61158 15.8269C7.81895 16.0579 8.18101 16.0575 8.38801 15.8269C8.60879 15.581 13.7944 9.75981 13.7944 5.79456C13.7943 2.59944 11.1949 0 7.99979 0ZM7.99979 8.70997C6.39223 8.70997 5.08442 7.40212 5.08442 5.79456C5.08442 4.187 6.39226 2.87919 7.99979 2.87919C9.60733 2.87919 10.9151 4.18703 10.9151 5.79459C10.9151 7.40216 9.60733 8.70997 7.99979 8.70997Z" fill="#EC8B33"/>
</svg>
