<svg width="20" height="20" viewBox="0 0 20 20" fill="none" xmlns="http://www.w3.org/2000/svg">
<g clip-path="url(#clip0)">
<path d="M19.4557 14.678L16.6647 11.8869C15.6678 10.8901 13.9733 11.2889 13.5745 12.5847C13.2755 13.4819 12.2787 13.9803 11.3816 13.7809C9.38796 13.2825 6.69658 10.6908 6.19818 8.59746C5.89914 7.7003 6.49722 6.70349 7.39435 6.40448C8.69019 6.00576 9.08892 4.31119 8.09211 3.31438L5.30105 0.523324C4.50361 -0.174441 3.30744 -0.174441 2.60967 0.523324L0.715739 2.41726C-1.17819 4.41087 0.9151 9.69395 5.60009 14.3789C10.2851 19.0639 15.5682 21.2569 17.5618 19.2633L19.4557 17.3694C20.1535 16.5719 20.1535 15.3757 19.4557 14.678Z" fill="white"/>
</g>
<defs>
<clipPath id="clip0">
<rect width="20" height="20" fill="white"/>
</clipPath>
</defs>
</svg>
