<svg width="20" height="20" viewBox="0 0 20 20" fill="none" xmlns="http://www.w3.org/2000/svg">
<g clip-path="url(#clip0)">
<path d="M19.7333 6.56654L10.3583 0.108203C10.1417 -0.0334635 9.85833 -0.0334635 9.64166 0.108203L0.266659 6.56654C0.0999924 6.6832 -7.62939e-06 6.87487 -7.62939e-06 7.0832V19.1665C-7.62939e-06 19.6249 0.374992 19.9999 0.833326 19.9999H4.16666V10.6249C4.16666 10.2807 4.44833 9.99987 4.79166 9.99987H15.2083C15.5525 9.99987 15.8333 10.2807 15.8333 10.6249V19.9999H19.1667C19.625 19.9999 20 19.6249 20 19.1665V7.0832C20 6.87487 19.9 6.6832 19.7333 6.56654Z" fill="white"/>
<path d="M5.41681 14.584H14.5835V16.6673H5.41681V14.584Z" fill="white"/>
<path d="M5.41681 17.916H14.5835V19.9994H5.41681V17.916Z" fill="white"/>
<path d="M5.41681 11.25H14.5835V13.3333H5.41681V11.25Z" fill="white"/>
</g>
<defs>
<clipPath id="clip0">
<rect width="20" height="20" fill="white"/>
</clipPath>
</defs>
</svg>
