<svg width="12" height="12" viewBox="0 0 12 12" fill="none" xmlns="http://www.w3.org/2000/svg">
<g clip-path="url(#clip0)">
<path d="M0.170947 1.00134C-0.0540527 0.776337 -0.0540527 0.401861 0.170947 0.168994C0.403814 -0.0560059 0.770423 -0.0560059 1.00329 0.168994L5.99787 5.17197L11.0008 0.168994C11.2258 -0.0560059 11.6003 -0.0560059 11.8248 0.168994C12.0577 0.401861 12.0577 0.776861 11.8248 1.00134L6.83021 5.99644L11.8248 10.9994C12.0577 11.2244 12.0577 11.5989 11.8248 11.8318C11.5998 12.0568 11.2253 12.0568 11.0008 11.8318L5.99787 6.82879L1.00329 11.8318C0.770423 12.0568 0.403814 12.0568 0.170947 11.8318C-0.0540527 11.5989 -0.0540527 11.2239 0.170947 10.9994L5.16553 5.99644L0.170947 1.00134Z" fill="#EC8B33"/>
</g>
<defs>
<clipPath id="clip0">
<rect width="12" height="12" fill="white"/>
</clipPath>
</defs>
</svg>
