<svg width="24" height="20" viewBox="0 0 24 20" fill="none" xmlns="http://www.w3.org/2000/svg">
<path d="M0.383641 10.9322L9.05088 19.5997C9.29829 19.8471 9.62804 19.9829 9.97965 19.9829C10.3316 19.9829 10.6612 19.8469 10.9086 19.5997L11.6955 18.8126C11.9428 18.5656 12.0789 18.2356 12.0789 17.8838C12.0789 17.5322 11.9428 17.1911 11.6955 16.9441L6.63919 11.8766L22.7034 11.8766C23.4277 11.8766 24 11.3096 24 10.5851L24 9.47236C24 8.74788 23.4277 8.12369 22.7034 8.12369L6.58183 8.12369L11.6953 3.02793C11.9426 2.78051 12.0788 2.45954 12.0788 2.10774C12.0788 1.75633 11.9426 1.43067 11.6953 1.18345L10.9084 0.398875C10.661 0.151463 10.3314 0.0166347 9.97945 0.0166347C9.62785 0.0166346 9.29809 0.153218 9.05068 0.40063L0.383447 9.06788C0.135449 9.31607 -0.000939419 9.64738 3.5205e-05 9.99958C-0.000744931 10.3529 0.135449 10.6844 0.383641 10.9322Z" fill="white"/>
</svg>
