<svg width="24" height="20" viewBox="0 0 24 20" fill="none" xmlns="http://www.w3.org/2000/svg">
<path d="M23.6164 9.06763L14.9491 0.400184C14.7017 0.152771 14.372 0.0169678 14.0204 0.0169678C13.6684 0.0169678 13.3388 0.152967 13.0914 0.400184L12.3045 1.1873C12.0573 1.43432 11.9211 1.76427 11.9211 2.11607C11.9211 2.46768 12.0573 2.80875 12.3045 3.05577L17.3608 8.12324L1.29657 8.12324C0.572287 8.12324 0 8.69026 0 9.41474L0 10.5275C0 11.252 0.572287 11.8762 1.29657 11.8762L17.4182 11.8762L12.3047 16.972C12.0574 17.2194 11.9213 17.5403 11.9213 17.8921C11.9213 18.2435 12.0574 18.5692 12.3047 18.8164L13.0916 19.601C13.339 19.8484 13.6686 19.9832 14.0205 19.9832C14.3722 19.9832 14.7019 19.8467 14.9493 19.5992L23.6166 10.932C23.8646 10.6838 24.0009 10.3525 24 10.0003C24.0007 9.64694 23.8646 9.31543 23.6164 9.06763Z" fill="white"/>
</svg>
