<svg width="12" height="12" viewBox="0 0 12 12" fill="none" xmlns="http://www.w3.org/2000/svg">
<path d="M0.170947 1.00109C-0.0540527 0.776093 -0.0540527 0.401617 0.170947 0.16875C0.403814 -0.05625 0.770423 -0.05625 1.00329 0.16875L5.99787 5.17172L11.0008 0.16875C11.2258 -0.05625 11.6003 -0.05625 11.8248 0.16875C12.0577 0.401617 12.0577 0.776617 11.8248 1.00109L6.83021 5.9962L11.8248 10.9992C12.0577 11.2242 12.0577 11.5986 11.8248 11.8315C11.5998 12.0565 11.2253 12.0565 11.0008 11.8315L5.99787 6.82854L1.00329 11.8315C0.770423 12.0565 0.403814 12.0565 0.170947 11.8315C-0.0540527 11.5986 -0.0540527 11.2236 0.170947 10.9992L5.16553 5.9962L0.170947 1.00109Z" fill="#999999"/>
</svg>
