<svg width="60" height="60" viewBox="0 0 60 60" fill="none" xmlns="http://www.w3.org/2000/svg">
<circle cx="30" cy="30" r="30" transform="rotate(-90 30 30)" fill="#EC8B33"/>
<path d="M41.6164 29.0676L32.9491 20.4002C32.7017 20.1528 32.372 20.017 32.0204 20.017C31.6684 20.017 31.3388 20.153 31.0914 20.4002L30.3045 21.1873C30.0573 21.4343 29.9211 21.7643 29.9211 22.1161C29.9211 22.4677 30.0573 22.8087 30.3045 23.0558L35.3608 28.1232L19.2966 28.1232C18.5723 28.1232 18 28.6903 18 29.4147V30.5275C18 31.252 18.5723 31.8762 19.2966 31.8762L35.4182 31.8762L30.3047 36.972C30.0574 37.2194 29.9213 37.5403 29.9213 37.8921C29.9213 38.2435 30.0574 38.5692 30.3047 38.8164L31.0916 39.601C31.339 39.8484 31.6686 39.9832 32.0205 39.9832C32.3722 39.9832 32.7019 39.8467 32.9493 39.5992L41.6166 30.932C41.8646 30.6838 42.0009 30.3525 42 30.0003C42.0007 29.6469 41.8646 29.3154 41.6164 29.0676Z" fill="white"/>
</svg>
