<svg width="40" height="40" viewBox="0 0 40 40" fill="none" xmlns="http://www.w3.org/2000/svg">
<circle cx="20" cy="20" r="20" fill="#010101"/>
<path d="M20.6217 27.7442L26.4 21.9661C26.565 21.8011 26.6555 21.5813 26.6555 21.3469C26.6555 21.1122 26.5649 20.8925 26.4 20.7276L25.8753 20.203C25.7106 20.0382 25.4906 19.9474 25.2561 19.9474C25.0217 19.9474 24.7943 20.0382 24.6296 20.203L21.2513 23.5739V12.8644C21.2513 12.3815 20.8733 12 20.3903 12H19.6485C19.1655 12 18.7494 12.3815 18.7494 12.8644V23.6121L15.3522 20.2031C15.1873 20.0383 14.9733 19.9475 14.7387 19.9475C14.5045 19.9475 14.2874 20.0383 14.1225 20.2031L13.5995 20.7277C13.4346 20.8927 13.3447 21.1124 13.3447 21.347C13.3447 21.5814 13.4357 21.8013 13.6007 21.9662L19.3788 27.7444C19.5443 27.9097 19.7652 28.0006 20 28C20.2355 28.0005 20.4565 27.9097 20.6217 27.7442Z" fill="white"/>
</svg>
