<svg width="24" height="20" viewBox="0 0 24 20" fill="none" xmlns="http://www.w3.org/2000/svg">
<path d="M0.383641 10.9318L9.05088 19.5992C9.29829 19.8466 9.62804 19.9824 9.97965 19.9824C10.3316 19.9824 10.6612 19.8464 10.9086 19.5992L11.6955 18.8121C11.9428 18.5651 12.0789 18.2351 12.0789 17.8833C12.0789 17.5317 11.9428 17.1906 11.6955 16.9436L6.63919 11.8761L22.7034 11.8761C23.4277 11.8761 24 11.3091 24 10.5846L24 9.47187C24 8.74739 23.4277 8.1232 22.7034 8.1232L6.58183 8.1232L11.6953 3.02744C11.9426 2.78003 12.0788 2.45905 12.0788 2.10725C12.0788 1.75584 11.9426 1.43018 11.6953 1.18297L10.9084 0.398387C10.661 0.150975 10.3314 0.0161464 9.97945 0.0161464C9.62785 0.0161464 9.29809 0.15273 9.05068 0.400141L0.383447 9.06739C0.135449 9.31558 -0.000939419 9.64689 3.5205e-05 9.99909C-0.000744931 10.3525 0.135449 10.684 0.383641 10.9318Z" fill="white"/>
</svg>
