<svg width="24" height="20" viewBox="0 0 24 20" fill="none" xmlns="http://www.w3.org/2000/svg">
<path d="M23.6164 9.06824L14.9491 0.400794C14.7017 0.153382 14.372 0.0175781 14.0204 0.0175781C13.6684 0.0175781 13.3388 0.153577 13.0914 0.400794L12.3045 1.18791C12.0573 1.43493 11.9211 1.76488 11.9211 2.11668C11.9211 2.46829 12.0573 2.80936 12.3045 3.05638L17.3608 8.12385L1.29657 8.12385C0.572287 8.12385 0 8.69087 0 9.41535L0 10.5281C0 11.2526 0.572287 11.8768 1.29657 11.8768L17.4182 11.8768L12.3047 16.9726C12.0574 17.22 11.9213 17.5409 11.9213 17.8927C11.9213 18.2442 12.0574 18.5698 12.3047 18.817L13.0916 19.6016C13.339 19.849 13.6686 19.9839 14.0205 19.9839C14.3722 19.9839 14.7019 19.8473 14.9493 19.5999L23.6166 10.9326C23.8646 10.6844 24.0009 10.3531 24 10.0009C24.0007 9.64755 23.8646 9.31604 23.6164 9.06824Z" fill="white"/>
</svg>
