<svg width="60" height="60" viewBox="0 0 60 60" fill="none" xmlns="http://www.w3.org/2000/svg">
<circle r="30" transform="matrix(0 -1 -1 0 30 30)" fill="#CA782E"/>
<path d="M18.3836 30.9322L27.0509 39.5997C27.2983 39.8471 27.628 39.9829 27.9796 39.9829C28.3316 39.9829 28.6612 39.8469 28.9086 39.5997L29.6955 38.8126C29.9428 38.5656 30.0789 38.2356 30.0789 37.8838C30.0789 37.5322 29.9428 37.1911 29.6955 36.9441L24.6392 31.8766L40.7034 31.8766C41.4277 31.8766 42 31.3096 42 30.5851L42 29.4724C42 28.7479 41.4277 28.1237 40.7034 28.1237L24.5818 28.1237L29.6953 23.0279C29.9426 22.7805 30.0788 22.4595 30.0788 22.1077C30.0788 21.7563 29.9426 21.4307 29.6953 21.1835L28.9084 20.3989C28.661 20.1515 28.3314 20.0166 27.9795 20.0166C27.6278 20.0166 27.2981 20.1532 27.0507 20.4006L18.3834 29.0679C18.1354 29.3161 17.9991 29.6474 18 29.9996C17.9993 30.3529 18.1354 30.6844 18.3836 30.9322Z" fill="white"/>
</svg>
