<svg width="20" height="20" viewBox="0 0 20 20" fill="none" xmlns="http://www.w3.org/2000/svg">
<path d="M16.4 10.3289C16.4 9.92893 16.0942 9.62305 15.6942 9.62305C15.2942 9.62305 14.9883 9.92893 14.9883 10.3289C14.9883 13.0819 12.753 15.3172 10 15.3172C7.2471 15.3172 5.0118 13.0819 5.0118 10.3289C5.0118 9.92893 4.70592 9.62305 4.30592 9.62305C3.90592 9.62305 3.60004 9.92893 3.60004 10.3289C3.60004 13.5995 6.0471 16.3524 9.29416 16.7054V18.5877H6.72945C6.32945 18.5877 6.02357 18.8936 6.02357 19.2936C6.02357 19.6936 6.32945 19.9995 6.72945 19.9995H13.2706C13.6706 19.9995 13.9765 19.6936 13.9765 19.2936C13.9765 18.8936 13.6706 18.5877 13.2706 18.5877H10.7059V16.7054C13.953 16.3524 16.4 13.5995 16.4 10.3289Z" fill="white"/>
<path d="M9.99978 0C7.83508 0 6.07037 1.76471 6.07037 3.92941V10.3059C6.07037 12.4941 7.83508 14.2353 9.99978 14.2588C12.1645 14.2588 13.9292 12.4941 13.9292 10.3294V3.92941C13.9292 1.76471 12.1645 0 9.99978 0Z" fill="white"/>
</svg>
