<svg width="16" height="16" viewBox="0 0 16 16" fill="none" xmlns="http://www.w3.org/2000/svg">
<path d="M15.7442 7.3785L9.96608 1.6002C9.80114 1.43526 9.58131 1.34473 9.3469 1.34473C9.11224 1.34473 8.89253 1.43539 8.72759 1.6002L8.20298 2.12495C8.03817 2.28963 7.94737 2.50959 7.94737 2.74413C7.94737 2.97853 8.03817 3.20591 8.20298 3.3706L11.5739 6.74891L0.864382 6.74891C0.381525 6.74891 0 7.12692 0 7.60991L0 8.35176C0 8.83475 0.381525 9.25087 0.864382 9.25087L11.6121 9.25087L8.20311 12.648C8.0383 12.813 7.9475 13.027 7.9475 13.2615C7.9475 13.4958 8.0383 13.7129 8.20311 13.8777L8.72772 14.4007C8.89266 14.5657 9.11237 14.6556 9.34703 14.6556C9.58144 14.6556 9.80127 14.5645 9.96621 14.3996L15.7444 8.62141C15.9097 8.45595 16.0006 8.23508 16 8.00028C16.0005 7.76471 15.9097 7.5437 15.7442 7.3785Z" fill="#EC8B33"/>
</svg>
