<svg width="80" height="80" viewBox="0 0 80 80" fill="none" xmlns="http://www.w3.org/2000/svg">
<circle cx="40" cy="40" r="40" fill="#EC8B33"/>
<path d="M31.2069 20L29.7016 21.5053C29.5862 21.4399 29.4563 21.4044 29.3238 21.4019H21.1114C20.6579 21.4019 20.2902 21.7696 20.2902 22.2231V30.4355C20.2902 30.889 20.6579 31.2567 21.1114 31.2567H29.3238C29.7773 31.2567 30.145 30.889 30.145 30.4355V23.3843L32.3681 21.1612L31.2069 20ZM28.5026 29.6142H21.9327V23.0443H28.1626L25.2176 25.9893L24.1558 24.9274L22.9945 26.0886L24.637 27.7311C24.9577 28.0517 25.4775 28.0517 25.7982 27.7311L28.5026 25.0268V29.6142Z" fill="white"/>
<path d="M31.2069 34.7832L29.7016 36.2885C29.5862 36.2231 29.4563 36.1876 29.3238 36.1851H21.1114C20.6579 36.1851 20.2902 36.5528 20.2902 37.0063V45.2187C20.2902 45.6722 20.6579 46.0399 21.1114 46.0399H29.3238C29.7773 46.0399 30.145 45.6722 30.145 45.2187V38.1675L32.3681 35.9444L31.2069 34.7832ZM28.5026 44.3974H21.9327V37.8275H28.1626L25.2176 40.7725L24.1558 39.7106L22.9945 40.8719L24.637 42.5143C24.9577 42.8349 25.4775 42.8349 25.7982 42.5143L28.5026 39.81V44.3974Z" fill="white"/>
<path d="M31.2069 48.7441L29.7016 50.2495C29.5862 50.1841 29.4563 50.1486 29.3238 50.146H21.1114C20.6579 50.146 20.2902 50.5137 20.2902 50.9672V59.1796C20.2902 59.6331 20.6579 60.0008 21.1114 60.0008H29.3238C29.7773 60.0008 30.145 59.6331 30.145 59.1796V52.1285L32.3681 49.9054L31.2069 48.7441ZM28.5026 58.3584H21.9327V51.7885H28.1626L25.2176 54.7334L24.1558 53.6716L22.9945 54.8328L24.637 56.4753C24.9577 56.7959 25.4775 56.7959 25.7982 56.4753L28.5026 53.7709V58.3584Z" fill="white"/>
<path d="M59.7096 27.9707H35.8937V29.6132H59.7096V27.9707Z" fill="white"/>
<path d="M59.7096 23.0449H35.8937V24.6874H59.7096V23.0449Z" fill="white"/>
<path d="M59.7096 42.7539H35.8937V44.3964H59.7096V42.7539Z" fill="white"/>
<path d="M59.7096 37.8262H35.8937V39.4686H59.7096V37.8262Z" fill="white"/>
<path d="M59.7096 56.7148H35.8937V58.3573H59.7096V56.7148Z" fill="white"/>
<path d="M59.7096 51.7871H35.8937V53.4296H59.7096V51.7871Z" fill="white"/>
</svg>
