<svg width="12" height="12" viewBox="0 0 12 12" fill="none" xmlns="http://www.w3.org/2000/svg">
<g clip-path="url(#clip0)">
<path d="M0.170703 1.00109C-0.0542969 0.776093 -0.0542969 0.401617 0.170703 0.16875C0.40357 -0.05625 0.770179 -0.05625 1.00305 0.16875L5.99763 5.17172L11.0006 0.16875C11.2256 -0.05625 11.6001 -0.05625 11.8245 0.16875C12.0574 0.401617 12.0574 0.776617 11.8245 1.00109L6.82997 5.9962L11.8245 10.9992C12.0574 11.2242 12.0574 11.5986 11.8245 11.8315C11.5995 12.0565 11.2251 12.0565 11.0006 11.8315L5.99763 6.82854L1.00305 11.8315C0.770179 12.0565 0.40357 12.0565 0.170703 11.8315C-0.0542969 11.5986 -0.0542969 11.2236 0.170703 10.9992L5.16528 5.9962L0.170703 1.00109Z" fill="#999999"/>
</g>
<defs>
<clipPath id="clip0">
<rect width="12" height="12" fill="white"/>
</clipPath>
</defs>
</svg>
