<svg width="80" height="80" viewBox="0 0 80 80" fill="none" xmlns="http://www.w3.org/2000/svg">
<circle cx="40" cy="40" r="40" fill="#EC8B33"/>
<path d="M59.2887 60H20.7113C20.3184 60 20 59.6816 20 59.2887V20.7113C20 20.3184 20.3184 20 20.7113 20H59.2887C59.6816 20 60 20.3184 60 20.7113V59.2887C60 59.6816 59.6816 60 59.2887 60ZM49.9075 58.5774H58.5774V49.9075L50.5354 57.9495C50.5342 57.9507 50.5331 57.9521 50.5317 57.9532C50.5305 57.9543 50.5291 57.9558 50.528 57.9569L49.9075 58.5774ZM38.8353 58.5774H47.896L49.0232 57.4502L44.4929 52.9199L38.8353 58.5774ZM28.4981 58.5774H36.8236L49.1891 46.2119L45.0264 42.0492L31.8964 55.1792L28.4981 58.5774ZM21.4226 58.5774H26.4863L30.3876 54.6762L26.0169 50.3055L21.4226 54.8998V58.5774ZM45.4986 51.9138L50.0289 56.4442L58.5774 47.8957V38.8353L50.6978 46.7149L45.4986 51.9138ZM27.0229 49.2995L31.3933 53.6702L53.2078 31.8557L48.8371 27.485L40.2849 36.0374C40.2841 36.038 40.2835 36.0386 40.2829 36.0391L27.0229 49.2995ZM21.4226 43.3326V52.8877L25.5065 48.8036C25.509 48.8013 25.5113 48.7987 25.5136 48.7964C25.5159 48.7939 25.5184 48.7916 25.5207 48.7893L38.7739 35.5358L34.0962 30.8582L21.4226 43.3326ZM46.0321 41.0432L50.1948 45.2059L58.5567 36.8443C58.5635 36.8375 58.5706 36.8307 58.5774 36.8241V28.4978L46.0321 41.0432ZM21.4226 31.7242V41.3365L27.0554 35.7922L22.2286 30.9651L21.4226 31.7242ZM23.2645 29.9893L28.0694 34.7941L41.6065 21.4698H32.3095L23.2645 29.9893ZM35.1099 29.8601L39.7799 34.5301L52.8877 21.4226H43.6823L35.1099 29.8601ZM49.8429 26.4792L54.2136 30.8499L58.5774 26.486V21.4226H54.8995L49.8429 26.4792ZM21.4226 21.4226V29.7702L21.6886 29.5198C21.7037 29.5016 21.7193 29.4842 21.7364 29.4672C21.7637 29.4399 21.7927 29.4151 21.8232 29.3932L30.2846 21.4226H21.4226Z" fill="#010101"/>
</svg>
