<svg width="80" height="80" viewBox="0 0 80 80" fill="none" xmlns="http://www.w3.org/2000/svg">
<circle cx="40" cy="40" r="40" fill="#EC8B33"/>
<path d="M58.75 20.625H52.5H46.25H40H21.25C20.9044 20.625 20.625 20.905 20.625 21.25V27.5V33.75V52.5V58.75C20.625 59.0956 20.9044 59.375 21.25 59.375H40H58.75C59.0956 59.375 59.375 59.0956 59.375 58.75V52.5V46.25V40V21.25C59.375 20.905 59.0956 20.625 58.75 20.625ZM28.125 51.875V34.375H33.125V51.875H28.125ZM21.875 51.875V34.375H26.875V51.875H21.875ZM46.25 40.625H52.5H58.125V45.625H40.625V40.625H46.25ZM39.375 33.125H33.75H27.5H21.875V28.125H39.375V33.125ZM34.375 34.375H39.375V40V46.25V51.875H34.375V34.375ZM40.625 46.875H58.125V51.875H40.625V46.875ZM58.125 39.375H53.125V21.875H58.125V39.375ZM51.875 39.375H46.875V21.875H51.875V39.375ZM45.625 39.375H40.625V33.75V27.5V21.875H45.625V39.375ZM21.875 21.875H39.375V26.875H21.875V21.875ZM21.875 53.125H27.5H33.75H39.375V58.125H21.875V53.125ZM58.125 58.125H40.625V53.125H58.125V58.125Z" fill="#010101"/>
</svg>
