<svg width="80" height="80" viewBox="0 0 80 80" fill="none" xmlns="http://www.w3.org/2000/svg">
<circle cx="40" cy="40" r="40" fill="#EC8B33"/>
<g clip-path="url(#clip0)">
<path d="M59.2708 54.6043H58.6043V49.9375C58.6043 49.5693 58.3057 49.2708 57.9373 49.2708H55.9373V45.9375C55.9373 45.5691 55.6387 45.2708 55.2708 45.2708H53.2705V41.9373C53.2705 41.5693 52.9722 41.2708 52.6038 41.2708H47.9373V20.6042C47.9373 20.2358 47.6389 19.9375 47.2705 19.9375C46.9026 19.9375 46.6038 20.2358 46.6038 20.6042V31.9375H45.2705V20.6042C45.2705 20.2358 44.9719 19.9375 44.604 19.9375C44.2356 19.9375 43.937 20.2358 43.937 20.6042V31.9375H42.6038V20.6042C42.6038 20.2358 42.3054 19.9375 41.937 19.9375C41.5688 19.9375 41.2705 20.2358 41.2705 20.6042V54.6043H30.6042V20.6042C30.6042 20.2358 30.3054 19.9375 29.9375 19.9375C29.5691 19.9375 29.2708 20.2358 29.2708 20.6042V31.9375H27.9373V20.6042C27.9373 20.2358 27.6389 19.9375 27.2708 19.9375C26.9026 19.9375 26.604 20.2358 26.604 20.6042V31.9375H25.2708V20.6042C25.2708 20.2358 24.9722 19.9375 24.6042 19.9375C24.2358 19.9375 23.9375 20.2358 23.9375 20.6042V54.6043H20.6042C20.2358 54.6043 19.9375 54.9026 19.9375 55.2708V59.271C19.9375 59.6389 20.2358 59.9375 20.6042 59.9375H59.271C59.6389 59.9375 59.9375 59.6389 59.9375 59.271V55.2708C59.9375 54.9026 59.6389 54.6043 59.2708 54.6043ZM57.2708 54.6043H47.9373V50.6043H57.2708V54.6043ZM54.6043 49.2708H47.9373V46.604H54.6043V49.2708ZM51.9375 42.604V45.2708H47.9373V42.604H51.9375ZM42.604 33.271H46.604V54.6043H42.604V33.271ZM25.2708 33.271H29.2708V54.6043H25.2708V33.271ZM58.6043 58.6043H21.2708V55.9375H58.6043V58.6043Z" fill="black"/>
</g>
<defs>
<clipPath id="clip0">
<rect width="40" height="40" fill="white" transform="translate(20 20)"/>
</clipPath>
</defs>
</svg>
