<svg width="60" height="60" viewBox="0 0 60 60" fill="none" xmlns="http://www.w3.org/2000/svg">
<path d="M0 0H56C58.2091 0 60 1.79086 60 4V56C60 58.2091 58.2091 60 56 60H0V0Z" fill="#010101"/>
<g clip-path="url(#clip0)">
<path d="M27.2919 34.6768V38.5417C27.2919 38.8117 27.4652 39.0509 27.7219 39.1359C27.786 39.1567 27.8519 39.1667 27.9169 39.1667C28.1119 39.1667 28.3002 39.0751 28.4202 38.9117L30.681 35.8351L27.2919 34.6768Z" fill="#EC8B33"/>
<path d="M39.7375 20.1159C39.5459 19.9801 39.2942 19.9617 39.0859 20.0709L20.3359 29.8626C20.1142 29.9784 19.9834 30.2151 20.0017 30.4642C20.0209 30.7142 20.1867 30.9276 20.4225 31.0084L25.635 32.7901L36.7359 23.2984L28.1459 33.6476L36.8817 36.6334C36.9467 36.6551 37.015 36.6667 37.0834 36.6667C37.1967 36.6667 37.3092 36.6359 37.4084 36.5759C37.5667 36.4792 37.6742 36.3167 37.7017 36.1342L39.9934 20.7176C40.0275 20.4842 39.9292 20.2526 39.7375 20.1159Z" fill="#EC8B33"/>
</g>
<defs>
<clipPath id="clip0">
<rect width="20" height="20" fill="white" transform="translate(20 20)"/>
</clipPath>
</defs>
</svg>
