<svg width="40" height="40" viewBox="0 0 40 40" fill="none" xmlns="http://www.w3.org/2000/svg">
<circle cx="20" cy="20" r="20" fill="#EC8B33"/>
<path d="M28.9789 15.3137C28.7628 14.5105 28.1295 13.8773 27.3264 13.661C25.8591 13.2595 19.99 13.2595 19.99 13.2595C19.99 13.2595 14.1211 13.2595 12.6539 13.6458C11.8662 13.8618 11.2174 14.5106 11.0014 15.3137C10.6152 16.7809 10.6152 19.8235 10.6152 19.8235C10.6152 19.8235 10.6152 22.8815 11.0014 24.3333C11.2177 25.1364 11.8507 25.7696 12.654 25.9859C14.1366 26.3875 19.9902 26.3875 19.9902 26.3875C19.9902 26.3875 25.8591 26.3875 27.3264 26.0013C28.1296 25.7851 28.7628 25.1519 28.9791 24.3487C29.3651 22.8815 29.3651 19.839 29.3651 19.839C29.3651 19.839 29.3806 16.7809 28.9789 15.3137ZM18.1214 22.6344V17.0126L23.0019 19.8235L18.1214 22.6344Z" fill="white"/>
</svg>
