<svg width="12" height="16" viewBox="0 0 12 16" fill="none" xmlns="http://www.w3.org/2000/svg">
<path d="M5.99979 0C2.80464 0 0.2052 2.59944 0.2052 5.79456C0.2052 9.75981 5.39079 15.581 5.61158 15.8269C5.81895 16.0579 6.18101 16.0575 6.38801 15.8269C6.60879 15.581 11.7944 9.75981 11.7944 5.79456C11.7943 2.59944 9.19492 0 5.99979 0ZM5.99979 8.70997C4.39223 8.70997 3.08442 7.40212 3.08442 5.79456C3.08442 4.187 4.39226 2.87919 5.99979 2.87919C7.60733 2.87919 8.91514 4.18703 8.91514 5.79459C8.91514 7.40216 7.60733 8.70997 5.99979 8.70997Z" fill="#EC8B33"/>
</svg>
